<mxfile host="app.diagrams.net" modified="2023-04-14T13:35:48.940Z" agent="Mozilla/5.0 (X11; Linux x86_64; rv:109.0) Gecko/20100101 Firefox/112.0" etag="teNQy82rmoBqrajnMAvV" version="21.1.7" type="device">
  <diagram name="Page-1" id="uTF_RYX4pTSIt206OKAp">
    <mxGraphModel dx="2063" dy="1287" grid="1" gridSize="10" guides="1" tooltips="1" connect="1" arrows="1" fold="1" page="1" pageScale="1" pageWidth="850" pageHeight="1100" math="0" shadow="0">
      <root>
        <mxCell id="0" />
        <mxCell id="1" parent="0" />
        <mxCell id="Hf4ZEuIIgJbTYPRIJL2N-13" value="" style="shape=image;verticalLabelPosition=bottom;labelBackgroundColor=default;verticalAlign=top;aspect=fixed;imageAspect=0;image=data:image/png,iVBORw0KGgoAAAANSUhEUgAAAkwAAAC0CAIAAADpWOTJAAAACXBIWXMAAA7rAAAO6wFxzYGVAAAgAElEQVR4nOy9f4jcVp7o++1dN3W82FMyL6bl3ZiWeTGtcJNt5Y2H1txJaIXJ0jI72ZbZDF1mB7rMncUV7tx1mSS4zEuWym4GV/M8pBqcneqLw6jBw6jAw6gGe1cFHlYFDlcVHEYFDqhYh1WxNhwtNhztxoPExFvvj/rdXVVd1dXtdjv6/NO06vz4nu/56hzpnK/Od6xarUJAQEBAQMDTyB/stAABAQEBAQHbRTDJBQQEBAQ8tQSTXEBAQEDAU0swyQUEBAQEPLUEk1xAQEBAwFNLMMkFBAQEBDy1BJNcQEBAQMBTSzDJBQQEBAQ8tQSTXEBAQEDAU0swyQUEBAQEPLUEk1xAQEBAwFNLMMkFBAQEBDy17Bkx/3/+539uiRwBAQEBAQEAsH///i0sbWzEKAR/8zd/87Of/WxsbGyrBHpy+P3vfw8A4+PjOy1IQEBAwNeCR48e/cM//MPi4uIWljnqJPeNb3zj3r17WzvxPiH83d/93aVLl/793/99pwUJCAgI+Frw61//+uOPP87lcltYZrAnFxAQEBDw1LLdk5xbyuc6yBdKZcdfm8wprKwU3QHLdIrZ1ZXl5dWBM2wblfzKSr4CAH4pu7xadBrXnVK+g9YvTyG9lDBkKasnT+V2skP9cn51ZXl5OV8ZILFbyi5nSy4AOIWV5Vx5nUFvP0++2ofS6EgM1h3rxo2a5kZq/ei94JYL2ZXlpaXz588vrRQqPoBbyBY2KZRbyq2uLC+vFJ7mAWd4qqOxf//+//iP/+j9u4ctU0+LFFBSxrQsyzR0NR0TOCGu2m3JsBphaDFj9yyns0xTi3OIz+AhhcVaKpFWVFVOx+MpfaPc77///sGDB/ulsNMcACWpXlWP0QBM3GhKaJl6SkCAhJRuWhb2hpR0ZzDiDKKj2nDC9lTCkKXwgER5qB7FskghPm1tpr4uENvIiDQd1TdO6mkRCoBLWVWcERAgYTjBB2Jd6zxC2npm29XeWV2vS+tyaVEaNYQhtpERKTo2gEYHqb5PpQN1h4ctLc4hPt0YZkbRXI0Re8FWYzwrJhST1P7HejqeiIl0S8Qh8bClpwSKTZiby7/z5HK5v/iLv9jaMrd7kqtWq9WqEWc6+5+oEQqYmN5uxsRISWLCGNCy1Qg17CRnpXg+1RgzzAQvbDCnbjzJVavEthRZxbVpLSNr7b/pMRro2Ah30GOH6Ol4Sht6vO6nhAGx0xGOGXay8CwlkZDNLXyAsFLcQJNctephy5AVo1qtEttSZWWrZtq2Gta2zkynO0TbZrWvra5arWrp9IaDp62l4mmdNP61UtzmJrlB6moxcHdoEaptBvGwZWxOc0023wtYjTDUumc0T48xiNvsJFetVqtGjAkmuQ52Zk8uzPEs2KpitF+bOfcrWQK8TVX6+VSaCNJU/d9pibdT6eKopYYnARAzARCaYDwKsaOWt7OEZ898eG5uYuhsIyuhrGIxE+c9Q1aHWGcJTS1cuLA4HRq+vtEJTdAEIRYAwpOUBzSz9TWsaV1F16yOBNur9nXVARQ1beO7c3Lu3IdnZsPDC7OJulpssjtCE4xHUSPdtZvtBTefiCkQTcemOq+HZpNJgRpFooC17JDjCbExII7vMAm3UjRt28iXOtaj3XIxny+UXQC3nM+u5krdV6vdciGXzeYK5V6L2ZamE5qlm//TDIV1fdTdAievI34aAPyyatHi5DB53Uoxn81m8z1aBOBWSsVCoVB2wXdKhXyhVGmm9J1yqVjIFys+uOXa38YvlWI+l83mivWNz3ohJbdWYb6ZtvZfqbU/Wi+z1Dbe+U6pptZG+W0iVYqFurZHUQIAAJQ1zEkzkagAhtI53LbqA7dcyOcLbfK2/dYv5bp8NS0VctlsLl9avz08GH5JxYwYBgC3oAI/2znTOqV8pzX6bsVxHMdxKrUKfbftv67CdLTOd4pL0aSB7XKlUqkXsY1q71KdX8mfjctW/ZLrQ7tl+U6pUCg5HdfWqKuyxoDrKevW5ne2dn1dG9G/O8B3ysVCoeT4a8ryy6pNC5N1cYqFxuZ5/b9S679eRrjZXnC1jIJpUZpZ/4g2IUgcahO9VMhlc/liS3d9VNe9rs6xsXaft0yrXCoW8vX/uvXp7mcHJjnfKSzFNSahyYvNlwa3cP54VAF+YUGklMirSyUfAMDJvflqTEccRxmxb387aXM8aOueLwEquTePx3RKXFjgvbR0YrXcrVaMCSDUMh6EEGDbHq0prsdE5icBAAjwkSGeX7u3txMfW4ackKRofCmjE5qh7LT07VPZsg8AHrb0dEyKp+UV1bYyIhfL+wB+afmElCbc/ILEGjHxbMEFILapJCUpJedWNJvmOKRGuDfzxdyKjmmehYzInS3WKie2oSQiUlKv/euXV09KCYsRFyQOJ8RTOacuUlyKpeUV2bTkKBdZdTevhAZlDXNiGCakCA+GrLY9ePjYMjJxMZZWsis6YTmWpAX+fE1eH1tGOibGZLtHSlFYKhSyK7rHcixOCcJywy6c7JtxnRYXFgRajwmncpt50sFIiMyEAMAltLTQ/jTuF5dOyYSfr1nj8aWiDwDY1NNRjuYiGRP7AEDMlMTx0Yxh/1t3YTpa51iGDQgBMU3DMAybAIxgew16qr1LdY5pEADPw5ZpGIZpe1C3rEgklVmVDVuN89JyBYhtyAkpkjbb6vFMeUmxKY5niBo7Xjfgen9FUiYAgGebeiYm1vJ1q2uE7qjkzp6MqYTmWGTJyYzZXlxLc8Q2lbgkJTUXGmYuSkmjTdSuRrjpXjB1wwOGZbr9Nnn6w9OTAAB+aflkVCaMuCByoMVPnC80pOuhuvV0GRs9bOmpqBDNWPWGa6lo4zbq1qdPASMudw68J0eJCUVRFDkdExg2onSsORM1QreWkT1VogUZV6tGjKEabhB6lO5Y22/tydkZoW2ZHWcEOqKu36bxFAkhSWn9gDMCUJF+S+iD7Mn1o/eeXI/2dsFKsEiUmzscdppHbLy+b6nH6NqSPrF03fKqnh5j2txG9BjD1bYg7TSPmKhWL8VMsIiNN7ZDjTjDtGTEGaGhJCvFUZLSqNlKcY1kVoKl2IRRrXq2rplN0TaPmU6otWKwLCJYu+luJliKa+7V6jG6bXe3c/thXUqKSzV+1CJUXRtVooioqVQ92l7e4HtyfZqTYJsb0Haab3WfleKopo+Hp6fThtdXmM7WmQl2ZNE65eyr9i7VaVF67V4PzgiIiWpetYoNzag1rVOHVopFYtOMqp4WpZsGbCbYtjvQiDGtO7xLXZvCM+IsE23t/RNZQL28Ojo6q2qlOCQ1B5J+RrgptAgFIPT1KvBad3C1Wq1WsSzSkoKb8vRQXbvZ9BwbtSjV1gI10uaq0q1PHyO7ek+OYqWFhYWFxTM//Wcj6cX4k7nmq7CrySphGCjXsBFNWboFQDyCANXe5xECj3hd3nccTTYQQ3v1zISiwTTWv+0BAoDOZ0IPIQqtT7i9uI7j92pvNygAimo+H05GorwtZ5pbmYjjpgDCU7OzUyEwZNVmaMquF4so2jJMHwAQAmAErl4KohAwPF9fJkEIEY80q2vqoyTLFk1TuF6YR9HENCp1kTyW5wBCk7Nz0yNvvkBJMTzPyOfz+bwJNAOGoq59evRYnmvJ63m9n+07UwLHTUMrH67lCy+otq0shv1KqZi3CBBMuhe2OaaTBjZTM75bLhZMu7aEAAAAU9EYZ2SUCgCAr5uUOBPadmF6M4DaB4PhuRDAxMzcTK/NXAo1rSTEC1y7AbezDfeir6dlm5P45pogQr23u1B/AQY3wkGgGRqAkB6d7fsAvpZRCMu13konOI7SMl03rXtI3ntsRB1Z1mXfuE93FTuxJzchiBxWUkrjpiIEe+0riUxcNVI8gJBIMIZS8AH8omIyiYTQxccA26QjM5fUtcT0umQhiqag3TI9D4CiHvcOr6urOunV3gGgaAoIthvr7+0N8DEh0DZtU1HZzEgNja2x6g0HFII7ZERC2lCj9Q0HRFHUlnl7lDTCR1i6BheNCqhzxRIAoPmosyGdKVH3dvq2noqeeDNjejTHsVtuAp6lxCOnkiqmWJ6jofVsNRGJC1YmUwJwNYsWpx6HML0YRO2DQdHDCI0o1G7A2wyxsYeoQY2nP4Mb4SCwokCDZZjdFOHnZMUBjG3SeaMiCoFtDeGPM+DYuJ7h+vSJZ9QDmjcFohAC07QAJgEAaIalPYyYqanmE5/v+wCAqWgmSpTVVaAiqj4z0c3IGI5BGUBTU61HnrXbywAAwPEcGBgD1OvANkYsP5Jj1fD4pmFT8zTVo70bg20MDM92e38KsSyDdERNTTU3vwcttQsMxyIDUW1qbS9s6x66ixqR4jMtH0ImJiYjslI+c26qX7YR8PMxMe6lrV/MhwGgVLvmlm1vamorHlvLy6IoS8Zvz00BgF/fKHHKZWpqKhQW45FYNFOICpgRJzYrTHl1BS+enh1JyiHU3qW64uoqtbi4qQ4imADDdTNgj3jd7GqEugAolqE8QnyAoecnj4z2qrYBodlEgpeTsuosLK7pad/AwE0AzayVvaY7el1ZvVQ36NjokxFfS590dsS7MkzRCIhlVQDAKeStuUScMxWtdWBINq1gAA8bmoV4SZIiIrd2hvNqL2MQlpIxWlfyzc4rr6a1Lq/0YSkmEr355OSYJkgx8bG6n/vlTFIHGkI92tsDjBsJ/VI6Y/GJ+EzXdNOxhGC3LTq5+bRsAdT11Ekvo25en4wmJE9Vmg4xfjGTqXukkN7Z11JePXXibK63i5afl22Ob++EsBgRKVNRuzoP9ZO8a8puiS3dwIzA14ZZ17aJBx5gw7DXCVdcPnlyacizJ3xTNxHH10cVu+bZ5JuGSQAAQrOxKFLicZsVw8MJAxRdH/KAQJ81NwDYErV3qY6ikEcIAPg9xtRe2Lhl6ZraMmCKpgAaWxBlwySt/upS10aN6kZoNh5nTVVrOrlapt0zMaJo5DVEcEwTD3Cb9GMDgSfPKLJgJWOrne/PflE2GWkaIDSXSLCmqjftr6TqEElIEwB9VddG77GRoqlmDt80ujutNHEL50+eXC7uwLE+W8MfJpPJUfJfuHDhrbfeCoV6zRaV/MrKR/JVw76PsfPQHTt87DkK4PCRvTfVq+YzJ17fq9+4z/Hfmfv+K86l5Grl0bh/75Ocvu+N0zMUoIN+NvLG25cymXQq9d7SyvWSf/SVl5l9lfzS+UvXbln2/Qf7j7wy/c0///7zxVTy+oPxvQ/L+dztZ3/wV9P71kuC2FePfJJM3zv67aP7v1j90aU9717+n1P97tVCofDpp5++8847w2ulkl9e+klG1e37X95/cK9S+s31X/7y4/fj8csm84Nk9Ni+Z17u1t4uPPjko8xtoB/67tiDz3/+bupu5Ip8egqBU1h5L63cum3bjusfeJF7FgEAxb3+Z+NKcvnzh3sfOZ/lbniv/fC7Bz7Pvpe6rN+27t5/dODoi/719z+4csO6cx/7B188+iD344tX9Nv23QePDj7PP8ovJeVrty0b7z3yrWNT33z9+GHtg4uFh2Pjbil/FR/74V9O+sXV91NXbpi2/eDhw71HjzFd9NyG//nK26mr9rPf/8Gxda3zS6vvnP3hB8pN4/bY0Vdffm4fAICTX/5A1kz7zi3jiwcPxg6/6F5//+IV/faduw/GDj5/5F72xxeVm3ds7Iwfeulw5efvXVSM2zZ2D7342qEvVrukvIud8UMvHax8/H5avXn77n137PC3/lx49ourmRvjR4/45cLNPfzLWLli7nmB/+9+IZW6fMO08YNHB17in9v38JPlt9PKffav33hh8CF9z+Ej4zevXL138Mi489lv7jwrUjcu63dpTvpubSmSPvooJ++J/X9//izU/j3YVRjxUGW1rXXsM0AdOVi+nLl18OC921/x8y88s51qf5l9pkt1zz5/oHBRdo7svW09872558bL2feSmRu379zBjvvoKM9SAG5x9f26Dvc//ypH74EHn/wGxGN3f/O5O/bw3m8+umjwly6frt921JGDZVm5e+To3kohdxv23Fau3XLGj3yLZ/atqWtf/0b1gX75xEtfXExef3Rw/4PS9auGdUe7cdNuSNcBOnzIUTK3Dr148F4xf8v7yr6mGvbYwZdedHM9jbDPHbCxwNQLkZMvVS7G3sl+sf/QwXG/8tn1X3589Svp7fnJPQ3ZK5lU7t7Yo3vFXy7JJHo5Pf8ne/qp7kjrpth7+Fvc5P8tdh8b6aP7C5ev+keO+OWChvd8pV/Vbj84cPT/2fvJB2v7FACc/I/fzWjesfj3nhtC9ZujXC7/9re/PXny5FYWOqLjykDelV3xbENTVN1q94T0sG03jsDyjLgYVXDbb0ZKYCO9D50i2LY3PAoIm7qq6uYg52yN6l05AO3t7YqVYlFErSUc+JijDUsdBo/YNh7Fh9JQlBGOb9g2CG42y/N6KsvTFHUzjfdIq7/WFt/lvKrBhKmlG7Bjt0LtXaojmzStngbsYduysdcwtI4zkNbVtflGNTTsYRvjPneSR2yrlpJgG5N+nTEIgwnsYcvQVFUz7K7Vebj7HdhHdWvpOjZ62LZs4tUHjA2GF6IqI50MMyjb4V25I3tyAAAQmpyZW/vpZGhisnnJ1g0QkhNtv81EJFqzCUD37YrwxOTGvn4T07Pzg2y9Ph7a27s1CYdOvGFh4ckB1Nqbsg1s9+XVnaXNWnqvQ/gmBm4zrQ+FW12wtvhweF11AwkDA5o4AGyR2rtUt1lr6GmToYnJqR5Fr7swQqMaTQlNTPbdeQ2FJ+s75YPrujcDChyamJqZ673t2EvmPqpbS9fGtPJvPGC4BkHcBmmeWJ7cUDtTsRSnxpdyZdcHAN8p5ZYShpiKPBVOrYPgV4o5VceeqWX7nWfwRFPO6pTw5DxUDIdfUkxmEyeJ7Dy7Wu292HWN2nUC98QtKJgTd+3I+4QHTfWdkmFYNvEQxXDC7NTIz1ZDsNNBU32nbNU/7QKKmR79uXIH8H2/76vJE83uFX73St6HXdeoXSdwT3zXD61ff9gWtiNo6s4tVw5EaGJ6dn56NHfp3UpoYmp61z481dnVN/nuFX73St6HXdeoXSdwTx7XDLdNjLpcybLsl19+uSWiPGnouv673/1up6UICAgI+Lpw69Ytx9nic6FHneQsy9q3r78j+W5FEIQ/+qM/2mkpAgICAr4uHDt2bGJiixewnlzHk4CAgICAgBF5wvfknmzcckG31pyxSjEcPz2565aw3WJWMT3wgI/1C0PqlrKyxUYXpsNOYUUhQmx+atimtjJW8isaEk/PbsZ/0c29GcOJX5zejb6Pw+OU8rph2oQQQrFSdHFmopLLYXG+SzSyAQorZjUTE8RHF2cejzOTX85lDCqyODvhFldlm4sudD3Ye8BkAQFDMuJ3dpv/GPyJZ4CPwYltGXKEBiSkDMuyLMvUVTkVFXgxpW9zkAojzqC2wDr9IaTjY1JPi9KoLdSGZyZ4IW17WpTqCEe0Dk+LUABcyqrijIAA9YoQ1Kd2IosIkJDBVSvFAlDd4iINUKQiImiPQzIqHtmCoEGdJa5R8maLseQIx0kprf6hsGerqXgiylNtEZiGLBGbWpxDfN84L1uKEWcA6Jhe9VQJQc9+GzBZwNPMrg6181QSnpyaEXgaEM3NTE1NTU1Nz84vnvuZJkt6RHgzv50ft7FSPBaPcAM9yleUxrmTNUJsJB6LS83TqY2MApI0GZrL2La80KfI0JxsWUacITBxWrUsJYoGCAzTWXt4UbEsNUoRmIrrlpURhziNsomj6ZhB/Y64HBJXzShbHB5yrZI3RWVVEhJeQvvVubn66kBocv5cgicDhRLtIdjE9JzAPs4gUzMpwzJTvOeH5hXL0uNMd6sZMFlAwHAEk9w2EJo6nY4jOZYobN+ZpuHZMx+emxtoh9bRNbNzTJycO/fhmVYYY4+QWoyeUHhigwWi0ARNEGIBIDxJeUAzw9cenqQ8RDMAoYkpAMQMvyTlaCaXSQhbN8v5htY1xNlIrFHyJnCysbhGx1MLa7p5Yj4V5x57KMQRCE0wHkJsCCA0SXtA9Zj5B0wWEDAUwSS3PUyJImPLaa05y7mVYj6bzeZLrdc73ynl87lcrlCulEtlv+1yIbe62jzmxHfKpWIhX3LAd0qFQtHx26+1EhQrPrjlYj5fLDutydUtrcaSGsZWpVKp1K67lVKxUCjUJPGdStkm4GG73Pi9H35JxYwYBgC3oAI/2/na55YLuWw21zqgpUvt4BZUj5sNAUAlt6kjIRzNYsQZKSpSpix3zHJtLXMrxXw+X6x0tmidgADglrOxuGLbdrlSqThtP/hOqZDL5vLFitu61FS175QK+Xyrk9r/gzVKrmeuFPO5bDZX3FjNAABQUdIaYUWxy4FPU6LAtGY5v1LK57K5QslpM6KmoDXp2v7rQq2p2VyhnqJf9nrLyi74lWJhsMN4yqpFi5MA4BdVzAm9Zv4BkwUEDEMwyW0TDMuAZ+omAIBbOH88qgC/sCBSSuTVpZIPAKXlmEz4ufn5eR7UeFy1AQD88soJIWYgYXFRpLTYiZUyALFNLRWVEumsrNtGUuATJSC2oSQiUlL3oZFAjMYTS6qNGMbTYsLxWowYt2xYBAEQyzQMw7BwLb0hJ6RI2oRaZtMiHjYN0zDsDReIMBIiMyEAcAktLbQPv5Xcm8djOiUuLPBeWjqxWu5Ru9/M6HhsZLB30Q4czWLESQiLUZGyVLnU9hOxTSUpSSk5t6LZNMchNcKdaq4al1dOJS1WXFgQQI68erYWRMevmKaHEBDbNA3DMHF90iotn4zKhBEXRA60+InztdQetvR0TIpn1FXFBJZj7AR/fKVQWFVMxHK0FeeP10OndCgZwC8tn5DShJtfkFgjJp4dIIKPb+pmzY66MH3hw4UwAIBbOH8ipnmcuCCyRIk2IqIQ21SSESmmYgAAbJlKIiIltG7965dXT0oJixEXJA4nxFM5p292H1uGHJdiaXlFNi05ykVWN2yLA3xkNgwAPqaE3o5NAyYLCBiOEff0vt6OJ9VqtWqnOaAi607o9hQJ1a4TNUKzCbNxXZVoQcZVK8WLTbcNT0tn7Gq1aiZYqnHVUyUK1b0LPFVClKTgapWYml5zQcAZoeUl4qlShyeJHqWbBdlpHolr3EmsFEdH9cZ/WoTi06OdWW9nhLYycEag6x4l3WofsaZEplaPp0YoaGm2/nOaR0xUqztlmAm22Td2mgeqHsXCUyTUEtdTRNShAE+PMe1+D1gWaakREUOPUpSQqf/oqRKiRLmel8himzNOS8meHmPavITWlN4DIosASOrrmEOUmjU1W5/imUY9niIirtkqIgtIaPqaqBGq4XhipThKUhpOLFaKY2LGRtmtBEuxCaNa9WxdM7faZSfga0zgeLKL8DziAUXT4GqyShgGyjVsRFOWbgEj8HaMe+n4qfPL2QIWzpyeBCjKis1J9YNQQ/O/wuSfFmtnpwMAzXMTAOHpudm6C0L7pkwIOmLWh2ajEtK33JeiN44mG4ihvXojCUWDaVjbUVNF0zFY+Xw+n9eBZpGldLzLAUIAjNAIHYAo5Hn14JKTZzRsyXMht1Iq6LaHsN0rUK2vZRTCcq331AmOo7SM2jiIAVHNH0MIIZrjJhuVo64hpQ1ZtRmasuvqQRRtGeZGa5ZhmqbAI6TH27XvAzhKRkMc23obnuRZomYai+SDbNuVZNmiaQrXRfMomphGZaPsFHgszwGEJmfnAj//gCebYJLbJizTBlqQWCAEewi1BgwmrhopHkIzHxpGOsIQIxMXWfZkzgEf2xhqHiA1Os6+o6ihgkVSlNd7FN9ysE06GskldS2xHQewVzSLi3B0DSYSFSlblYtrEqHu47Nra8nIybOKBQzH0X2GcIxtAqg9AaIQ2FZLncN5ffiYkPaOpaKymZE2XI3jJYECy7C6zYbOqqz5gO1O2wJACA3X7wR3FIGEtKFGN/76EFEUFSwnBuwKgo/BtwW/IKuYTyRmQ+AzLO1hxEy1Qij4vg+VXJbML5z76cI5ACd/SkjI5XmRZUCzCUBbyuZMN9S46tsYI4ZjOq862RVDOj2/DYMTwzEoA2hqqvX2468dm7ei9rJmc9HTM81XFzYuJQVVKX44s2HYLicbFZK0an04GwKA+uuRWy7DVHt8+PzKKnc6wjCUR4hfe0MGACCYAMPRm5Q6xLIM0hE1NdWcPfx16llPWEzGWF6W9dTs3Jq3JdcgFBcCimVQx6ueT4iHGKaLoJ7X/aMDhmORgai2nusq2vrsu8m7M+BrTfAmNzIerPnUy69kozGdl5UzUwAQmkvEOVPRmoeOOtm0goEYmUzjC4MJIcLTFAXTsQRvy5lSY5BxcmmlDADgw9o6ulzANm5mVNMqFU3WYu9RFAUeIQBAPBjg8dsvLp88uTSAZ0QbYSkZo3Ul3xwey6vpWouHqd3JnT1xarXPVwEl2WCEdleVEB+V6I53uR5jOYCl6R4n8DUJHNv2wAPfMgwMEKIoVBvFXQIUgtBcIsGaqt5UQUnVIZKQujnJDPS92nQsIdiK2lw9dvNp2QIAcAvnTzZ8RdYTmk6qKVaLxfOdJ9a6BRnz0iRAOJKIUrrazO8bisHEEmIIACBEU1RTHa6h2+2yeg1NTUYTkqcqTZvzi5naZ419s5N1Dd+w77rjl1ZOnRrS2AIChuIPk8nkKPkvXLjw1ltvPT1BJdooFAqffvrpO++80zOFW1h5f/mSolmY3Hede6XPrl+/fv36L69q+LWLV/7+u40x8ZmXv/+Kcym5Wnk07t/7JKfve+P0DOX8ZvXK7S/3jo09evBFQbm2L/Kj7zKI4k4cH7+aSJfHDz66V8zrX4nR2Wfu5ZfevXTNtO7YDx48OvitF+g9AOXsUlK+dtuy8d4j3zrG7INy9sc3vnxmj/vQf1Qp/KRxqiAAACAASURBVCR59dmU8uF3/y8AAEBHDj+QL93cf8g1v2Ql7tmHxdX3U5dvmDZ+sP/5Vw+UPno/fdWw7LuN0h9+svx2WrnP/vUbLwz+tL7nWfH7zxdTyesPxvc+LOdzt5/9wV9N7+tSe7+lgy9y55NXjD2vxF57dt1vldz5s6fevXzz5m3nyCsiSwEAuMWVDy6pxh37tvG54z469KePCsnUZf22dff+owNHX/Svv//BlRvWHYz9gy++/DJ3wFTkW/ufP/Tws7xBCdytK4q9j3tNfIHec/jo3qsXr44dHjPws9J3GAT0yydeqmRSuXtjj+4Vf7kkk+jl9Pyf7AGnsPJe+upN6y52xw69eLD88fuXrhrW3fvu3sPf2vvZcvLSNfOOff/B/iN/+jD/QUvJ3NQ3X/+zcSW5/PnDvY+cz3I3vNd++F16D4CT//G7Gc07Fv/ec93V+gx/8vtHbr77w/evuwcPHxx78MUn+Z+v6PuiZ2qdu4f53utHCxfTn7njDyu/+fji1X2JKxe+U3/tO3Rk/NqlG/ufP+R+nr/x5T6iKpr18OBLk/c+fvfStVuWff/B/iOvvDD5314/flj74GLh4di4W8pfxcd++JeTqHf2P314/YPUlRumbT94+HDv0WPMvg37rg8Pix8l0rfZH/zg2DCL8QFPLeVy+be//e3Jkye3stARHVcC78rB8bBt46avnOdVq1WP2JaF17mndaYcBFVCXMqqVgm21xdXK7Hr9V6iaoq6Oac5gm2brBV9iNptRTE3TrVpPNLSrOd5a34ZRfDBqu/SsURV1vnmdstp6qqq6mZ3uyC4h8EQbFs2qVWN8boGtlVA7C5tHTh7tbrtfRfwNWA7vCuDPbnHR2hism1HPxQCgFB4slu0886UwxCe6B5BPDQxOcQXab6Jgduc01xXAQav3TE9WtxUxYMRCk825etcfwiFu+h8OLUNUP36jnUNgrhBck7Pzvd25enV760fNmpKu2Y2kR22v+8CAjZFsCe3+3HL+VXV8mxdzfU+02II/JJiMuJOnO/v5FVv7SkqTzduQcGcuNsDwAN8HfsuYJcQvMk9BSCaiytmHKDT733TsJHTO7PJSgnRfudDP4UgLroYfiqa/PXru4BdQjDJ7X7Ck9PTW/netXNuRE+lA1NfQk/HDAdfx74L2CWMOslNTU397d/+7VNp4J988snvf//7RCKx04IEBAQEfC34l3/5l//6r//a2jJHneR+97vfHThw4Kmc5Pbu3fvVV18dOHBgpwUJCAgI+Fqwf//+f/3Xf93aMked5P7t3/7t7Nmz+/fv3xJpnih83zdN89y5czstSEBAQMDXgl//+tcff/zx1pa53Xtybimvd0QxRhTDsOzUROern1NYUVHk9MxAbutOMauZmCA+ujhYhm2jkl/RQDw9N+mXshmTiSzWD5xySnmz7fxAmp+bDgO45YJuewgAPI/i5mf67aP1Knko3NybMZz4xemdcJSs4Zfzim4Rj5XOzG0ohVvKyhYbXZgOO4UVhQix+aldu0Awelt8p6hphoU9QgjNRaIL0+FyLgfz813Cy21MpZDVLExo8dzm8g+NX85lDCqyODvhFldlm4sudD3IecBkAQEjMOJ3dht9DO5hy9TTIgWUlDEtyzINXU3HBE6Iq+2xXbAaYWgxM1i4Fw+bWpxDfAZvnHZNTmLpmRjPJwb5ZnXjj8HtNAdASapX1WM0QCvWjYctU08JCJCQ0k2r/pmuhy1djrK0mNIMu/8nxj1LHgaiiAgGiOnSAZZFCvHp4TL1kcE2MiLdFtanN54WoQC4lFXFGQEBag8hszVYaR5R4tYU65F+X0aP2BZipCWWj6T1uuUQU0nE4xGOXh/SadASbVOJMq3YTNuOEWcA6Jhe9VQJQU8zHDBZwNeF7fgY/LGceGLEmc5xmqgRCpiY3n7HESMliQljwJuwLSDWoGA9k86oekpATHxrJrlqldiWIqu4Nq1l5I4hSI/RQMfWzk5mKtE3QtggJQ8GVmIcO/Qs51lKIiGbWzgWdsau61s3tgxZMarVKrEtVVa2esDzTDmR2KJSzXS6b5s23xbPTPFUKyReAzsjUF3iFg4OloXHOMlVPWyZsqx51apnW3pNFZtPFvA14emJJxfmeBZsVTHar82c+5UswfZFh5mYPX3m9DzPbOXx6eFJAMRMAIQmGI9C7CB5BjukbzMld+BoJpdJCMhU1GGOzQ1NLVy4sENRmUMTNEGIBYDwJOUBzWx1+dOLFy4sbMlyXUXX+ofL23RbKplY0uSSqbWBByZPp6JbarvbTGiC8RBiQwChSdoDqocFD5gsIGDT7NCJJ8TGgDi+w6LdStG0bSNf6jiS3C0X8/lC2QVwy/nsaq7U/cByt1zIZbO5Qvnxnmfu5HXETwOAX1YteshTQtxKqVgo1NtWyOcLJad1XslIJQOAo1mMOCNFRcqU5c5Zrl+9bb/1S7leXgDwK4VcNpvLr7k8OH5JxYwYBgC3oMLGx2f4TrlYKNROeXErFbd2qVQs5Osnv/hOqfVf5089cCvFfDabbTdC3ynl87lcrlCulEtlH8B3ikvRpIHtcqVSqfRo7LBtaVDKZAyPj3Q7BIUThbYHJLdSzOeyuUK5KUCftneV0CnV7plGCrdSKhYL+aLT/l/JafxTMwS/UiwMdpc17dYvqpgTem21DZgsIGCz7MAk5zuFpbjGJDR5sXknu4Xzx6MK8AsLIqVEXl2qRf5wcm++GtMRx1FG7NvfTtocD1qXB+hK7s3jMZ0SFxZ4Ly2dGD7ex6ZxPSYyPwkAQICPzA53g/rYMjJxMZZWsis6YTmWpAX+fD1sykglQ32Om4SwGBUpS+0Int2vXh9bRjomxmS7R0pRWCoUsiu6x3IsTgnCckPZTvbNuE6LCwsCrceEU7nNBCXHSIjMhADAJbS0wRuXkz9/XEjoHs0gM7OczaXiGRsAiG0qyYgUUzEAALZMJRGREhoBAA9bWioqxbUeoba7G2FpOSYTfm5+fp4HNR5XbXAswwaEgJimYRiG3b24YdrS3izDsICimW5uRqG5Dz+cq6XKvXkiYSB+fkFk7HTk1GrZ79/2tfjl1ZNSwmLEBYnDCfFUzqnnj0tSUnOh1vdyXJSSht/4R4ql5RXZtOQoF1ndcJpzGnbrY0rovTQwYLKAgM0z4nLnwHtylJhQFEWR0zGBYSNKh4sJUSM023QG8VSJFmRcrRoxhopqtU0EPUrTsbZNkNaenJ0RKD7dKA9nBDrSb9PLU8Qt3JPrR689uVSbeGaCpbjmRqQeozfnYrIOO5Ooe/F4aoQCdq2nTb96jRjTln5dSopLNX7UIlRjx48oIkKiXNtH0qPt5Q2+Jzc4Vpqn2oS003yrUz1FRFzTIIgsIKG5e6tKPbdyuxuhleJbniqelq5r1UywW96meku4miNGvzRrbNyIs2yitovar+1te3JWiqMkpbHpZ6U4pm6ndppv9mK1aqU4JDUqshIsxSaMatWzdc3cytAMAQFNdnUUAoqVFhZmAGBhMZI9wfInkfmL+drzqqvJKmHSUC7XXgsQTVm6BYueRxCg2rMdQuARry1WcwNHkw3ExLxGZooG07Cgz4HtTxgey3ON4N8I9QrgPBwVTcfA5PMWAADNIkuRSxc+7FTJ4PV2pgSOaxSEEPJwLV94QbUFbyLsV0qmZREgXq/3pa2gmEmbTFxpNmiS5+i27ao+O1c9f+phhBGBtwXuJUUURVGUpDOnt/lVg6JpBFZHVPI2fB9CobKSMego1/qZ41k7njEu/HQWBgvYXZJlixYoXC5jAACPoolpVGBmsu/ZpxR4LM8BhCZnN/4cJCDgiWEn9uQmBJHDSkpprGgRgj3UdnsxcdVI8QBCIsEYSsEH8IuKySQSQpf7HtukIzOX1LXEEzHD1aRaP3cQ1NGM5jy+dVQ0i4twdA0mEhWpjuDZw9bbmRJ1Hwh9W09FT7yZMT2a49jtjYDpYxsDTbdXMrJHRg8jDM18aBjpCEOMTFxk2ZM5p08ZW0BYkHjkmUZXr5ayLBcBsGV7HX0QQgiIjQffjSa4o61ISBtqdON5C1HUAIHlAwKeMHbkgGZEIQSmaQFMAgDQDEt7GDFTrdBqvu8DAKaimShRVleBiqj6zES3O4zhGJQBNDXV2vbwtyDczBbA8hzK2NgFaNtRc0xC89tccVmzuejp1tfjbFxKCqpS/HBmZruq9PMxMe6lrV/MhwGgtgPou2Xbm5rahjAyIYZlQLNxh2Z7MOircQ8jrOSyZH7h3E8XzgE4+VNCQi7Pn2vfYSuvruDF07NDt6EXE9FEJCmqcjH54cwae68YHi0BEI5BRvsBCy4hQLPMel30ajvDschAVNs943e9ZzyyJv8ucu4MCGiwI96VYYpGQCyrAgBOIW/NJeKcqWjNh2Qnm1YwgIcNzUK8JEkRkVs7w3kAngcAYSkZo3Ul37xJy6tpbcPH7a1YE9yIsJSIM0ZGaXPB8IuyyUV6eyEMJFZ59dSJs33eKEqywQjtU0uIj0p0l3e5IettpOyW2NINzAh8bZx1bZt44AE2DHttQr+4fPLkUmFEH9jpWJy35ZY7TdkwcFOsEE1R0BjeXUO32yX2oEdrQ92NkBiZTKFuWxNChKcpCgCAoimPEB8ACKAhX1vdwvmTJ5eLvZ7EQnMZNYGUWKLYqaRKTgFhPgwwGUlKnq41zcrVVItPxGcGajsAAExGE5KnKqWmW2Yxk9F9AABE0chrJHRME7flIus1t5EpdscvrZw6NbINBAQMyB8mk8lR8l+4cOGtt97qfUBzJb+y8pF81bDvY+w8dMcOH3uOAjh8ZO9N9ar5zInX9+o37nP8d+a+/4pzKblaeTTu3/skp+974/QMBeign4288falTCadSr23tHK95B995WVmXyW/dP7StVuWff/B/iOvTH/zz7//fDGVvP5gfO/Dcj53+9kf/NX0vi6i+KXsR6s/v6xot+272HlYKT88zD/XZ4AqFAqffvrpO++8s1nd7Hn2tdefL32QWHUPHT3wsPJJ9qPLd4Xk//hv9edht7j6/sUr+u07dx+MHXz+yL3sjy8qN+/Y2Bk/9NIxplsLas34fOXt1FX72e//4Ng64Su582dPvXv55s3bzpFXxNqioVtc+eCSatyxbxufO+6jQ986XPl5z3oPV37+3kXFuG1j99CLrx36opuEd7Ezfuilg5WP30+rN2/fve+OHf7WnwvPfnE1c2P86BG/XLi5h38ZK1fMPS/w/90vpFKXb5g2fvDowEv8c/sefrL8dlq5z/71Gy+M8lpAHTtxfPxK4qN7Bw+NffHJdfOOrd95JvojkQYAOHRk/NqlG/ufP+R+nr/x5T6iKpr18OBLk/c+/uDSNcO6c3/88Etdev6Zl7sYofOb1Su3v9w7NvbowRcF5dq+yI++yyAA6sjB8uXMrYMH793+ip9/4ZlhZHfyP343o3nH4t97rnuCPc++durP9l57O/aT4tihg/sfPfj8k9zKyu0XfnR6Zh8AwD729eP7r37wUdkfdz//zUcXdfYD+cx0TZ092v7K+G9+kpSv3bZs7B84+vL0d14/flj74GLh4di4W8pfxcd++JeTCADQ4UOOkrl16MWD94r5W95X9jXVsMcOPjde/DB15YZp2w8ePtx7tGGd/UyxDw+LHyXSt9kfDJcr4GtBuVz+7W9/e/Lkya0sdETHlYG8K7vi2YamqLrV7gnpYduun2RU9Yy4GFVw229GSmAjWk/PSYJtu99RS8MyqndlA49YhqZquom3TjhDUQY7Au3xQrCN6353nteztZ6mqFvknefV+1yP0mynyyzBtmWTWhKMh7GLdiOsVj2vWq16xLYsvFZmgu3NdilRlUHOLiG2qauqpltd1eUR3N3gB267R2x7XbOqHrGt2mWCbUx6d2S1Wn1iTTFgd7KrvSvXEZqcWeekFZqYbF6ydQOE5ETbbzMRidZsAtB9myc8MflEfkkaCk/NzG3tqbhlG9ht218bgbYu6P1y75sYuC3qqXaD6SFKaGJyuG3BzjJDIQAIhSen1ku8eYNzDYK4AdKFJ6dnJ3t6UYXCE90bP3DbQ+HJLk1otXaAFj6pphgQ0GCHTjwZgKlYilPjS7myWzuuopRbShhiKrINjgy7jHJWp4QnwoF0E/glxWSGP8ClD265kFVNgk0l1/80kycFt6BgrtuRJruPXW2KAV8Tdu5NbkPCsxd+xTslQ1cN4iGK4WK/+MUT+ar2uGGk6O6NQQNs5PTWhthFiGKjshEF6PuZ15MD4qKL4d3bge3sblMM+HrwBE9yAAChienZ+emtc9B+KtjVcdi3XvjQ5PT0rvo4OfSUzHCwy00x4GvCk7tcGRAQEBAQMCKjvsm98cYbf/zHf/wHf/AUTpa1T2nD4WCJNCAgIOBx8NVXX/393//91pY5Vq1WR8m/f//+crm8b1/Pz7p2L0tLS//7f//vL774YqcFCQgICPha8E//9E+rq6v/+I//uIVljvomNzY2tn///v3792+JNE8UoVBobGzsG9/4xk4LEhAQEPC1YO/evePj41tb5nY7nrilvN5+zh4gimFYdmrNKV1OYUVFkdMzAy0NOsWsZmKC+OjiYBm2jUp+RQPx9NykX8pmTCayWD8w0inmzbZT+ClujrG3T2ansKIQITY/FarkVzQknp4dyA9jXdcAIIrl+LV9swtwCquKBeBRYmy+j7ffYIryK3lFs4jHSmeejtP2e1npaPiF8xEj8qtzO/gBQaWQ1SxMaPHc/IbfofrlXMagIouzE25xVba56ML09o8dW1RpafmEzCkfDhx4N2ANI35MvtGJJx62TD0tUkBJGdOyLNPQ1XRM4IS42n5OAlYjDC1mBjs6wcOmFudQr8BgPSF6Jh6PJxLxiMiLccXa4LSKjU88sdMcACWpXlWP0QCtGGoEW6aeEhAgIaWbFvY2LXOPlpC2YyqILCJAQgZXrRQLQPUNp9fG2q6xLFNXMokIz0fSxvbGC/O0KI0GDZ3nkc4zO7AsUohPW43/iRbjJAUTRURU3xhvgyqK2EZGoqnoIGeSjMLahmwTPa10JDwtSg9d1lD9vjHENpUo0wiS1x8jztQC9XmqhAAacRC3l62p1IwzQPU56mlo1t5RW4ARZxAd3QIZt+PEk8cWNLXDtIkaoYCJ6e06IUZKEpvROTeiFTR1UGw5njZbR4axiI5qfYfyQY71IralyCquzRgZuWNYXBc0dXiZe2BnUh3jM7EtTVasatXDlqXIw5yZta5rqlXPTPA0N3BPbApbS8XT+mBymul0x9TlWUoiITe6suqpElWL8+nhjU7ZGlhRVoqjt32SW9OQ7aOflW4ST0sILAXMuqDA/Rmm3weiLRLsBnjYMmVZ86pVz7Z0WdmqmXbbKzVSIksP/uw6AFo6PUjU6GEgejqe0rZgcNuOSW5nvCLDHM+CrSpG+7WZc7+SJcDbVGVFlRW5EZ8gNBOLsljJaKOehB6eBEDMBEBogvEoxI4u5wA4umZ2LDOGJykP0QxAaGIKAHUJujIMoelkOkLS0WRp47SbZXLu3IdnZgeSs6JrncHVQlMLFy4sTjfWbjziAUWFASA0sdFC69YqalTWNGT72Hor9XWdSqYl2lblwjCHzAzR71tNaILxEGJDAKFJ2gPqsdyrW1BpUSexTJQlmjzyaNUoUdO2fJQNz5758NzcE3qKzw59DE5sDIjjO/rcrRRN2yYEUXNtK9duuWjYHsPPTkE5rxkeK813W9d2ywXdxEBzwmyXUwYBgGI5BrWmBoQQeIR4g4Qk64OT1xF/GgD8smrR4miH+PmVom7aBBhBbMbOc8sFwyIeYjgWPGp6KuyWVmNJjcStSoUCRE9OhADcgupxp0MAUMnplHB6JCkAIDQjCVRazhRqwaYBwHdKhmFhoHlxdjLUkhZ7iGJZyoPm99h+paQbJkaMUEvpVkqWTTyKm2W9kmEBOzs90bo2HQa3UrIwIYidm4ZywcSI5WYaJyb6TjEdTRpUulxhUL219cw0NzsVBt+pWJh4BJcrFUTRkxt8Zr2RotxKybQ9mlt3rmS3runM6TgeAIAHiJ4Ih8B3HAIAgKiJcKihP4IYjm82rqMhrX8YUjRsiutixnVNATs3MwHtepvoKAzKBcMGmuOnG5JuqZUCAPiaTokXBF6iZVUx0rNtu0VtfQuVomERihVm6ibT0e++U7ZsjBE7N005Jd3EFFvTjV8pGRZGrWy1NpTyhkX63OAb0my7X1QxF+koxK8UNAMDxfJCXWsbdKhbKRqGTShWbB+sapctgtiGnfSrdCCKOhHis7TBpjKy7s7Pt0pYr0CGn2nXzfpGAfiVfCIuW6xQrlAI2u4Y3ykbhkkQwzYL6dmVbqVoWITmmsW2iTLRlG7diLFj7MCbnO8UluIak9DkxebM7xbOH48qwC8siJQSeXWpFurKyb35akxHHEcZsW9/O2lzPGhrHusBACq5N4/HdEpcWOC9tHRitdyt1vDch//n//x0vl6ja+gW4kRhxEcP12Mi85MAAAT4yChPqH5p+YSUJtz8gsQaMfFswQWAyuqbSYudm5+fFygjEctY4JYNiyAAYpmGYRgW9gHAJ7S0MAUA4HhsZEsepxiOBmwYZQAAv7x6UkpYjLggcTghnso5AH7hfFxFwvz8/BxHMrGk7gIAuMWlV4WkxYiLiwJkIqeyDgCxTSUZiaQyq7Jhq3FeWq4AsQ05IUXSJgAAsU01ERGj8aVlzaYYmiiRb59YKbkA4FiGDQgBMU3DMAybAICPLSMdE2OyDQCAbcO0CGDTMAzTJj1a01RyH0W5xeVTJ1MmYjnG09IprRWfrmvXrMG1DSUhMLSQ1CwPAHxbi/GclFBNAn5p+WRUJoy4IHKgxU+crxXQ0RAfW4Ycl2JpeUU2LTnKRVbX10JsU4lLUlJzmzlEKWn49f8ycTGWVrIrOmE5lqQF/nw9Zt3WWWmjtZpBidMQ4iMSjVXZaH+XI7apJCUpJedWNJvmOKRGuFN5t/5bR78bSjIiJeTcimIhjqONKH8yW8ytqDbFcpQe4U7l6jrwi0unZMLP127w40s9Y/H1w2m03ceU0PH+7GTfjOu0uLAg0HpMOJWrQP8O7T5YgZM/+6qUxqy0KPE4GTmbd/tVOhh+QSeiEILpaJRb+y63XoEx7kS2EdyvW6MAHNMgAJ6HrdodUzNyv7x6KpKyaGFhnqfMxIk3a6m7deWb+WJuRcc0z0JG5M7We4LYhpKISMlaUMKuI8aOMuJy58B7cpSYUBRFkdMxgWEjndE5iBqh2URjmdhTJVqQcbVqxBiqsZepR2k61rY109rfsjMCxacb5eGMQG+8em2lOIpPbbAbMmqonSH25Dw9xrRt2+oxhktZVZwR+dZWtZFO18qy0zwSB9qGGIAue3LVarWKM3zDRcFKcZSkNLZRrBTHxIyqHuMizR0tLKcVUq16erTVCJwRUKPzcEZATFTzqlVsaAZulEM3vURwRkBcswurRJGo5oapmWDpte4kRoxpmQuRRSQqI27zYFmkW0ZUrRpxpu540r1ruuGpEbqlSiynFFzP354DyyItNSJIdTTESrAUmzCqVc/WNbN7g+w0j2obkNVqtWqlOCQ1jd1MsFRrK1WP0Vvn4dEJURONPR0jzsA6fwM7zSOmueFtJlgq0twG7Oh3T5FQSxk4IyC6aVV2mmtuQ5kJtmmknRoYYk+ud3MUETWL1KMttXXv0B6DFVYkio3XtW+luC3xr/H0VEpvFgnr7Hy9Ahvt6NmoalWLtslfrVarZoJr31v1tAjTuBfWdSVi4w1PCiPOtGXDmWZHdB0xBmVX78lRrLSwsLCweOan/2wkvRh/sjW9u5qsEoaBcg0b0ZSlWwDEIwhQ7ekHIfCI1+UJztFkAzG0V89MKBpMY/3bXht+8XxME1Xt3GPYDRkQQ1ZthqbseiMQRVuG6U8Igpfknz9+6uzyaqHMnjnz+EKaEOIB0AwNUJJli6YpXBfNo2hiGhVOZPUI++0Tby6t5IoQObMQBl/LqJiXhJpSJ07/M8E/m2tqmOG5EMDEzFwv93WKah6uHJaiAtmCDdPBqShpnRKE1gcDqHnUc/eu6VZISIxLoGRqMeorGuHECQBfyyiE5Voe7hMcR2kZtduzLQUey3MAocnZuR6u5hucQO2xPBdqtsDzusZAHxVXU23A+Xw+n89jmqWwqugdCkEIgBEa0ZQQhTyv251bg+a5ibZsfDMbQh6pyz+dNLCZmvHdcrFg2gAYb/TOPgzhBdW2lcWwXykV8xYB0ii9a4f2GKxcLaMhQZqpaX/qnEGsD0e+XX1dMQnR8/l8Pm9TLO3pXfblOhXY6POejVpPMSNbbNvOUYgVaDOTKTeK7OhKYHi+ZWHEa5XatMzuI8amlbAF7ITjyYQgclhJKY2GE4I91Hb7MnHVSPEAQiLBGErBB/CLiskkEkKXWQnbpCMzl9S1RJ9vdyqr8Qyd1i7szO53d3xMCKDWKE9FZTMjhWDqnGHKMcYz5YTIscdXuq7DbotAtmkDKwiTAAR3dA4S0oYanQzP/8LUUwJlq+mowHBnC24tIYVaXdRxdi9FDxEFOkTRlGdv6UjWH9vCPSTs1TXdCM3EI7SaUV2AkuZxQhgAMLZJ59SEKAS21XXnH1EUNdKDV/OZcBtxNYOK8HQNRohKDFFlfe0khmDQgBCdylkzi9dnOc9S4pFTSRVTLM/Rretbg2/rqeiJNzOmR3Mc22YF3Tq0x2CFMQaEWnm34uRqX9eRKDF1VXPRCOfp8vrHo+4PPj0btT4hJp16RwgBxnbzX+jsoY3E7j5ibJRrO9kRxxNEIQSmaQFMAgDQDEt7GDFTrV1T3/cBAFPRTJQoq6tARVS9+44/wzEoA2hqqvWw7Pd8bHTySxmU+NmZSQAAN581+IW5J2CyC7Esg3RETU01bcH3fXDyWUtYOPPTICivCQAAIABJREFU+TMAbvG8GE0XT/+0/fHQya4Y0un5LR/XXC2jgZiJTwMAw7HIQFSbfn3fh1I2ixYWL8wsAviVbERIqQmVZSgPY7fNlcf3YVP3uottQrEM3Xm1vLqCF09vS0QKhmNAx6Ruj+306JoeTMViLJdRyjQAfzoEAEAzDOUR4gM0FEEwAYajuxcwXKig5qvOY8TRTCZ2YaZpDdPxSFLOyJo/t/V2WKe8LIqyZPz23BQA+GZdjnKZmtqKMD9+PibGvbT1i/kwANQ8in23bHtTUxNdO7TrYIUYFgjGPrSWhzZr/c38uk5FLsw0H9in41E+k5A1Z3Fxw233vo1qUlxdpRYXGYYGk7TFoiaYAMMym5W7+4ixk+zIJwRhikZALKsCAE4hb80l4pypaM1nFCebVjCAhw3NQrwkSRGRWzvDeQC1A5SlZIzWlXxTjeXVtNZ1o9MtLsVVWqDtQqFQKBRyGdWmHu8M15B5HdOxhGAravOd3s2nZQs8S06r9eWJ8IzEM7UXCoqiwCMEAIgHGzz5O7mzJ05198TphV9aicTtiCIvTAAATEYTkqcqpYZ+/WImo/tYS8v1LwxCk6LEUYgKzcbjrJGRm42orKa7rsp1B7debipy2mBjCTEEAEDR9UkCCKDuD6QdKnUL50+eXB7SNWEykpCIpjX15FoWrhfbvWt6FxQXzFRUQWJ9bArNJRKsqerNVaaSqkMkIXUbpsjGbyiIopHXSOWYJu6dZVPz34baq6gaJXQcLzIdkViiKW3raMOtknrd/2kV4pu6iTi+Xqlt27WLRu1Mofbsm7B2AEs3MCPwdYdC2yYeeIANwwaA7h3abbAKS/EorbctQ5dWMutebzvYSNWOqnh8x4rnZCTKg7HuXa6btvs1iqJQbfjwiQcIYCae4G211aCKrhExEZ0C6NqVG9pb9xEDAPzi8smTS938traZP0wmk6Pkv3DhwltvvdX75bySX1n5SL5q2Pcxdh66Y4ePPUcBHD6y96Z61XzmxOt79Rv3Of47c99/xbmUXK08GvfvfZLT971xeoYCdNDPRt54+1Imk06l3ltauV7yj77yMrOvkl86f+naLcu+/2D/kVemv/nn33++mEpefzC+92E5n7v97A/+anr9edFO9iQfu3pTvSLXUW7s+8HFKNf72blQKHz66afvvPPO0Erxy7mffLxyRb11l9zHzsOKf/DlvZ+1y/wCveYNmuJe/7NxJbn8+cO9j5zPcje81374XfrL4s/lm1+Oj/ljfqWQvfrV997+y+f2AaAjhx/Il27uP+SaX7IS92y/l/EvcueTV4w9r8Ree3bdb5X88tJPLl+9cQeT+w/uVUqfXb/+y+vXc1d1743MlXPNw8cQ+/rxw9oHFwsPx8bdUv4qPvbDv5y8m/9IvTM2/ujRowef5y/fZGI/mqH30C+f+PaDy4mP7+0/4FcKuZv0G/9jem85+14yc+P2nTvYcR8d5VkKwC2uvp+6fMO08YP9z7/K0XsefraaNr961n/4cMz/4vp779587dKV/7cuAHXkYPly5tbBg/duf8XPv/CMU1h576Ji3Laxe+jF18Y+WXo3c+32bfvuA2fs6MssBU7+x+9mNO9Y/HvPDdFjiH399b1KcuWL8f1+pZC7dsu6rRu3Ko8Ov/TyN2e7dE1PnaOjB8qXzJdT/5NrmCD98omXKplU7t7Yo3vFXy7JJHo5Pf8ne6CjId9yr7+funLDtO0HDx/uPXqM6XHgOTp8yFEytw69ePBeMX/L+8q+phr22MGXXnRz71+8ot++c/fB2MHnj9zL/viicvOOjZ3xQy/1LKwL/bTn5Jf+1/96+9I1w/ziwEvHOXoPAPil7HtpxbDuWrduO/f8A996/kHuvdRl/bZ19/6jA0df9K+//8GVG9YdjP2DL774INfW7weKP3n30jXTunvX3f//t3f/IW5c96LAv+Z60Rjs7hhqNOlz0CzNshOe+3bS67AT6rAT0rIKL2ZlbspqeaUrc1ssw3tYoSlVeA2oJQ9rwSFa8CUyOKAFh4zA4Y2KQ0fg8EaQ0FFJyAjW3BHYdETjclRsmIGYzkAXvT+0+rUaabW7sr2r/X7+sqQ5Z875znjOnpkz50y+OFZc+W361tpdk6wfe/4H65/9LnldXTPNB+7xydkfnx77/MbN+ycmxqpffXb3ZJC+fV39huFDrx7KLycyt9YMk7jHJ89w3+13tvfETJ64dzN9e2xywi0XPj8snCHSDf3wKSHIs5TnAf3uGa+L1WH29bM/KF1JfGofP/LoTiFnPBde+H6/wPcJtV289ub/iiVlTbsz9sJPhJMUAEA5t5y8cVs3DV27X7XHfiCMfbbcHUDDJA+PPf/yqwLTs1Innz9euJKpThxZM777+txzR4E+fe6VR5l3P7p/6NDD0qfvXV378dXrS98/7JayXofyAXFP/GDyYe7/XLmhrpnfPFw/8byw3jwQRyZePD31rx5XDArg0Rcrb6WkB9wv3zjV+6pbLpe//vrrxcXFwY/g1nY5cGWg0ZWeHFNTJFntmFzLIabZmLXC0WLBiETaftOSItdndhuLmOYwp6vZ7ejKnWgPQK3mOE6tVrNMw+iqmENMMuCIQlOShjG/gWOZrV3WS+YQ0zC7ZxlxtnsgSFqkxAyp78IroUW8v+/BkqUdzurRiH+9sk6vc7N/Ht5138YR23IHplHPyyKbSzkEO4/eY+VYrbPK6V3nnZ7tVuvwbM699wH1OiEsYpqDHufHHerelfL6n+ZYJhnmBbTjitH4TpH6T8j0OEZXPr2VwX2Bma75b33+QPMrU9VATPjbfpsJhxjFbLt53GncH9gDz9d2pz0AjafX4wGPt199/sCA78NVdYcJDqNo44FWfOsl8/kDXhPjdlZip7tot71Da2sW1fU694AlaBS9uyQD16rHwt+DH7Gtd9A4Ix7HKb+L6D1WvvFW/HvfOdrx2d4Wys259z6gXifENo7JYw9170p5/U/zjQ/rDG3mt3knrk6Af+JX6b272OlUNMnLseVc2XYBwK2WcstxLZgM79GpY/aoal52hD09fXm1lJcV0zEVOV8axkujdkEifBDPkp3Z39Hb+2d7m/0d6p1wS5LOBp/8QMvdLpr6ne985/79+49tPbn65DCm5VA0u/MJfXbm97///dWrV//+978/wX0Oneu6wxjN/BjZ5VJjwR+and59z8S13R5/eqOt7e/o7f2zvc3+DvVODHJ4/vCHP3z44Ye5XG6I+316tysH4vNPz85PP5Zh4wfD3v8/Pz41PdQlyQ7YhWPI9nf09v7Z3mZ/h3onntbh2e3tyu9973vffvvtUIqy16ytrT3tFzwQQugA+ctf/mLbQ37LYLeN3N/+9rejRwcforyfnDp1al/9ZYgQQvvbxMTE+PiQn0rt3YEnCCGE0C7t8Wdye1wlf02B4IW5gFvKpnU2vOQ1/bBbyUuKYTlc6FLXOxNPQrWYVXRiUUJkaWZYfyINVPG+7HJBUXXTIpZFs8FwZDbgFLI6v7CjOUXtUk7WTAv48IXZIQ1XcytF1egxeybDt9bN6qVauCZZYnR+ylfJX1Oo4IVZr2Nvl7IZg4ssTI+3tt9tyRFCHXb5nt3OXwbf87Z+GdxM8QB0SHZqapQBryVrarVarWaZWjrEbCzd8uQ5RFdiPNVjlZ8dGbDiPZPLUYELxqXGejJETcXi0c7FbrbFIYaaFOnOFUR2iRiamgmzAFxU1nRd13VNUxUpGeZocetQWpkgBZSYJjUjyQHQ3ss/OUqYBqgvqyRSQImZ4R0jhPah0XoZfAQELqlmUFENC2ZTuhGVNe9V5ccDM6LAUH3X/3mMfP7pOZGjtCFmOWDFPVVzi2LEjGl/utR8kdw/eykJF7mUs9OX1n3+qVmRozM7TO7JPzXjp0UWJBDEmebKNzOzcyJzMWX2mpGgYXxJMgRN1S2YiqlGSNUMpzVHc6vccxnDiCm6Bf4LsiGqqt5zqgOE0M7gM7ldGQ8AUKwfwOdnHZritk4xInZacTsfj0oQSUU3TZXim00kxG2sxvMU+UWeIVuPuh0P0A7FsAA+/xQAxXrfhvX5GYuiuI3tgWGHWlSEEDZyu1PNq5QwDQBuWTaYrpf57UqpUCjW52zZ/Esxn81m86X+o2XtciGXXc1umgvErZTyuWyuUKo2Z/qulkvFQqFQtluf8hufvLjVUiGXzeYKFbctfb5Y/+hWS22f7Eoja7dSbOxii4r3rI+SlggTbCwu2c4vhtpmy64XMJcvVpp1qJdjIxRuq1S9drUpwv1CtJFZyQa3WioUesy8Us1mCy4ABILBARp1uyA7/KwPACo5lRZ7vAvolmTCBsfr28O+ma0Dof0DG7ndsB02PB8AALBACHeMmbCLK+cXkzrF8ayjpJIKaS1RYRfefi0igbCwEKSl8CvLJe9uQSV7/qWwDEJoKcTq8XPL9VU57MLb56KKwwcXgpwlRTYW63CIoSYjYiRtAABYpq4kI8FoxvTK1y2vLobiBhtcCPEkHjyfqwJYpi4lwqGoTAAAiKFL8XAorlgA4BJDy8RC0VTmWkY3MhE+vGr3q3hfuqo5vdaqClx4/0IAAMAtrSxGMhYbXAjyoMTOvV2wN8qRjgXDSR0AwDF1NR0NhlO6V1ZeEe4Xonr1w8n0akYz5ZgQWvFYybiqykp9JEpggIXMXIsJLUwBAFQdLjzX6x4kocTwjA8A7Ob2CKGh2uUzvQM98KQ3kukcRqHF2MbAE0sOM60REo4cYjyHG5gpgW7moEYZSkiZtZoldW5uJgU2srEwgxKh20aAyOH2cRhymG4MPDGSPB2SGjOBG0mejWq1Wq3mSEGKbxbZyohUa3yFEedoLq7Vao6pKvou5tJXwjRA/3Ebjhpl+aTR/EwyQSa0sRqFHufocHP8jhZlmaja9mmjwr0j3CdEJC1S9VASTdFI80sANhiLx+PRsMDQIc/hIwihIXkcA0+wJ/c4VKSUSoti6yZeazl4W8nIFstCuc6kGNpQu8eklKWMzjRzmP3AtP50KQBVKa1QPNfqFgQEzpLTigvQtUx9j6KVMhmDYWiysX+HZixdq/RNAgA0OJzAA/gCs3PTu3gPgWEZAMvqMTTfdQFcJS1ZHN/q0/h5nlbSnsuvehe4T4S3CBEr8D4A/8xcxwsRbDhx+fLlDz7+kxw9OM9cERoZ2Mg9DqZBgGY8x1FYFnFaTR4AG5O1pNC1GTE7c6hPvULMzsQAFEU5xNzG4EaLdGRBiSlNjmz9SI2i6S0WIR8IFxQZMDTd60mam8tIVSDEtKCzijQFpjF4FQeMsIceh6yBC4c4fGaG0D6DrxA8DizPgkosgO7Wg2E5xiEUO9VaUcFrhkyWZ0ExSVsOruv6WI6lOvpBrmU5FMsyXeldy2Pl+nrGHKVR9NRUs6/kOUGn05W8Tz9vcL7ZeFzIJDJydWFp02MqVyPA+4FhWdqxLLc14N4iFrB8dxXBsRyvUg0Y4d4h6mV8emgv0yOEnhTsyT0OgXA8ZClKufHZNgwC9Suqby4e43VJad5+q2ZTUnc3JRCOhxw5nW8Onyyk0zqMh+MRWpWLzW81SWOj8aAPoN4PaVy1XV3rHJHhANQv6YFIPOTIUnOwi1tMp1UXAHwMTUPjsm9rqgltTYAFMGiDUF49f+7NXM+V4QKXpIxoJKKrnUM73GJGZ0PTAL65eJzTZbXZ1yvJKoTjIX+jiuBsFL2s6ZZXqfpEuG+IeutRdbe4sri4XNj2bLLV/NuLF7PlrTdECO3evyQSid2kv3z58q9+9auRnMi4UCj8+c9//vWvf72DtBR39uwRKXHt3tgxt1LI3frSWFO1Lyvrz75w5rnvn/npy9WridXK+ph7/4ucevSNCzPdt8ko7uzZZ24nEl+sHx+z7+RvkdOR/36SOsy+fnaycCX1lT32qPLZh1duHo3fuPyjev+CmTxWuH7TnZhwywWFHP6nelNZe3h88qXjd1bevnrrS8N88PDYxMunAv/17GvPKu9eKTw6NGaX8jfJ6V/8W4ACgGcmxm5dvX3s+WfsO/nb3x61ZEkxHp144b89+vTd5I3bumk+fPToyORptv903O6da28lb5onf/qz0z3u/dGnwosvVK5Ef529d+yZE2Nu5atPP/nw5j9Db80HDgMAMGfOvVBJJ3P3D63fL36ynLEi11Pz/+UwAAA9caKckb6ZmDxSKeTW4PCadOvL6tjEixOVj965ImlrJrGPPPsiP/1qjwj3CNEPj3zxbiJ9e+3uXVK11ycFjgawi6sr/3Fdum08ePANefiwfG+9q+qPvlh5KyU94H75xqltdXPvffLOu7IT/OXrLN5HQahDuVz++uuvFxcXh5jnHl809WkaxqKpbrVCgAn4wa4Qh2bo8ba/Bhq/9f/7wLUrxKED/k03yuxqxaE90rrViunQbGAcqhUCNOPvuWiVd8Z2tUIceiow7lYrFtB07/T9FLNZZmFhqyd9brWs6wYBhhdnAt27casVi+qq+EYVKbYZ1D5V9Izw4CEagJvPKsLCPN7GRGgYDuCiqfudzx+oX+rHA11rXjd/65+DR0oAGPd7r6Ht8wc2HrZtlbt3xs18ff7AjueXKpvAzWy9mc8/NTPX+9WwXiVoVdE7NB1besRg8BBtzdUJ8NjCIbSH4TM5NGTlbO8JPkaLW5J0duDZXhBCTwP25NCQsaHIQVkvhgtfGMWn0QiNEuzJoSEbyVFIng5OTRHav3bbk3vmmWc++OCDkfzfrmnaP/7xj5WVladdEIQQOhDW1tZse9tv5fS329GV77333l//+tdhlQYhhNBB9vOf//yHP/zhEDPcbSOHEEII7Vn4TA4hhNDIwkYOIYTQyMJGDiGE0MjCRg4hhNDIwkYOIYTQyMJGDiGE0MjCRg4hhNDIwkYOIYTQyMJGDiGE0MjCRg4hhNDIwkYOIYTQyMJGDiGE0MjCRg4hhNDIwkYOIYTQyMJGDiGE0MjCRg4hhNDIwkYOIYTQyMJGDiGE0MjCRg4hhNDIwkYOIYTQyMJGDiGE0MjCRg4hhNDIwkYOIYTQyMJGDiGE0MjCRg4hhNDIwkYOIYTQyMJGDiGE0MjCRg4hhNDIwkYOIYTQyMJGDiGE0MjCRg4hhNDIwkYOIYTQyMJGDiGE0Mg6/LQLgIbGrpQM4vT6lWL46YDP65dKIasYxGKCv5mf2s5vj0W1lNdJ22ean5vxP5E9d3IreUkxLIcLXZoL7C6rSm5FZaNL057B79r4cQTcLuVkzbSAD1+YHXIwq/lrMh2+MDM+aAK3lE2bwqX5XQYVoUFhT25kuGo8GEmpBrEcxyFyXBSCcdVyHMcihpyMBBNqj4Q0y9FqKpExXO/ftFQio3v8tkVxqqX8yuILr6xUtpWMZliG0pOhYCipUwzLsvSmDYpvThx55ny+f3lc2952gTv5aI4DNZmQjN3lAwCOpcRDkVx1oI13HvA+KJZjLTmRlMnW226HW1oORVK6NXiKai4Siim9/xTbYn+bDmt55aUjx19bHSyy6KDCRm5kWBYTkz7+zdL83Ozs7HyQo4HmxbnZ2dm5+aXL/zcToS3bO+F4YFoU2e3/1kclv5JWiGMaxnYvZz7/1PSswNFAc+Ls9NSUf3P/hwvForEw379bpGYyu22cxgMzosBQu8wFAGBq6Y96mklHr5UH2u2OAt6fb3xqVuTpYVSmjV2Ix/WIon8wN2g3rnwtmmbS+h8v7LCTuvmwsmI0Fo0IT6Onj/YPvF05MiyH46d7/soLrG4BDHxXaXcCc5cuAVSsBGjDznp89tL7s1tsU1QUErk07D3vgn/ufZkr6FWA0bkgu4SKSB9Pb+OMqlp8Sr7gfc98EF2H1Te9dLn3KY8QAGAjN0JoQeB7/+oTRAEAoFrKa4YFDC/OTnVdn9xqSdMtiuNnAr2vXW61pGkGAUYIzu7gguW6rs+34+ucWy0bJiEUNzddby7cSlHViUPRHEc7MD0dcCv5eCxjcGK5QlNAM4HxjZ25laKqmxawYnCmq3/Yzq6UdNNh+K5obpmDXSkZpuXQ/CznlDQDuNmNUoJd1nRCoEB3hN2tljSdUJw4w5CiohqUuOTxANAr4HaloOmWQzE8R1nU9HSvttO1y7pOgO2uDNjlgqqTHmdC+2ZFzXRYYXYKynlFc7jQ/PQ4ALiW45hK1myUqu3I0NWSqhOaFWY6MrYdsDQ5a3DBuXoOzRQclDTD4YSNqLqVgqIRoDlBnPY3j17XYd1ID6w40zwP3UpJ1Q2H5gShkXTrgqHRhrcrR4a/96Vu42e6uHw+YwnzCwuCkwq9tlzseMBhSKmMTnECC2r8tcVrJa+HQm55dTEUN9jgQogn8eD5AR80tdLnFxmKvVjYXqo2lqlJ8XAooboAAG7h7ZhMifPz83O8lY4mVBuqumYBOA4xdE3TdLN+u9QtrZwLpSx+fiHEadHgm4Ued27t4sr5xaROcTzrKKlk28OjgXKwTF1KhMPJ9GpGM+WYEFqpAEAld/G1qEoH62E/t1puZPhaKElYnnPSoRfCCi2yRNY2P8D0DHg192ZcZcX5+fk51khGkrp3Zar5txejaZPmeYbIiZTW9ujMu0jdOeQuvhJVKZ6ntehLLyVMXgBFMbxLZZmalAiH4pncNcmgeJ7Rovy5bOP8sAtvvxaRQFhYCNJS+JXlkgtgmbqSjITiqWxGNbWEKMRLAFDNXoypTHBhQWTUqHg+V4+I12F1iKEkI6GYYjX3cS6qOHxwIchZUmRxpX5+9y8YOgBqaCSpUQbYmNbxnR7nmt+ZKYEKZqyNX0hapISU2dxSi3FsRKn/SjIiFZKcWq1WM5I8HZIaiYwkz0Y799DJTAkdudZqNaKmkxnN6pWirfBMr6xJulkeNcqH5WYdMqmNoikRhovrrRSOGmWZiOI0c2f5pOGVcybIdEaBpSPKdnKol46NKE6tRjRFI7WamRbpVqYkLTJh2alHtfE1SQuUmCatYvQPuCOH+ZjWKIuRSileBTFSAtNKWnPkMM3G6kHpUaQuWpSlG5VWIwwTVZvl8DwNHClEMSGJtCKxcYZZcrjtiDhyiBEzZOOfFB2SSK1m6YpqOrWaJQWp5ompRpi2c3jzYa3VajU5RAv1yFlSM9d6JZMC2yh8z4KhgwB7cgfIdEIjenLGtcvFgm4CENI+Lo5qG5gwE+QtKa1s6q2UMhmDYWhSrnNoxtK7+h79+Wcv/GZp8PHm7exqtd65bBWTD3JqmHvp3MXla7kihC8teGesZWSTZWhzo9wUzRiax+jFipRSaVFs3S+kKGp7OWxgBd4H4J+Zm/FDVcloFMs4GyktmgFdMwAcywFo5E9RYFkeYxS9A+7jg0xG5F5ZfHN5NV9iLl2a8yhDMZ3SuaDYDIiPbtamV5G6WI5FAeVrFNGxHLd3qTbSMALvb1YKHMcBAFvJyBbLwkYCk2JoQzUAAHzNFOPTc7MBH8D4gmya0tK4WykV84YFFuk/drNxhKpSWqF4rnUvIyBwlpxWmgfJq2DoQMBG7iBxDCkWPp+QCc0JPAMAvd+qoynH3Hx9sQhxWhd+oMSUJkee1PtOtiqrm6934/Mf62pSpE05FRFZvsddSJdYVnsTTkcyejrU/UzNNAjQzOZXFraTQ+PntkyIabXHDPiEqsSnAQKReMiS5QoAVBXZCsUjHiMOewQ8sCTrcpwHQ06EefalZY87yy4xScefLW16FamLGI+zmlRwAdyipLPxuOjrU6rGx+59WlZHAmBjspYUGp9ouiPkrqkmI+cupnWH4XnO62h4ImbnPgAoinKISdo+D5oXGi048OTgKK8Eg5mQ9vVvpgDA3XiQUy2X6amu66trEYvmWKbzW5bnKI2ip1rbu+4wX+fqx9U1k57f9GUpm6UWli7PLAG4lWxYTMrx2aX2B5PF1VV6aYnjWEql6Kmp5pXYs9wsz4JKLICudts3YA4eWJ6l0kC1xQzqKS1HTCRYbXVVpZik+rHnSAjvgLuFrMItXHh/7gKAW14JBpNK7OP5zibXx3IsqJbneNqeRepC6Eg6Ykmrq0CHZbUx2GbbpwHDcoxDKHaqVcm2FB1tj5uPBmNOyvh4fhwASvXv7LLpTE21Hdf6Ye04a1mOpTp6w65lORS7+RRGBxD25A4MV1d1ihc2Lg2mada/1Brv8hKj+VevrUo6F40H6xe1ZncvEImHHFlqdhzcYjqtbq+VK2cvLr6Z294tTgBwy+mEChsXrFb3kyipTP1CCL5AMMTTFA0AQNOUY1kA4FoOUADT0bhoSnJzr3Y+5fUaXSAcD1mK0hyEYRsG2djZgDl4GA8loowqtV5eL6+mlCoAWLqiWVwwFAqFxE0t3BYBd4iUahTFNxUKcTTd3amcjsYEU1ab4ysqhmk59Zx7Fmkzh2iKQQmhUCgc5FvDSfufBh43B3xz8RivS619VLMpiQAAuJsTGKpGWFGox8M262UmmmZC92Ft7s4BgPFwPEKrcnMslatJGts8hXsUDHZ8QqJ95F8SicTTLgMapnJu5cNc4aMbkvaN9cCsPrpf+urRs8JzNBx+dmLs8xs375+YGKt+9dndk0H69nX1G4YPvcrRj+7kyWkRvvjq4SH3/hcfJRU2cf1/z4wDlLPLicytNcMk7vHJM9M/Ovvas8q7VwqPDo3ZpfxNcvoX/xbwugtkF1dXPsreuKEad+9+Y9v37q1PnmaPArh3PoxfUU++ET3T6y/sSn5l+b20rJoPvn3w8H6l9Nmnn3zy4e9ises6+7NE5PT9ZnmOTLx4+p+f/4d899DY+vr6wzv565+z0f85wxwGOPn88cKVTHXiyJrx3dfnnjsKNH/2J2NSYuXOoyPr1a9yt50f/+JVpvsmBsWdPXtESly7N3bMrRRyt7401lTty8r6sy+c+dfZAXJwy9l3Eunba3fvkqq9PilwNAAcPhn86fPFZOLTh2NHHpXzubWTP/sf00cBjp8o/fZGeji9AAACdklEQVT1XyTT6aup5DvvLH/0WeXESz859d17AwT8Tu6q8uDQ2Pq6W/0qd90Q3vr3U9239ejT515+lE58ZB87bt/5LKt+eVe7rd2tHpl8+XTg+95F6orHCTcbfuOtq+l0Kpl8Z/napyV38uUz7FGK8yhVNbf826u3dOObb+xjky+OFVd+m761Zpjk4bHnXz41NfvTl6tXE6uV9TH3/hc59egbF2boSr6e4q758OH6iRdPMYcBmMkT926mb49NTrjlwueHhTNEuqEfPiUEeZbafFgr+eXfXb2lGXcfjD37gjA1/frZycKV1Ff22KPKZx9euXk0fuPyj8YBKv0KdszY6oRE+9/THvmCnjDHMk1rYyyd4zjdPxKvgXYem+2B4Wn18jvENLpL7VUThwxWvY3N6tXsiNGAOXixSCvwNTMTCib1VkaOIUc4oceIzc0Bb1Tb8Kh2d9KN3TrENInVuXlHkboSarFgRGoNV3SIlhS5sNJW6G2fBoOGzyLNjDedo1ufoBbZ6RFCo+lQrVZ72u0sQgeMm1vk1dh/vj/T9lX+vCBHvv5gq9lcnpjy8ksxRvnjUtut1MrKKxFK+n8XRmfaFnQA4DM5hJ44XzARt5JvrhYrLgCAXSlci2WoeHzPtHAAMBVN8nJsOVe2XQBwq6XcclwLJsPYwqH9BXtyCD0ldrmo6SZxgGbaZ7DaS+pTipmWQ9HsFvN/IbQ3YSOHEEJoZOHtSoQQQiMLGzmEEEIjCxs5hBBCIwsbOYQQQiMLGzmEEEIjCxs5hBBCIwsbOYQQQiMLGzmEEEIjCxs5hBBCIwsbOYQQQiMLGzmEEEIjCxs5hBBCI+v/A5abncI1tcFaAAAAAElFTkSuQmCC;" parent="1" vertex="1">
          <mxGeometry x="622" y="-230" width="490" height="150" as="geometry" />
        </mxCell>
        <mxCell id="Hf4ZEuIIgJbTYPRIJL2N-15" value="" style="shape=image;verticalLabelPosition=bottom;labelBackgroundColor=default;verticalAlign=top;aspect=fixed;imageAspect=0;image=data:image/png,iVBORw0KGgoAAAANSUhEUgAAAdIAAADACAIAAAA/a3VFAAAACXBIWXMAAA7rAAAO6wFxzYGVAAAgAElEQVR4nOy9f4zc1n3o+1UjZajavkO5VpfqdbBUE2HpV7tLv2d36fzo0tculkIdLN3bix3jFhDVFBWN10AjwKlHbZw3wXPgEeLWI9SFKcROuIVTcwFflNs6DTexU25iI1zERjiB3XLwFIRT2wjnwkrOpFZzmEjm+2N+7i7n1+78Wvl8AAHaIYc85/B7vkMekuezL4oiIBAIBMKo+JVxF4BAIBDeX5C0SyAQCCOFpF0CgUAYKSTtEggEwkghaZdAIBBGCkm7BAKBMFJI2iUQCISRQtIugUAgjBSSdgkEAmGkkLRLIBAII2V//18JywXbdlzXCzDD8pwoL84mobKx7DAnFqZ3VZjS+rLlIoQxJz+8OLOrTQ2ZSmnDth3P8wNgOF6Q5PnpRFhcNZG4NJfcxXbD4pphewhhildOLUwNrLwteyht2B5qt5RihfmZ3VSgsZd1w7RcHxhOkOTFWWpj2aZP9HpMw8KKZmFBPbGrthw+pdWzJpU+PZTjNGTK6xd0l5HVxZnEsHZRWl+2/W2fUhRNs7wwNz3yQxuW1nTDZ1PKwvQu6hwWVzUz4JVT8y1HvVJYNQzbRcCKanqplyaN+gE5WoqngebktGZajuNYRl6VRFmRWIpOWX1tKwbf1tMiDTCATQ0N7JtpkaUoRlByumU7jm3qmZQopVICDXze3+XWPUtTeAqATTuDKe+2PbhGLpdLcQAAwMqZXC6Xy+UyaUXiaABKMtCud+HrMstKOdPxPM+xNFUSeJaiZLPX73s5HgCAUe3edmdp5i6bfUdgS2GGdqCGWylspWgA2H28dsK3db3anwF4RdN1Xde1fEZN1bqP7u4+1PoA6RIFAJSk977b7UehFpt0ysKNj/IiTXGq5VfjQe0lHvpIu8hSOQqAVbbGA7IUdlC50svxE5x2saeJNAAt5hy0ZUFepAcUxrY6vN5cx0pRAACbQzAwZIbPebvcNDJkGkQtaH6CPU2k+0i7yFI5imJkI+i+bhRhU2Z7TNADBRkStbUHDoxhV8rXJQYoLm0PvuibcdIsAFCysWlHgamwABSfdkaYed2cQAMt5NyevxFzFLCd5ihgJL3R0R2VARC0IIp8QxFF1ewlantOu8hKMQBAp8yYlsK2wrwP0q6X4ykAiE9Nfl6g9nbajSInzSu7bXpHZQC4zKbgxrbC9p52+yLQJbrX8+JB4ucFlmWhev7U0+9DH4yrUoMnPu3WLxWASzvDTvw7p7ejYKUogH4vEnsd2y2bOTMAoERZihmUSQhKijOpxt9had20XB9hiuFESZqdStQ/tX2MMeakU/PTEBbXTcdHGFOcfGK+3QBZWN6wLMcLMMXworwwmwQAKG+s2B5GGDPiqcUZgNL6SnXLrHRqYRrKG6u2hxCmBUViXNN0gZPk+d0M6QAAbGiaiwE4SYobo5xOKZINzTYoF9Ys2w0wRbO8JM3XxrIqhdXq8DUtKEuziUZJMSMq7cfZKsU1y3Z9RNEsX69IpbhmOQHCmOLlE3NTUCmsWW6AMKaF1NJsMiyumU6AMHDSCR6vmXZAC/LibOyIWnn5uAL6109M8VKKgQrAbsbdaJYBcHPSXUEmrYiiMDuVgISQ1TNUoyodig0ApY0Vx8Oofiy3NScnyNLcVAKgUlzVs5mMhSjRXF4JKGCEpfnd3V3omYKmUxkzZ4kpE1maUTpxetOOyxsrlocxpvjU0hwU1izHRzQrSgvNgfNKcc2yPR9hoBlekBZmp2ofd6pU56ACTj4xTxXXLdtDFCNIi7NTtf34iGKFeudpHoNNQRfTwsMjIcoCpZueoTm5ufnqrmJ7erW4plUtGMcg4Bu3kMJywbJsL8BAMZwoLc5OQduwb3S8alQ1wo4RUwJ2LMfDFMMJUu3ORrujUD+uUA/eVdP0ASCwjBWg+4i/HtOzrdAAPZ2EITst0IyYM13f9xxd5WlW1jwcRRF2zeqgIl09pUKukZHZzVvdfLaL3bzEUKyctz3ftzWZoYWci6Mo8q28wlMAlGTgKIqwZ+ZSHAVAVb/pW3lFoAEENaOqmqawAIyy22tBPy8AQC+/bNjTZZbmFN32fN+1chJD82kriKIoCmxNFWkAEKonxr6VVwUaAMTGieeWs93AUnma5tOm6/uumeZpNmUGURQhR89ILDTOLANHT4sM1E/G641Ly5mMktEzIgWU0DgZr53tinqAUeDkRFoc3BlbYEh0S4BRDC+nDa/e+F2KHUWRZ1abhJLN2pd8I8VSjJizPN93dIWjubSNosi3dU0VKABKSGu6ruv2qIZ4sa1wsoEibCsMwLaT+2Z8cqqWV9O67bqWygGwav2q3kmzAKxiBYHvGApHUZxqoSjqUKkegopJ5TVVzVuu5+QECmhJMzU1rVmuZ2d4Cpj6lSqqt3njaqdNC++edme7tauixmFv39N1iZd1N8AYB56hcHTKrDWHJrMUI+ZMx/MslQVgUhZqH/aBralC875RI+xoVpAzhu3YRkZkgOZVK+hwFHyrmmdq3TNwDE3lKQBGymi6bvm9ppge0y42ZSo2vraCDHnzGGf1aqLxPVuhG2k3iqLIlKn2addJcwB0o/dFgSYCJWjVbbsZrpF2o6iWrajG8ISX4wAoRjFRFJiqwEv53sd04qmNpseF0GbcDLd5yM/PCwC0VBurrKbvZgqsbrdN2g10iQbgGsMa2FYZYJRq78WGRLUek0ATW/NXtXEpIedF2M1LvNAcd6qlXZoTRIFjKIABpt0owq6uCEzzxB8AaDHfGJnpVuxaE9XTrpcXKGgZLUamTDW+baXo3m++DQpkyFwtgboZDgAaR6SFanwyqfoIta0wLSV1MhxF87Vxxq0NEFepnoKKFmudI/IyHABQjb/dNAtApTZ1pUba7djCu6ND2k2z1RM5N+rQ0wNNpNiUUc9ngZmp9uNq69aj1tdEmmJrP1xtw37LAGa1CVqqWc1djSZtE1pbxwCtFNVu3LE9PT63m2BYBgAAoXbPHoVhCAAVy7AQUGx1bQCABMsxAJ6hb/S2pxY2DNMDoGnwS1UQzTDYtdyw1y1gXhSTMLX41He///XTs30XYDMMw1AAgDu1AQBAwTA9AIZlGldp0yxLAbJ1q9LvPiuWYSMAhsK1JvAploXAdfzeiy2IM5CYPf3173/3qcUtIzlCxvqX7/6bb6lcvwXrSGL2xFe++2OEPMfU8+mUwAAgO5td7fm4tVKyDAcDTVOo1gQBxbDgOU55oGXup0SG5stq9cp4VlUFCiAw82bcwcWcJNXbnAIAhHD1j7nH/u3nP/1+mi0V1tdWLRcBAAraPtfXa1Cxkli/yKUpAOBlqf43RQFghHFcfcbSwrhaFoalO/V0mhdY30ix1KGjt9/9wBmTTquz0GgOnq827vSpf/npz3/01ELL4FinsG+FohunB0lR4gCQrdt999N+6XVsl5dFJq8HgeuVIG78opCVNOlfnmKDAANsOs+hKACAoFNMtQEjBAA48By7/mUpp8uc0POoE00zg3s8MCnKPGU52HO88FTMyFdlJZVC2tdPBUEAUIv7GhQAAA6CoN9hU1Ttp8hzbLu2PUbVDUZge94E3fwJbENCSCnS5oO2CwoXzrjSEyemIZGcmVucmVs8cTotHecVy3V82MHT2LVshFzHrn8kZHSRFcf1tGxB0zwE6l214mBEUxAgSzPKS6e2lomiqNh2DUurWTWje7SkplMizzPdWr+3oNq6tzZ738JYWrjiewgAWEGcBvDb9vTE1GOOw2Wzmum4tuHahm7q7tdPVIvcqXbdwz7mOzRNAWAUoN3d3uhOr2k3MZ/NiqZqO3mtoDw2uyXphAXDZqQMAMVxNDgIIQRQO2iBjwCA49m4zVZif35rcAJP6TawwokT881vlMvxjY07bWogTCs5JSdqvpk3c/NLW2OybBlIzE0BcDwH4CC/+TtTQQgAaI5j4zaLO/wiMTzPgBPQvHziRGOHYbmMYn95dtoEifmHH97RF+NAjmlQmZbiAkyLEgcWxdLx3+hcbFbgaPAwLaZOLDZqHZbL275TvnB/hjG+sjjUW0EQrmsmm3f/YSnZ/OQkK+qBrenFUw/39rNSyEpyzhfy3ndPTwNAuNo2f9Qr1W9Q9UPPLTxASobmYKClbGYWOvX0yvp5g1Kf+PqJJwAqpbVcKpXTrPIJSWBBD4IgCKGRi8JKBZLJ3Rx93w8wAMPxWzP2wEOr95eDp0+ZZpqnvZyUOr/RehZeKSwraT+dW0wCJBbSGYEC17DrFyhF0/aBSWWVakDSDA0AGKrXmxXbdDFAm243lcoqHASmtlrfXVi6oKTyXnNLuP7dcN2s/lAOM1YS83lLl1lkqtKDq6WWS+awtHZW0bhcegYAppVMioHANgu1NSq24WCKz2SkRK3gVEs5C5YdQLuSJ+YzWZEGR9eL9d1V1jNyunoZlKAZqiVrlSzTG2yFdwayMsqmECnZlkfLqlzLxP0VOyllMzyFbc0o1T8qrypytjrUVI0ChEKAwEcUPdycC1Cx8ragyq3nQon5tMIBgKvlN3obRgl934fmUFxYHTNq9oKYSnULqt3QuYUHT6Ww/ICUdoBPG0b117l9T0eukcno1XIlpxfUFMewDA3TqazCAjI1s55nysspWdtB+AeuV9tnuJ7XXKCFTGa+3k+HF1p9jQRXbwhKHEPTLC/KqZQsiYKYytut92OQoykCx4kpRVUknuOljNlyhy8wVYFh+FQ6k1YVNZ9XGACgWCFt4cjJiTxLUxTF8PXHjgM7nxJYTpAVVUlJopxuvquB7IzIMpyczmTSiprTVB4AKIZXjMDJSdUNsbwopuOeNN4FyDUyKYGlaYYTJDmVkiVBbL1XH0UR9s2MzHO8pKhKSuQ4QdFaHgzHbl7mGFZSM5m0qmS0jAgAwHCy5iErXW0CmuXFTO3GmWekJY7lpZSiKLIktW7L01M8wwhKJpNWlbSekykAoFkx5wSGInIMRVEMJ4hy835iYKqiKPIMRVEUxXCiKIq7v9vYiq2wvJLLyALHi3JKUVISz3JyftOD8e2LXV2+6ZZaFEXI1RSRY6vtKYuSqjdaO7DSAkOxoiyJij7UJxncvCzwHEPRDCfIWv0Wim8oosizFEVRFM0JoqgYfoTtTD2SOVHR/cZhpRhOVIwg8g1VZGlGSKUzaVXNmVZeZCiKqd/4ja1U+6By87LA0dUCyHkXO3lJqO1NkDUPN/sVJ6R0L/I0WajFRr13dGjhHYLtjChU79cC0KxQhedYhmEFWdXsLbf943u6nxcYQUql1HQml1FTkpRu3Bb2rYzEMSwvK0pKluS04eMoahf2LbmFEzN2FNVvqTFiSlHUTEaVOIYV1dZX57YfhdbuKefdKDDV6t7oLXvrRr9pt9GoQeB7nh+0z2gYI4TaHTqM6gsxQgjjboe4uX773fS2pcGBUeB7nu+3rWSnYtcW4uZaXQvevj2bW8I9bWmo4GYpUecY2V5s5HsBjran3foX2jYB7nAQJheM20dH1LZSHYNqACUab1NurV29RyMUtG+OHZW49fmRDhsZSmjti6JokCfPBMJOWX/wiKhhxQq+QmeOCnkq4/7bY7t9/IRAaEP5wt2MavM57/s9jsgPEDLxI2FSYAWeBgp55tmMgYWMliE5lzAkSmvnsoYHAIGZO7taHPXuydkuYYIISwXHC4DhhdnhvpxKeH8TlgteUP+DZmdHPA8lSbsEAoEwUnp6bvcLX/jCsMtBIBAI1wZ/+Zd/2XmF7me73/nOdx588EFZlgdXqknENM25ubkjR46MuyATTaFQePPNN++7775xF2TwmKbJ83xtMkdCN1566aXrrrtOEIRxF2SyeO+99772ta8VCoXOq/V0tnvjjTc++uijgyjV5LK2tvbggw/ecccd4y7IRPPlL3/5lVdeuSaDwXGckydP3nPPPeMuyN4gDMOpqamHHnpo3AWZLK5cufLFL36x62o7cKkRCP1RM8RhTj69S9vexFAprJqOj4BPnWo7U/RoCEvrhuUBTQMGlmcD28EUYE45NT+BIrrS+orlBYiRJtyVOGxG/wBZuHbyyMGjZ/qfkGxPUTx/18FDx5fHNkvWRJFgOA5b2Zzpxy0tLx8/dPCu8yN/iGdXUCzHIjObM4Pu6w6QrW1VWXtQVBxeOXViaYlzMyKvuqLK+/l0/YXaCYNmWcrOZXVvSO8dD46wUhliGUd/tpvgUmmVFwY71eDEwYpqWqWEPeiUHQbJ6TmRZ3LxU/7QgqKmsciOtki7JJGcmRd5Wh/xbre0VdnImVzGr84Gw0kCYzGp2cTsrOtXkhMZesnpOVFkwRp3Obrj6To6fXq++4o7YgyDDNMLDz+xMPrdjpbE7AnyhlVvJGaWHnts3IXYI2xpK4QQTdfnaEnSNEVVp0BITk3gAEONQU0wOlxKtuXxp4e2+cGl3bBcdFwfOGF+GhdWbZfiUwLleT7CND/P4YLjATc/O1UpFWqf1cVOpXXHRZhieI5C1OzsRP5KN6iUNlwP0bw4S/vrphMwkswhzw8CYMU52l93ECvOTUO5WP+sKnCrFNcdD2GK5TnA9GzdqFUpbTiOj2hOWoi3nO1VwlLBdtyAYkVpi8KuUtxwfNzyPkQtIBh+vuEZ29osYbM5GVRw3ABYfn5mTIESVoquGwDL89sWVYrrthsAw4v1uoTlgu36GNMcz2DMzraz5YXlguMGFCfOMcGGZXuUeEKAeruwaMPxaX5+JrmprSrlou9jjINiqUQBAPYRxoFfLFE0PV3Nu2Fpw3Z9BKzYdKO1CcVh0TYSwtKG7SGaq3eRRum2NGH96FPcAgcFx8OcMDeFm1kEShtOczuV0objIYYXN71uE5bWLScAmhOan7e0JRTXHb/5jk5Y3sgrWYfOF0ssBRQzPfg3dwY0tltcfkDKuAzPU6Zy+3Edixw2bR/5rpFNpXLasu74ZlqQz5cA+Y6ekVN5FwAAyqtnMjYrLi4uLrBeTsm5gynOcKisn71bMTDLs35Wul11WZF2LPd/B56dV+V0Xr9g+p4m8epaiAPPyily2kIAAKXlB7Met7C4uCjSTkatTU9XWT97XDFAWFqSaCN197nCxA939Uhl49zdYtZjpRMnRNBSJ1caA9zIXblgY5bnUF4UzlZnSQwDz8mrkqr7tW/HNAuuNbFmLhsucDzrZ8S7xzEYXF47+4Cq+TTPM4GZzTstoyal1QePqzYtLS0JOC/fv1wEgMJ5VUfCwuLiogBmOh0/tA1h4fxxORewPIc1+faURYtsYDr/X+A5elpW8/oF3fV0hU8tVza1VRi4rhsg5Duu4ziO47hugJHnuo7joRAgLJy/X84jfnFJ5hxVOrNegXahOCzaRgL2zAtmwPA8Zab4k2v12R6LF05mPU5aWhJBT91dLTEA8l0rp8iZ/Ipu+05WFDIFQL5rZGU5p69esPzadh5c21i9YAeMwIEm8Wcak3CWVx5M24y0tCQytiqeXK0OeoeB52hpSc0bKxdsxLXEZNlzfKAoQK7rOI7j9+9n6IGuk+V8+9vf/sQnPtFxFWym6KoTKYqwIVMtfqJAEylWsXAUBY7lNJxGjGLXvsg3lc1ePj8+Ufsdd9zxve99r9MaXo6n6vpKN8PRcnNCSVtlaCHvRRHybLs2Y54p04IWRFEUaJLQVC05+bwTRREyU0yzmbApMwO1mQ2LZ5555o//+I87rYFthW3oQgNNpOjqH26Go5p6bltlWnRUjsrW2qJ9s9gKTYv16RaxKbf4OAfDPffc8+KLL3Zaw8sLjNz0l7ZGva+JdLNAgSYyKRN7OaHpcsdWXostcKCLjboEmkA1lWaRl+FoLuNEEfZtqzYjYbOtompPasq+WhdhW2VbrK22yvI5Lz4Ud8ZDDz30xS9+sdMabSIh0ASKUWras8jNcA27mZ8XGrY4bLQeYWzKFC0bQRQh16rNGOnnBYpt3Q7FpVsEoaxaqxsyJIqquzptpTXu3AxH85m4mHQzXC1F9ckvf/nL/fv3d11tIIMMGCNMsbU/KGqrLoAV+ATA1NzCtsvCBC8xisi5sixJkiSfPj3JT5VghIGqDU1RNIXxpp9BiudnAGBmvjEKXx/EmhJFzAu32LIkibIknz6dBKhYuonYPBSL1XM2iqE924MTkz3C0gOhpZmBoIvVy7KpU/+CFEjUr9F4ka/9l6KoOKdEx2ahaI6vxUeCoigUDNsmsoUNLe9yGbFxUZ6gG86csqU7FKvierlpBlzHY2XBF/nbDUmSJEmWT5+KV4Ig3NTTUBS0mllowJzAAySm5/t88s7RTZ9VaL/ekDTjOW74cEwoDotOkcCJfG3PFE1hjEOABMD0aStIUVOJSqngej6mAj8AmAYASAAAI/BTADC7UOtgFAXAtm4HWEFohlfDeJhcMn0RTyXDUsH1PARoU7/FnNAlJofCQAYZknJGAdsqhgAVy/TEjDrXurhqlIhl+oTpmhkePDOb4tm7JvpKe1ZNi55pVQDComWBkt7kGKDptpWcedhxdZXFrp6ReO74hSIAQgFuFV2xadPJXQsv/KAgwBRNNRNMovlfCqgug2RdmmXL3ZjRpt0w8INW4WErgY82lZvP2lZmNjH3hOPkUyxytLTEcQ+sxj5OOK1kZGSaJQAoWyaSM0rLuQfVvGPWZ2ERai0sreiuJifiQnFYdImEuK9UfCubeuCM4QG7XS8X18E2b6eNWi307Zxy/4Oaixme57ZspHtMDoXB3FLDiM/kOddYdoBOW1/v+bZYuL5icUunnlg4BRAWz0tSzko/N2QZ1s7BlJxLg7m8DBSvO6eneyxneW3FE5dOP7V4GqCycVZS8hun8izH4IBiZ5p3NKrq5b0OzbE0DoJKiwMwDFt7XEeYCW6WBMuxYKNYuyHLs5QG1MxMM2OGIZRWV9Di0sNPLT0MUF47KWb04mLM1K4Ii9ks6ywv2xSTs5/bco9rZzf+ExzHUjZFz8w0TpLDMIwNxafmOm1o5/QdCeUVRcwypvfEfAIAaqeklWIRqtGwwycgwjVVSuO899xiEgCq7+yGlaKPZ3q7J1tcvhCcODXoB8kGc0sNBbbtM6IsyymJ6+NCGQdG3qw9152YkWVuZ7/tIyJwLA8EWZZlWegh5+L6P09v2LyTc7LA0hQkFjJp3jWsxvlPeSVvjPbJ++GQmE+nOUdrPqxfWs6bMWd58WeqPTfLiMcXAABgVk0LvtmQBELJ8xGuliQpZ1XGNtYavxDF5bxVRo6mrdc+mhJTAhN/QYRcy0GcJMuyLG7JuahbTduuMKtmRN8wG4ehspbXvdhQHBbtIqHtdbxn2ZgXa+MEZd/HgCH0HCcACGF7PWO2E7dlz3YCVhRqT0351UMWOI6/fdWWr9MMXbWoAQKq7WXszvlANpvtvMa///u/f+tb3zp58mSHdegb3j4v/9GjmvZkPpd95NwzLxUP3nL3HYdLK49ktRdfv3gxKFeuHhM4GqCysfz53NMvun5w6YZb7ubfeeFJ6519B65eDcuvrT7tCQ996tYhVLIXvvSlL913332/8Ru/0X6VQwfW/kT6s/zT2pO53COfP/+/Xrt05K57uXD9wiN549XXfb9cCQ/dxt9MAZTWzn3+yRcc7+I7Bz50O/fOC/rL7x7YF+4LS+srz1+576H//pHr4aaP/49PlJ/MLpeuHgjffmXVvv4PT82Nqep98P3vf//NN99cXFxsvwrz8fvvuvR05pm3bzgUltZXX2b+8FNscfnzjz9rv37xrUv7Dt9y9O2VLzxuvHzRD8oHjtz+odJXH3nccF73g8qR2+7lZuKapbx+4ZH88y97bwWVfUduO1x85vNPPu94b71TOfihO/mbB5Q5/u7v/u4Tn/jEb/7mb7Zdg77j/k9c1rJfrdxwqPLGSyv2qxedF52L5YPHPnHH9Iel/3HLRi77tUsHDl4urq2+fvMf/c/Zd19afvb1dw/u23f10g/XjReuT/3ZPWxMYQ8dLnz2vj/JadqT+dwjj5z76kulw3f93q0HXlv+fO7ZF13fv3T58sFjd7DXA5TXLzTb6s7K1z6fe/ZFb0sz1qNwiv/k7x0wsuffuHzwavm11RfxvX9yD/PuxldjQnFHfPOb37z++us/+tGPtl9leyT8Eaw9knvaft17652rh47dFn7t848++6J3MQjCw7d9/OP8IdfQX73hliOXX1tzaJF/9VnDv56/9/94e/n/efIF17voX7p09fCdtzL7ISysxG3nnSA8fNuxS6tfePxZ+3X/rUtXD98ifOyOwz98XnvxwLGjYXH95f3CxwPjWXf/rcJHw/Vcu5i8g/2vRw8Xn9ZePXz47devCIu33tRzs7z33ntf+MIXPve5z3VZr+tNt+5PMiBLkdJ2i6LRt9ICl+7lLmnVlIQDz/OD8dqwuj7J4OUlWWvx+iFXlzmpl8cPqpVEvufFeNdw4I+76n3Q/UmGBjjoqJnr4dujbZbuTzLUqdcMB76/VfCFWmtdDW7ke15756Cvy1LObW4Ee6bCtTxusFs2N2THUOyL7k8ybCpCz3vDqFneAZoRUdBw+vW8VRT0H4I9PskwiEEGz3RoSWheHiWmFxSRCoIeBuUSiQQAJKZmZobwTPJAKTsWEsSWx92Ts3KKC7wenuqrVjI5PTMzndxWycTU9KRXfWckpqZjqtvPtye1Weo1S0xNT09tqWKytdbV4E5Oz8y0fWssdC2PE2dbbjzNSCkB+wMbcNrckB1DcVj0FQmJZLO8iV7vCXQnOTVdPwY9bzU5NbQQHETancvkaE29sF6sAACE5Y3lM7lAzUoT2mt2xlQqm3KzZ1cK5RAAwkpx7Xza5HLpSX7kjTDxJKRsBuXOLG+UQgCASmn9QlqnMplhTQZAmAgG8iTD9OJT/yCVNmx7xUFAMayYe+7ENZVzAQASc6efe65SXLfNZYQpmuVSX3luzz9mSxg3iZkTX/kHubjhmCs2Bprh5Pxz8Q/4Eq4dBjYnQ6YHVGMAACAASURBVGJ6bmF6SM+iTA7JmfnFGXImQhgsyZm5hZlrvvMQGhBhO4FAIIyU7i41y7L+/M///Kc//eloCjQufv7zn//Kr/zKAAfxr0l+/vOfA8DBgwfHXZDB8/Of/3zfvn1Um1edCFu4hiNhN0RR9Lu/+7t///d/33m17oMM11133cGDB//5n/95QAWbUH7/93//scce++3f/u1xF2SiWVlZ+d73vvf444+PuyCDJ5VKffrTn/7Yxz427oLsDR599NHDhw+fOnVq3AWZLK5cuXLs2LEBpF0ASCQSN9988yBKNbl88IMf/PVf//Vrvpq75NChQ9ddd9012UoURd10003XZNWGwQ033JBMJklzbeHKlSu9rDaIW2rljRXLDRAtqkuzW6/Ra8soQTkxt6cn8u6kYRySovEaND9eMwxHYRmW1gzrWjzilY0LOpJPb5+DsMb7TW05iFtqNMsxrp7RnJhXB2iWYzw9o7njeIt+kCQYjoM2GsbqslzOiFm2y122Nz8SxslwFJYJmuPAzmWNXUw/Plz34o4oLafknIM6pACa5Wgnn9XdHopeqVS6r9SV8TbTINJuYmp2QWLbLxO5a+E2Rc2+134ZM5Rd8oPfLGH31BSWgw7s5PScKGyd8rA/PF13BlWcQRAWzqmmaLrPLXU4f09Oz7btXFsoGZo9gIRp6/pw1RodIQ+QEQjXECXbGmM6iSHAov4PDw9shLFsW4O4ct6wrHFO+DdYc3BYKbqOD6zAz7R/Cbu9pa6To7BSXLddH9O8uDBuy2VYKjgeojl+drptMIWlDcvxMc0KTUVfpZ13r3XLvZofq+uXC47jBcAIW9cfM2GpYLsepjmhUeBwk9YzLBc8H9X+ajZMU3UKI5ct9shQFJYAlVLB9TETt9UtQs9+3Yu9l2EYVDAOnJXV1t5er5OHKK7FrbmFcmHN8dCmNAGVwrKatVDaK5XoVrdkfyklLK1l0rrHicUSTQHNjHB6ijoDPNv1zbxmY1bgKS+buv/ceuwITLylroujsLRy8q6UCYJ8QmbdzP3nNsY3KoNd/Zzh07zAIlM9fnKlGFeUytpZ1aTEpSWZ8zLi/cu1leK8e01/X3/mR4CwuPyAnPFYaUnmg4x0Mt5dMAYq62fvVy3MS0sShwzlgfPVEld9prJaHQ0NPNfIpOSMhRqLNqtORytb7JGhKCyhsnH+5AM5l+J4Flv5nNViK4oRevbpXuyxDEMhrk0Aymtn7pbzASefkIUgmzqztj1RhBvnTupIWKx+8Xitw1eKjocoAOS5juM4Xm2urX5TStl1EADGgec6juP6Y7nr1HWOsh4UllEUmTJV1/lFURT5eYFpTIpopmoyx06WuvaOQj8vNPWAtsoMXF4YRVEvCsso8nJcQ2IZRRG2FKZhZWx6OaPIVmjga3P3VR199fnjtnn36v6+vs2PXo6nmz5FL8c3nH3DpPvEj8jYbOP0cwJbrxc2JIpvHDyki01f41bV6QBliz0yPoWlxLRGtJNmaaUaFG2Fnr27F3srww7oPvFjbJtEgSHTrZ2Gqhc90EVKNnC9FlD/3M8LDQNl7S+jdTrGnaSUyFJaGnaQjFJhWYVuuRUwLQhURjNLJ05tHkdvb6mDdo7CoqG7jKTVVpp/ykc9O2KGAU01HYaCyPtpzXlibsssDfOaF+CpqbBcdD0vAIwCXNXwbffu1fx9fZsfC7ruMSIdFIsBAACmGeQ6JZgb92NHZUOzKD7THAaaFjiU0yxtYTEBXcwsm1SnI5Qt9shwFJYlI2/TUq553JrvyXUUevboXmTFXjSawyC+TSpIsyjRmqsWY+ZhB6VjevNs1gky1FRYKbqu5wMEQaxLCQB2lFLGz7BuqdEUhQNv+6h1R0tdrKMw8INNEswJen2XoilAgb/9Igm5efX+k3kb0RzP01tkI3H+vr7NjyjYJHukxLxjKuPOuQAQ+JsllNWkEPQ0f+wm1ekIZYu9MSSFpe8F7RyvHYWePboXe9NoDoP4NgmCACiqtTfH65Q9I506mTUDmhN4Bjq6jfpPKeNnsLfUmgQIUSzPbvm0i6UuFpZnwWr9BYMwDCdj7gQUIGB5bmvRC2fFlJN2/+XUNACUbQAACEvFYHqmbV7s2/fH8hzlUHSLNHEyXI8sxzZd2QAAIUKYYtmYx+A62rFHKVvsjSEpLFmeBTtALeHdYHdCz6p7ke1NozkE4tsEsxygIAih+WLV9kAvnpckXXa+//AMAIRu9cNysUi3bAvKKxcc+dQi2kFKaWVjeZk+cWLU72gM8Gw38Bs+iXDDtCklm6pda+K6cK6DpW4LzR45ncrI2NQaesBwXdPcwZW6X/yg6Ve0TE/IpLcmg5Jj+4wgVLtR6HkBAGDkOF7Y3t/Xt/lxWsnI2DQKzRbXBvI4425JpjIKbZuNm56hYzismqlOeZ9gaLrRBBXH9tuffIxSttgjw1FYTqcyMrKsxsl8xfOCWrPsROi51b3Yo0ZzCMS3SVJOK4ytNWO7cKEet41ahK7tUrxQS4W+71c/dFxU1bZjhAAAYaATO0spADRNVbcSIrxTJ/FuGIzCEqC49tqt9zGvrpfCq5XC/8o9i9P6E/f8GkBp7dzZJ1941fPfuXTD0U/cK9wUa6n7Py+tZts6Cj88+8lPHnkxm33l6qEDlTfWXgjuUH5/UN7CJj0oLOHSKy+BdMdbL71R2Xf57Zf+9nFHePLpUzNUq5fz6qHbF0TukqVblQ99aN8PX7HfvVW88rzuwEfu+G/Ua7m2/r6PzPRnfrxj5v/65PEPWY8+vn5534FKYe354I4/+e/TQw+g7grL/ex9nzy2/nj+tcqBy6WXnnn8+eszzz72sdqJx5GjB1548sUbbjlSeWPtxXevR6ZheZcP/9bUG/n/d5vqdGCyxR4Zl8KS4j75yYNG9sIPD9wQltZXX3jVe912Xi1d/dDtH//Ih2OEnvs2OkTFNvdiuTeNZv90V1juvzmmTa7fz973ydsKj2e/Vjl08PIb66veR1JLH76+uHIuq7/wuucH4aFj8/feceDlZ59/+/DRA+XXXrp4s0S/+LT9FsPL93A0dfRDl/QnX77hSMV9l5P5m/cfORovvuyYUm7+8C2H1h/Xy0cPvu7ddN/CACNrhArLVlpUcW3ZoaUOI7/7tndML08yNErSi5OvdaU+VHz9mh+H2ypb6UNh2VYAiALf81EURTjwg60KyAaDky32yJgUlpu2GuD6Ad0cMX0KPVubvq8y9EEfCksUG9Io8P2OJcKotQO1fh9vSzI7SiloCJbU0T/JAAAAyan2rxDUSSSnGyv1MUjb+rXxkpia7n73qnWlPkaie9p26/oT0ypbaBsJjQWJqen2L740ZIuTV7nGIYo5VJtq3VBY9lKHxlZjDmifQdFaiL7KMBziI6FrpkgkWztQaw/aHjg7Silj7Dnk5WACgUAYKSTtEggEwkghaZdAIBBGSk9juz/5yU/+6Z/+adhFGS8Ioe985zs//vGPx12QiaZQKLz55pvXZDC888473/3ud//zP/9z3AXZG/zwhz+8dOnSNRkJu+G999676aabuq7WXWH5ne9859SpUx/5yEcGVLAJ5eLFizfddBM9ssca9yZvvvlmGIbXZDBcvHiRpule+gwBAC5evLhv374Pf/jD4y7IZBFF0S9+8Yu1tbXOq/V0tnvTTTf94z/+4yBKNbnceeedf/3Xf33HHXeMuyATzZe//OVXXnnlmWeeGXdBBs+999579uzZe+65Z9wF2Rt85jOfmZqaeuihh8ZdkMniypUrvdiUydgugdA/lcLq8oXz5y+sT8p0mwAAYWlt+cL58+fXSt3XHT+l1fMrhQl4sXIckLRLuKYJB2Le2sZwXGrb2Dhz9OCRk2s9JqdBqNhGRGX9jKQa45nrdicMWL1G0i7hWqZiasYwzv2G5FLbCien1XSK7/VtmwGo2EZCeTWdQ1nHfnhuEma06oUBG+qGNQMZgTABhI7lgNB9vUklOX/6ifnuq+0xKgGTMb8yWrnQ7ijZlsefHtz2BpF2Y7RFwvxMsqr6av5Vp634qOqHSta3hxlhfiYJlXIZAwBgoJipZALCchkBAFD0VDIRv7mh0NaEViltOB5ieLFVc9bOpRYgBNzC3FTjL4pbmJ2CsFJCmAIADPT0VALCShnhxl+T60yLpY0DbYsTrCVqaH/dQaw4N42bbQLFdTegOH5uywucW5uithmKW5ilywXbDWhWmKvuslJcSacNX1aKJaAoenpqIOExYJdapUOVW+pWfxm2XSS0UbFVSuuOizDF8ByFqNlRWgjjjm/Nqocw8swVj62J1JpyOBYXHHeTpbC6DNH1XuLVNXLJ5m4c1wdOmJ/GhVXbpfiUSPvtQqL2ndK65QRAc0Kzz/ZrqNsdgxhkiNEWCccvrK8vGy7F8YyXFo4v1y/02ouPcoqoVI1ZyHetnCKpug8AFd8xMiLLiFnLwwAQ+pYq8HLGdFE7WdNwiDOhPbi2sXrBDhiBA03iz9SnO+zgUkvLctaqAEAYeI6eluSsEwJA4Np5hWf4lOYGIQAgNyfzgqI5fjixzrR44h1oMU6wetTk9Qum72kSr66FyHfNTEpS0ufOWz7NMshI3XX/hUJ9dDauKZDvGNmUnNFXLxgexfOMo/L3r5QBwpLrYooC5Luu4zhuMIAx3iG41DpVGfmOkUnJ2drMiG0ioa2Krbx6JmOz4uLi4gLr5ZTcaKdLjTu+AGHh/P1yHvGLSzLnqNKZ9Uq1J2RkWUmf02zEsLSfl++qWQpr4rhUtezYd21NlVL5ek2Kyw9IGZfhecpUbj+uY5HDpu23DYlqq6w8mLYZaWlJZGxVPLlazUx9Gup2TdfJcnqbgWybtoiW9Jq3COkSVbdrdRAfWQrdMEJFkZmiWy1SqaYtKgr0nBFEUTtZ0w7pZQaybSY0ikvbtT06abZhM+vsUmuKobwcT8mNIns5nm54r7Cdzzs4GpczrR1dZyCLdaC1dYLZKkMLeS+KkGfbHq5uQGzxrUXIkGmm1uTtmgIbMsXIRouVrd7E2JB6Nu+Ny6XWscpRoDUMY/HVb69iw2aKb1j4Ii+ft3pohZ7paQayrccX22rTGBhFtsrWuomX4Vr6ReTnhaZBsMU4GEWRo7KMWpXFtR4AbMhUix2tfUggQ6Iaf9hKS17pw1DXnh5nIBvcLbUt2iKG52vzB1EUBRhVf4KnT1uBpy8kKqXCul0XH9VW2zTd8KbbAgkpLYNRm+m8ZCFemoK6rInBxSqoKmsaWH1i2GZCA1YQmkIrhGu/hPOaF9gPz4Tl4sZ6w6XW2EI7ZhSVd2o3gELbpaW5RM2ZxtBBrZJ1Z9rEMiWKOCvccvzkmfPL60Xu9Om5uhOMhVod/JoTrArF8zMAyZn5+eYFON28VZWUFREZmlXp0hSMwNcuoCmqi7hip2xoeZeTOrjUtoYiKwq+yt9+/OTZ8yvrgXj6VIdZxOKrDC0dIb76JSNv06IYp2JL8BKji9zdD5w5t7xWYE6fXhhIM/TJpuPr6KbPMrRfqwNFM57jhgAANABNN5p2OqUIvq7F3sRq9iCMEW7UlqK2HvX4kEgumb5vnEiGpcLGmocABa2nrz0a6nbNIJ9k6OUOamfxUTsSc+kUY2pmBaBgYb4a+vGyph2Uuy+2/DrE16CjS60tU6m06GlaAaBieYw0AzC5zrS2xDjQOjrBur0XmKAZGvsB6tYUnX7QBsKQXGoxNKvcSnz1O6jYYPqE6ZoZHjwzm+LZu86N5SHZ1uMbBgi1NiGt6K4mx42U0gwdbylsJSlnFLCtYghQsUxPzKibRS/xIRH6dk65/0HNxQzPc1tarkdD3a4Z7ZMMPbvUQrTlh2ZGVTleM4oMgFCzn8bLmiaAnl1q9WuAOkkpnVIVbV0RA1aq/lJPqjOtHXEOtPxunGCVwEc0xzIAsKumWLuwzJ86sYtbSkNyqcXQUuVN+4irfgcVW7i+YnFLp55YOAUQFs9LUs5KP7c4zhuyCY5jKZuiZ2ZavYhxawZ+AKywzVII1T5DNf7PZ/Kcayw7QKetr/dywzBcU6U0znvPLSYBoFD9rFL08cxMT7FRNdTt+uGS4Ty32+70rpP4iGaap4Wh62wd/59OpUU3pxiUVD+hjZc1DbIaW4m55oipaSeXGkUzFK5/qey6weYtJOZVhTLSaZ+TahE3qc60dsQ50Hp2gtVpUU6X9LzDVV1snZsiNuQSNF27Uqwg2O1DtsNxqdWIrzJ0ted1ULHhwMibtUGYxIwsczQ97odgZtWM6BtmY5CsspbXG8OCQcNSGBbyWtNSSDM0AK5Vu+i4qNEmKLBtnxFlWU5J3PasGRcSnu0ErChUe1fFrx7BwHH87at2MNTtmkG41MrrFx5ppy06+Nr57JMvuBc7u9SkW5n9zLEb1p9+Pjx6NCyuW8H+K/bz1uuXDh27i69506hjh4pPuh/P/d983XwUL2vaYUN0c6mFhZVHYkxo7wTh4duOXVr9wuPP2q/7b126eviWBfHWWJeaNPeR66kPHSkb2qtHbjv89sbaq/iK/4Lp+PsO3/7x+tUOc+zqqr5f/eLv31zbL8WNw5nWjq4utXgH2k0xTrBw/cIjeePV132/XAkP3VY/zJdfW867V24OL1/eF/7wa4989uV7n3z2L+eSAG2aorx67rNPvuB6b71VueHYnQc2zn9We+F1zw8u3XDLJ269iT128PnHn9/3oX1OcLP8sY4WsXG51DpUuWkYO3j0zjb2vA4qNmw/ab2z78DVq2H5tdWnPeGhT906uImeurrUynHHl+Y/+XsHjOz5Ny4fvFp+bfVFfO+f3MPsB7j0yt9qrwNzOazsu/TGVz+beyv1rH5qptpY9NHDRd146+ixg6X11ddh/+vGC6+WDxy9U2D/6w1vn5f/6FFNezKfyz5y7pmXigdvufuOmzuFxD0C88PntRcPHDsaFtdf3i98PDCedfffKnw0XM/1bqhr3yxjcqn1QgfxEQ58r62nKsJtrFrxsqb+6Mel1hPtXWoY+V5VBoWCbdqsKEKxVRmtM60d3V1qHR1oPTjBAk2kRD3YFCRbt9JfU7Q6uTowPpdaD1XetPvY6seo2KqHAgeeN3hnWD8utRi2BoKX46iU2cEkiAPfa61fFEXIUqS03WwI7FtpgUv39JxPi/Kxd/VaOzlgK2NyqfVCB/FRYmq6NnQVZ49KJOOvknoRuI2c9i61ptkqtuDJ2FpOrDNtCx0daH04wTrUt8+maHVyDYThuNR6rlf8ajEqtuqhSEzN9DCePGLaBULbAGkmhkb9PNOhZa2ltacXFJHKBSFA18GUlsPUu3ptgFmGzMlAmBzKhTXT8rFvmWuFyX4rZGC8D6u8hbC0sWraAXatlfViH++0zGVytKZeqH0nLG8sn8kFalYa9wB2L5A5GQiTA0UxQtZ0AWDXN8D2Cu/DKm+FolkpZ0sAvT2D2mB68al/kEobtr3iIKAYVsw9d2Iv5FwgaZcwSSRnZof+4PWE8T6s8hYSUzM7nysiMT23MD3Xfb0JgwwyEAgEwkjpyaX2p3/6p0ePHh1NgcbFj370oxtvvDGZ3Au3rcbHW2+99ctf/vKaDIYf/ehH/+W//Jdf+7VfG3dB9gY/+tGPAOCajITdUE2nX//61zuv1tMgwwc+8IFPf/rTAyjUBHP69OmlpaVjx46NuyATzTe+8Y1//dd/vSaD4S/+4i9kWeZj5nMkxPD000/feOONf/AHfzDugkwWV69e/dSnPtV1tZ7S7o033nj8+PFdF2mi+dznPvfRj36UKCw78+Mf//hnP/vZNRkMf/VXf/U7v/M7RGHZI9/61rempqauyUjYDVeuXPnJT37SdTVyS41A2GNUCqum4yPgU6fmRzhxOWFgTNQttcpwdIMTxYBdeHuK/oSMhHZQDMf6RiZvDdefSRgak5R2S8ZEz/IyGAbswttT9ClkJLQhMTUzL/GDm1+BMGomKO2WbcvdMwLnnVKyrcm3aQ+L5PzpJx5eIJfFhPc7g1FYVqWSGFPMdDJR9zE2/IulDdv1EdSNdbFuu0phWc1aKO2VSvSANHGDpSaVBMBATU8loaHWpKamkrBNX9i0D3JQcDzMCXNT0M6Ft7cMlR3p4OKk0RYhY1jasN0AUzTH0RhmZ2tv44elgu16mOaEmkMwzpHKz/c2P+oA6WAg7SBArLdLl0PcQfhYLjqOiyiW2+xhrBdqw/Ewywszm3vM1k5HmCgGcLYb+q6ZlTlGSJsuAgAI7KzEiWnDDeKMdXFuu/9ddDxEASDPdRzH8YLJG2tAnq2rAsPKOScIAaDiGQrPp3KWX4nTF1Y1nHImv6LbvpMVhUwh3oW3xwyV3ejg4twsZAzXz6ZNSlxcXFzgkaZm7QoAQGX97P2qhXlpSeKQoTxwfiOEWEeqePf5YfpK4+hgIG0vQATo7RC3ET4Wl0+mch4jLi0KtJu5/8HVVp8TcrTzVsAIPOPrqeNn1prT1W7vdITJouscZb1N/OikWaZhakRmTvOiqL2xLs5d6OcFSjIGPkFdr/Qy8WOgizTfEDR6Wt5CUXuTJjZlipaNIIqQa9k+jqIYF95kGSq70n3ix6idizOKNgkZbZVPmfV6B3reQFGEjIbcMoqiKPJzAlsPn22O1F7VlL3Sy8SPnQykbQWIPR/ibZ3CzWxaF1sptlFrW2VaulbNZNm50w2U3U38eM0yYoXlnKoyVt4oAwCULZ+VZwA6GOsg3l044UzJacnXtQ0AANiwQRCTHUyaCahr9JKzC20GD/aaobInYl2cVVp0YxJnp7i77n/w3IXVDUidXkpC2dAsim/RBEwLHDI1qxYxWxypTS/o6OgibIsVIPZ1iDd1ig1N9ziBayxMcCLjalrjLJ+imrqIKVFiXE0vdOl0hMlgYLfUmn2tZNVMYJ2Ndd3chZNIUlJT2NDWQgjXXRDnEtDFpNmtknvOUNkTcS7OrSQXn3PtnEj7Zl4RWf7MegUCf7Pqspq8NsmlNzFx919jBYh9HeJNwkc/QLCpPSiKgiDw4/dN0Tjwgz40kYTxMbjXJaZSqpjJagWRxbySBOjHWLeZ8soFRz41VtleOxLzaooWNTOLA1o6DQBdTJrtz46qLry9ZqjskRgX51YKKyvU0onH5k4AhKWVlJgzMwbHUgi1CHNDhDDFbnU5TgxbDaTx7PgQJ1iWARchgHoLogABy7GxayOEKFZiIYF31ukIo2SAD5AlZVVGupIDYb6WMTsa67ZC0zRghAAAYRi7bK8ts6rK2VnFYaVaWLc1aYaw/YRsqwtvrxkqe2W7i7NKsz0CK68XaitPSzJPU3QylVFo29xoNIZjOGzD5Qjx2xkpXQykrXRRT/ayt7l0RvDNpvmzZFtIyiiN9N1qNC9aZm1ZX52OMB4GobCss/8jR99+xro185dC3fEWa6y7FO8upI5+6JL+5Ms3HKm473Iyf/OIX1vuprBsQN9yw/qTb6Xy//MjtRLGmjQvrVU1ehf9S5euHr7zVqa6Mr3VhTdZhsqudFVYNtjm4twiZLzy8t+aF/cduHr16qU31p5+mVX/bI5JsPd98tj64/nXKgcul1565vHnr888+9jHkh0dqfXw2TXdFZYA7Qykt1VWP99WgBivntyy5Xjh4x33331Zf/Srb+/bd6nwtb968vV7n3z6xIerkVR66RVauvXiK2+EVy8Xv/ZX2sU/1LSl6f3QXhM5WLoqLN+fjEdhiVGsq68HdWFjxTF5GvtRWMZLJns2aca58CbDUNmVnp5kqNOmmarU/Yp+nF+xJ1vggOlZYdnFQNrpezs8xBht17k2lrXtMT13uh1BnmSIZTwKy0T8fLU9qwsTU9N74CWmeMlkz467uPX2iqGyH9o0U5W6X3E67obbRDpJ63QxkHb63g5rlUi27xXte0wfvlDCiJmgl4MJBALh/QBJuwQCgTBSSNolEAiEkdLT2C7G2Pf9IZdkzPziF7/48Y9/fM1Xc5e8884777777jXZShjjcrl8TVZtGPzsZz/74Ac/SJprC1evXo262SmhF4XlN77xjYceeug//uM/BlSwCeXy5csf+MAHqC6vf77fuXz5MgBcd9114y7I4Ll8+fK+fft+9Vd/ddwF2Rtcw5GwG6Iouuuuu5577rnOq3U/2z148CBN0z/4wQ8GVLAJ5c4773zqqaeIS60zX/7yl1955ZVnnnlm3AUZPPfee+/Zs2eJS61HPvOZz0xNTT300EPjLshkceXKlYMHD3ZNu2Rsl0AgEEYKSbsEAoEwUgaVdtcffB/YCcvLdx86eNf5vT4xI4FAGCuDekuNS6VVlrvG7YS0oKppLE7qjFgEAmFPMKi0OzV/+on5AW1rYknMLD322LgLQSAQ9jiDSbt1ux+7MFd/DbxcWHM81FA6AmzS9E0nICwXPB/V/6o5AGl+fhZKG46HaK4h8avtY7MjcvRUi1/1FNZrVFq3nABoThAbwsJqTRDNLcxOQVgpeXW3YbIHFSMxD04uu1JYbtlOf6EeVkoBat0ERU9PTe6kFYSuDGRsNww818ym5EzVQwjhxrmTOhIWq0rH4+dqM6gi3zWyKVk1AwCAwHONTErOWKixTJZz+uoFy2d4njJT/Mm1+nSiMY7I0YN819bSkpKvzV5aXnkwbTPS0pLI2Kp4smYXrNkMUzkXAAD7rq2pUipf/aujipGYByebHSssY7bTX6g7GVnJ214QIBS4OYkTsy6Jjb1N1znKepz4ERsSJdbsfm6Gg7rAb7P1DxsSxTfcg0gXKVGrKwv9vECxilVb1c1wdMqqLmjjiBwovU386Ga4ulQQGRLVqJmtNIyFm8seRZGjsoza0Fa2UzGOyDy4S/qa+HFvMTSFZZvt9B7q2Mrl3Nou80LLTsYJmfgxlvFM/FhlNusEGWoqrBRd1/MBggAB1C6K2r8FRlEArMjX16MpjHEIkKg6IlVcLFbPC2uOyMXZtlsaMPGUHAAAFlNJREFUCckl0xfxVDIsFVzPQ4AwarMmtdlBEK9idHTTZxXar1Wybh7cM3rP9wU7UVi2204foa5IMgsA4cbZVBayzmNzJCj2OMNxOGDPSOdcRlYUSeAZsHuWsFAxaTnOEcnEahFHS+jbuYyBRUWRBZ6jwe/5mzEqxjjzIM2S7rWniFVYdlh522fxoZ5IwgxAZU1N6UzeOT0DEIaQILGxhxlG2i2elyRddr7/8AwAhG71w3KxSM9sSZYdzgda6OiIHBvhmiqlcd57bjEJAFUrWFgp+nhmZsu00xjhDuf4NXaq+ySMj94Ulv3QPtTLK4piCZp7YhoA1nWdPnVqzFd7hF0whLfUQtd2KV6oRU5tjqLQdVwEkGBoGurJtuLYfst5cLsc3NYROVY82wlYUaheJ1Z8H2HAEDiODwA0QwPgWnmLjou6iw6JeXAvsBOFZezCPkO9dCGlerKhLU4BABQcF8iz43uagSksr77x1dyrtz6k8NT+Dx098PKzz799+OiB8msvXbxZol982n6L4eV7OBqOHD3wwpMv3nDLkcobay++ez0yDcu7fPj237n6Ujb3tP2699Y7Vw8duy382ucfffZF72IQhIdv+/jMb8U4Iq8fWBNU6U1hWX7pbw0sp++7GZhjh3/4vPbigWNHw+L6y/uFjwfGs+7+WwWJZyn66OGibrx19NjB0vrq67D/deOFV8sHjt55tPTV9irG35obhXlwl/SusNxzDE1hyW4O1bCw8kh/oX7p/PH79OulFIeLGxtrzzzykIb/8LMpbryxQRSWsYxaYdn6JEP1A9QUOuLNnj8U+J6Poqp/r62cbzu9OiJ3Qt9PMjSKVDcIbqlkw85YVRf2XOzhmgd3yfv8SYYoinausOyLYYb6QCBPMsQyqicZiitnNFCfWKIRphimZQwzkWwa9BKbbwA01H99GivHZjasrJ/Punzm9DxCmGbp+CJtqWTTztifupCYByecnSos+2KiJZ6E3bLbsd0wsE3T9stFw4JMRrxGb68izzRMD5XXDE/IKhPwFAWBQNi77PZsNzH/lGOu2bYn5K3NbzheS0yfshzOchxIm8+N581kAoFwzTCAcfmp2YWla/5hlsT0/CK59icQCAOgp7T705/+NJPJDLso4wVj/Dd/8zdHjhwZd0Emmh/84Advv/32NRkM5XL5S1/60je/+c1xF2Rv8O1vf/u666575513xl2QyeK999679dZbu67WXWEJAOfOnRtEkQgEAuHa5+GHH+68Qk9pl0AgEAiDgrjUCAQCYaSQtEsgEAgjhaRdAoFAGCkk7RIIBMJIIWmXQCAQRgpJuwQCgTBSSNolEAiEkULSLoFAIIwUknYJBAJhpJC0SyAQCCOFpF0CgUAYKSTtEggEwkghaZdAIBBGCkm7BAKBMFJI2iUQCISRQtIugUAgjBSSdgkEAmGkkLRLIBAII4WkXQKBQBgpJO0SCATCSCFpl0AgEEYKSbsEAoEwUkjaJRAIhJFC0i6BQCCMFJJ2CQQCYaSQtEsgEAgjhaRdAoFAGCkk7RIIBMJIIWmXQCAQRgpJuwQCgTBSSNolEAiEkULSLoFAIIwUknYJBAJhpOwfdwFaCcsF18dtFzPc3HQy5vNKYdV0fAR86tT8VB/LhkOluO60VoLmxLnpxEh23Y2wtGZYHsKcfHphetyFGR/ljRXLDRAlKCfm4uKpX2oxRvGpEyOKsT1LafW8w6pLs5PRH8bHRJ3tulk5lTXdACGMkZOVBSFtBBhjFHi2pkqqVYn9GsVwrG9k8lYQvwyZ2dhlnagUls+eOXP27JmTx++6++RyIX7P8aVhWdrXFEnKWMCwLENvibHi+bsOHjq+XO64lbBSCfsrcQ8kaI4DO5c1vIFvunfCyua23Dhz9OCRk2uDr21baJZnPD2jOWgw26vFX84a0Pb2Ou1it7J+RlKNDudVO9jV2skjB4+e2RjgJkdDNDlgM522cf0vL8cBnbIaS/28qvltv2urDJdx45c5Ktt2WTzIzGRsVC9IXqBoSQ/62YCX44BKmbHLsKtnMobXeQNuPm/3s8Oe8XI8o1jd1xsWyMhtPozIzqdzVl+tOwCsFC3k24dT39gKw2W6HNP3C1Y+H9PbAlORFMPH25fsBt/KpfONrrpnmKSzXYRYgW97+THNc3hEpxMVS9fNvFmq/jWTUgVkaUZpQFtPzJ547LGlmY7rlGxrnGekwyN0LGfzJ8n50088vEAuzq8ZNqy4S8tKwGTMrywNerhteuHhJ07PD2KoaKRM0tguxYtChwbkRREBhKV1ywmA5gRxdmrbMayUNhwPs7wws31Zy1rFddsNgOHF+Zm4HSY5gaOa2YGmKAoCXL84CsMwkdhx9ITloucHAbD1Ed9Kcd3xEKZYngNMz84kw/JGXsk6dL5YYimgmOl6VcJywXG8ABhBmq+Fb1jasN0AUzTH0RhmZ9uO2FZKBdfHDM/HLNlwHB/RnLQwG9v6lVLB8xFm+HkWFxwX0Rw/u2WMPSwXHcdFFMsJc7UWbfkW2nB8mp+fSVaKK+m04ctKsQQURU9PJevNQXELs1PNHW44ro9pXqgfxpa16HLBdgOabewIACqldcdFmGJ4jkLU7GzbHB6Wi64XUJzAbV+yrW23ftPzgwAzwjyLNhwP07wQE39QLq67PrD8/MxUazPQ/DyHC44H3HytdPExGJYLtutjTHM8gzE7O5NotMjujlHM7pqNykHB8TAnzLXrNJXShuN4iOJEqblOXE8MS2uZtO5xYrFEU0Az08n6AoSRZ654bOsWoFLacD1E8+Is7a+bTsBIS/NTjT1ujoG4lmx+1miWsLRhuz6CzTuaOMZ9ut2WrYMMURRFgaGquoejCLl5WVDM5lWirTKMqOYNx0eBZ+VkKd28bt00yOCbqpTSXBxFgaWKst79whDbKgNs2qleHjlpFuiU2eWypv0gA3LNnMxSghZEURT5upo2gyiKIuwbKSHtRFHgmkZOYmgxbRiGYTjVamBPT1Wv0bBvpETFDKII2xk17+IoiiLkZARZjy8UcvJKKmN6AQpcI6eIDN0YZEB2RpJzDooi5GQkMefGXAJiz9JUgaYFJZc3bM9zzbQoKIaHG8t1RU6bHooi5BmqrJp+/Vs8zal5TTN1haUkvezbhq7yFJvKG4ZhWB6Koihw9IzIULJR21xgqrJquCiKsG9lZEX3cG0tiaGknKnpthcEbl5kZSOofSOt6tVr18BS+VSbARTsm+mUojk+Cjxby8gc1RhkiGvbmMOmKRzFiGpOMx3Pc3RFENPNALQVhlM1XbfcIPB0mRPz1cDybT0tMkwqp2ummeZrO/U0JW0GuHoAxHT9Itn9/9s5/9AoknyBf8MzTAUi6QXFFlbSsitp33lny+2SWc7DXs7DERRbbo/M8g4y8vbhLG8fGcHDWXC5EVxuBJedgGIHPOiAiz2QhQ4k0AMu9IByHVBeByL0gPJqeAo1YKAGLrxq2DDvj+n5mZ4kuytJ3OsPCEmmpr7f+n6/9e3qb1WZS2TrPzM3F5Oz7mvyUbA4YutZRUCxtK7qRlZGQiqwEEfMlCynDMxqjBhJJWXSWq3XTCS2rqeiiI9ldV3XDacuiDk5fz4yN6c05FMrLStZCxPXSMpSQsfESKVN2jMGgiyJLTUZ5fiEX48LFrQTeaPSLtVjCMX87GIleCFlNz6ykjyfMJsRSbQYH/Ujvz3tYlVuq+kRVebjxgbVJqzKvJhsepA6WjZnbVSKXK+2W6sZCldPu0SNRbPNxG/ncv54nLTYjCW/P4lTdNr6TUjaNSsptfI/0XJ6UJTVLdF6PtkpoZF2qRFvK4gzQ+HlHhVsNy027V6r1XAuikT/OeSkJSHZdEONmXGhIc5Ni5yYtms1hi2zPgWZHkPdNVWiyo20i7scYqdEMV3PM0xXEN9ItTWiyr5CzIhLjUdirebmcoFpl9kpUUi0Ng6oJjf1CLRtEFaS5+OtGHPSImrGmJXgW78wQ0EdUYaEhMlqNWKbNqnbDzi/J6Y327rZaGsLgZk5Fb8eH/UQ5yvKKTqp1ahjWkF1V6IrXMPVNTcrofqcW2cmmonOXRZmJYW2qWklBSnr1vuK+VZ30iKnNCJ5nRhYa0l/r8JaR9COZCfVdjdkaMzAWB8f8sqLCwWXAiXtxV6EWmcG9skx3lG1xa4OKqZmI4FnpTqU48Gx1y2iliaTmqhad5rlo6Gj41cmftw5Ia9S8Xd4UVNNmWWih09fuDQ5XSyJExOjwd9c1DSX5zni6804njp2WYqJVlz84PynN6ZmFyA+MRbw/lnWcxYny63iA0IN4VVTM6gggN8pRjznWj2MwQFwXLP74XgiijXVBoAFVXPb39kjosw7qlryv8XEqAQQGT7R4+W4wxpQ0lWbby/vS1HRlwMAAHxU2tcYBQBjDAAiUozXZPHDjy/dmC4s8hMTpwIkeFZOw5ISbfaMENf4Mdi2vVTlWjF2NKEI7THGS1G/YB9BCFHSvmNf37TYN3pqdB8ADE+YxNVORarlxaKFGSKYAAAIchQnpWOnL3w+mS8SeeLi8OvxUQ9xABBpGnXo6Kmg4krVVE0kK6P1T0au2NT9ehQ2mokd2JqBBZ7D/hAQx7u24wGjDJDvesQh1ti32SgGOi25CUE7kjcq7YKHrWzi/Keqw3hJErl1WiLEsVZ4NSCYslbeAZAylpk+2rOTyuylDEubd869ng0f2zBw159GrtiOlhSYo6Vjknh6qhT8TUpIu95IztlGYnjo3H3HysocNnIJWZAuFQNOuWGXAMcHWorSjk5BSBl2NrqpkXA8B5TgKniYUGjvBBBCQIg/TsRx3cfn1oO4mLX3BRGEgGLSHFfHhz7D44ZjpCVwjUxcEj64sRgw0ygmDHEoUJVg225GXU7gO2KsS7n2tNvlgio2M/GPL+kuCJLEN74XGf3atnNxgdpqKiaKH89WXouPeolrtOPWmUeEkPZHFDQ3NTY9Ez1CKSCuKZRLaI6qROBoMiW7hlkF8EqmCYmUUn9ibBQDPYK5t6AdyU7aUtsIr5CMpVjOvX9uCADqqwyvWsJsZGRNXqSUIiEmdP1VkASkAhoZaZ0j8Ho9D6sLk1mS0K7Uj3Yv5PP82NhPumNQsjGX7PxTpZB35bGJO+cmAKoLn8cSuYWLdzpWvKXpKTJ+UZBEZCOuTW/P82Axn0dj438dHQfwyvm4nDXSJ8a7LCFIAliEAqxVnRdEnhEkjLS2dLye1uiEYAJCVByCiCDw4FAK0JBLCQVBFBotA/KkT2FqWrrYqa4gCajjqkmVUuBFYb2Naq+YN8Wxi1+fugjglSZjsayZun+ua7ZxosAxSr36+q6TYNtuBuLigBjbmEo+IWd4w/36RAQA/FVetVT6X9dZPTd25c7YFYBK4YKc1kq29NN91Esc1Dvt7SEA4AURKCEetC44eB5EYFMzcWF6mhsfF0UBWYgbGRlu9eABAENKNgXG9DQgSbMnGkvtHxMDAAAQ6SVoJ7KDV7u0c8EA4Fo2ERqHHaoYUwYMiG1jv3390Q4AACXToLF0ovuU1pCSSfKW3jqbX5rOmUH3FrzSVEqFmEjtYrFYLBamVIfjAQCgUvj840/zPValHcp3Up5Oa6TxDsga/1wtZ/hKD40qUcF/WHO8nyWAAuIAhhNphRl6cyHnLaiq5REz13jFjQzHFIlDaxcCw/G0Qk2zqW/VdYlv1sipdEpy9Nb4K/mc3vtWCSGNht5iTnWj6dQoAIym0lFstPooW2bL8Gs8CBGOQ/XiQJVCY2XSbDMczyjMMptv+FXTaMjpatmCEb151C8yoihi0Po6ciKVEh2jed3Gcx3cFBpo2x5GaIsxr5DTWUCM9dCzDde0mCT7FY8KxgwYeK5tP7dVtehL3ifHozzHvQ4f9RJHALyNdB1SUgneUo2m/MUp1fLWnYkchxilAOBRBgjgaDItY91oObWQ01wAILbpQlRRFEWJtpU3NoyBnvQSBNXijQsXpoLegraNf8lkMtutQxflwtTUt999q+kPMX2FX1YqT58u7z0m7tnFH9r7fEZ90H/ooFcqPtwVPU70e86uI9GYJKDyd4+42JFnj556qyul+a/UZx+p6tjwLqgUp764qdtLmFQHDrwvDb8T++PhhWxmfrl/YKVUmF16+0//dnSwWwOv+F/Rj+5a5j3N594cnLn6n8f3AMDzb7+4brDYf5wRerwoVIpTX06qxgOXUFqtvFx8Mj//zd++/PPl3MPB2NXPTq4Ubly7NWe7z171HzgmvprTHv6jv8/r88rF/Mz3Zy7/4d1BAOAO7i3dVR/v3fty6fvouSN7AIlnTx8wr98srvT1VxcLM+S9T/4w/KJw23jW17+6urr8tHD3oZD8bJRfoxQSz54d0DNTz/t3e+Xi7Nxjd8myH5dXDxw7/u47x//428qtzHR5td97+WjWGvzo4mjgK9zyo9vqEvArXrVv+ek3V7Mv4ve0iyMIAIB77/yHK9r1b1729S0vzn91a+nkrbvj7+yqLkxfy9574GC8vLIycOg9wTfygUMDMzdn+g702eRt5TcCKuVvZLS5JReTgYPvv/eLX589vXvm+u2S1199+t3tm5Z4XZs4iqA8e+PqrTnHffGiuvvQ+/0Lk1fVuSUXk+Xdh38LD1XzVV//6qpXeTJ7141e/vcjAWPgj58/9vxmZn517+7lxfkZ231mPniIl3cf/lAa/kWAbYPWgOX5r4wXaNBb8VaXF25fVr+/rN9txFhu5qH7glT79v9yb+lv127N2O6LV9WBA78aeHQ9oz5YevaMVKqrh6IiBwD7D77l6Nrj3Yf3rzwp2JwsPb6n40Hp5K+IeX/pHwN9favLz4v63GD8s98JaM9P9lEvcf/6cvovt+Yc9xleXl7d+/6RtbEDALuEM2d/uXgzM199a2DlaXHWfTc+9s7gejPx7cNvFW9qlYMDS+6eM6feHQROOvv7fj0z+XRlYLXyZPYBO/nJ7/hd8FZ/4ZPYZ7m76q1s9otrk98+Wd7/wUmRg0ExMAa8Uv6LbktWF6avZe8+cDBZ3n34Q2nk14GCoFL8MqMR6U8fHVkz07eN7d7T++FQgom/68lY9+Yra324USeYvuYbMz+C+gAodt212lCCyZrhUdwaX/3LjGB3bcO1kgjGhDV66LRb47OeuFkRxY16wx5WYxSTTRqU0Y1szyjZtHcaVnA3Y4Vm8DCCSZe+HbYNwkryQtLefIytD6Mto/txXB8Jxa67tv+f6qMAcT8ISjDuVqr3TKQBynaMwM3FFNVtNaGOpogdV0F/SAysI2hn0ler1bY784fsdEo3DktO9v/un9tuRbaV4qf7E2D8z51NvPBuA2+UjyrTpxWS+/uVtgpNNX9edrL//df1r2/+TNjBtd2QHYFXXpg1LMIcM18sbf5/BPqZUS0XZw2HEkefXSjvpCohALyBPtoXz8SdzOf5xYoHAF61VJhMGWI29U+RcwEgXO2GrI9XKbmNM6ic0H0t+J8Fr7LoNrayeDHoWvB28ob6qFoqWg6mDHGCGD3R+073z48w7YaEhIRsKWGRISQkJGRLCdNuSEhIyJYSpt2QkJCQLSVMuyEhISFbSph2Q0JCQraUMO2GhISEbClh2g0JCQnZUsK0GxISErKl/D+nHFBQGpm9XAAAAABJRU5ErkJggg==;" parent="1" vertex="1">
          <mxGeometry x="622" y="428" width="466" height="192" as="geometry" />
        </mxCell>
        <mxCell id="Hf4ZEuIIgJbTYPRIJL2N-16" value="" style="shape=image;verticalLabelPosition=bottom;labelBackgroundColor=default;verticalAlign=top;aspect=fixed;imageAspect=0;image=data:image/png,iVBORw0KGgoAAAANSUhEUgAAAlEAAAERCAIAAADUrmV4AAAACXBIWXMAAA7rAAAO6wFxzYGVAAAgAElEQVR4nOy9fYgcV3rw+8yNhj4iEnOcWEwJJKbEWnQpkZnyvfKdErGZ8msnU2bXqEx2UZssUYtsUC93jdq7G9wmNoxhjVtcLW6BNikRmbeGV96tAYXUgMytAZnUgJdUg0WqQYZqr0yqY4mcBs9y2lh5TwVP6v7Rn9Nd1dMzHsmjVf3+mp465znPeZ7nnFMf52MsDENISEhISEh4CPg/vmkFEhISEhIS7hPJmJeQkJCQ8LCQjHkJCQkJCQ8LyZiXkJCQkPCwkIx5CQkJCQkPC8mYl5CQkJDwsJCMeQkJCQkJDwvJmJeQkJCQ8LCQjHkJCQkJCQ8LyZiXkJCQkPCwkIx5CQkJCQkPC7tGTPfXf/3XH3300T1VJSEhISEhYUR+8pOffP/7399srrFR9pi+ffv2sWPHLMvakmIJCQkJCQnbyb//+7+//PLLtVptsxlHfc4bHx8XRXGz0hMSEhISErad3//930+lUlvIOOqYtwGN6orjs+5vLMgzU1vRJyHhPlIvL1ouoVjOnZzelnBtVJZMx6cgZs7MTgIABLUl3cJq69e2EFSXDdujTFDPzk1t4tq9o1G+pFP17FxcHWsri5ZHKKe8eiJ935S6DwS1ZcO679beiJ2p1c5hm+awII7nsa9lFaVgAcfzHH4gBrzqheO7H3l+of5N67ExQaMRfNM6xDJgxh2tbS+YFzhXL2gO3SaBiBd4as4XTdL6h6cVcjk1v7yN9khxggDWfNH0464Vi0bEtXtFbSGjFh3K4lNgXsBOaV53R7DCNsVO0GhsMWdj9JwpLAhgF+cNb4tljcYmu6n7pNUDyzaNeamJqfSMLGFAgjw3nU5PTWyP3HsML+fyuay0fbfg9wxb13duBA+YcUdr20tqcnpO4bdT4ER6VhYx6vxjet72vJLChowIm2ZiakaW+SHXuG0sbAOCyrmcKZvur04OeaSYmJqOVbgfT9edr69Ww9SMTX/oAQCAmqHZIw+6E1MzssShjRN+LTbbTd0frR5YHu61CqnpU2+/ffIBeN1Stiyycapvin4z7mxt7zOpyTRDiH8wbgI3D2Gy/k+vzmxb9Wq2tQ23S4FjbXHgrNuWu533J9vBA9NNPRhs0/e80WjUyo7jUywoc9ORjaRRq3g+ZZw4y7OK41IsiNOtR8aeS7Ts+FicTTcvBPWK43gEOEmZnUp1U2JxdhpqZcej7Y+LjVrZ8SgnytOTqWbOqucTAnzPt8d+aV1hAqs4Hgiz0wO3Wy05SJibxvWK7RIsSDNTEwBBreJ4BPV/2wzqVcdxKeIFaSbdrR2hFIS5mcnOLyTMTU8CBLXlQl73BLlawwgwNzWRGionsu5xBLWy5fgM81I7XVCvUwAAxhA3NZGCoFGjDAEDPDWZgnpl2fEocKLctn+fGWO1HXAzxcLc9CQEjZrX8mx6olcYRyuOS4AXZ9OT6zW2XZ8CLyszk1E1i3dZUKvYrsewIEnT/VmDRtV1fOAlMd2ncaO6YrtkXZUjLdmoui4BfmCmV23JwfKZtmZxXu7GdxqqK44PnDio5GChtYrj9TaTyDT9Lh4lToJaxXZcgni51ayiaTBGnMWlPuM0amXH8SgS4nwEUYEEQb1cys47uFSt8QgQN9XKG+WBwUbHt1tBo7qYzxu+mq3WACE8NRlnmsGuo7KQm7do3qvVcE/5kRWvVVyfcRHz+iJ6uaBesV2fMSyIHGP8dLpfbk/YY7/s+MCLYrpVelQ3FReTMVo1aiuOSxniRAFRND3YhY3cZzY1ioioIY261YNAuw8JGnXKOr9GaNHbzH17zmusvPZ81gDp5EkFG5lnzlUi3h8ExHP0gqpm8+c0m3I89kvq8dOL1aB1Ka/mSvol3fX0rJhZaAAE1YWX1ILHKydVkRSU00t1AKC+a8yralFfumT5nCgiMyP+cLm8dMkmnCSApoivlAMAAEY8q5hV81brY06UNOq7xnwmU9QWdMc385J6YfCNCfUdYz6jFvSlS4aHRJFzstJLi+WlS6aPBRHbGfH0UvsTQVBdOJ0pepx88oSE3cKLP1yqQUvnvKrOW422GfKKOu8EAFB3HQrAGPFcx3Hc1kyhIXL66356Oe77RGP5tZyJ5JMnVcEryC8uVAOAwHfNeVXgpLzpUgAAYs8rgpw3XBKUz53WqXTi5EmJldTnzzWtuN6M0doOulnLK5miCwDAfNfWckqm5LaE2aWcmtfMBcMFQeT9gvzMhWo7Z+XCi2qJiidOqoKTU15ZiapZtMsaK6+9mLOYqJxUBGpkX7pQ7glA3yxpNuMlEXnzmRfPdcXWln74fM7GSrPKLy5UI8oDgPryay/lNB+LIkfM+dK6r4N1JmRakzuGeLllk1zJWLxkU0EUaEmWXisPe8nGXP2c4WNR4qmZe77ZTAaIcjFsFCeN8rln5HmPV06dkkHLnF6M/pIUbZz68ivPqCUiqKdUicxnXomIvphAqnuODwgBdV3HcRy/acXqpdPznqCcPCmDnnmm4/LBRpcTX1ysAwQ112UIAfVd13Ecl0RHf0Rjb1QdjyIA6rmO4zgeibF+o3zh9EtFFwkiz6xS0SLdII/s5SoXcjqV5k6cOCGBmc9HfYalvmsVs0o2Xzhn+ojnmZWTn2/FYX83FROTsVrVl14p2Lx84sSJOd4rZputbrD80frM2Iga0qiJa5eyIidmNJcEAEDdoipKWc3xg9Fa9HYTjsBnn3124MCBDZN5RQFQxoy6RM0MJxTc1i9mqpysk2ghBQEpOm3/9EsSEvIOa13CQsEJQ+bblkvD0CuKWDXaab2iyOecTi4+a7WuuAUBCXmbNX85eb6dLAxDU8WSRtr5I6URTUZ81mJhSBzLidaaGSriVKN1kWgy4jImbVdBxBmTtVQRewoPmZXhpZLf0blbca8oIrWVKQytbI/1RpCzru44Y0XqHIZ2FoNY9HoSdm3EdX5Qs6h5rSTA57sW7nFTjxkjtI1gvV5Ojudydo9aWG4WGYbMVFGraszO8Vy2rVZo5/i28v0MuIwa6yPOL0p8W5KpIj7fVdcvSZzSTOprMm6bNQyJJnOZjkt68EoS1w2ckJkZ3CtwHcO87BYELBYc1q4e1zZ2BF5RQEpPmVaWazeT0CuKXLZlzVgXx8cJs7NdMxNNRrhr896aRBqHGCruVQS160B0GalGuxXEBpJbEDq6t69DW2tmdGKh/XN9o2sLYobSmzDSftGN3S9JSDEiqtuB6ArXK9vJ8zjbtFx0L+cVJaUTeswqadF6MVNFPQ5ndpbDnXzd9hUTk/FaMTMjth0Shl6pFNMbjNpnxkfUsEbtFcVubZhdKjks3EyLjuCTTz45fPjwqKl7uOfPeUG9HkDD0k3K81Bt4iMOe3bMa3sMgHHneX0qk5V8XXNal5ggiQCpqdm56Qmo6LrHcZi0pDLMUdepAQAgBMDLYksKwgh4SWo9NSOEKOveiHe+9MZLAwBeElMAkzNzM/EfkjlJnGwXAcBLneIRYq1JbWVN9wRJ6GRJCTLnalq1nWlUNpKzru6MsZgb1lnNI/ar6aBeLa94BBht3xvO5HKcVTLqAAB1y+fVNADA9LxD3OJM0KiWV1wfgJAIM26NvuwIC2Lr80UKIdTSy9FNn+ew3/IQwpznxM8E7HVZ3dAsJApd301JAjU1q50Z93zwn5IkZGtmDaBu6Q7iOdYqj2IOXGcwastayRUUuROyKYzifbmBl5kgid04ZcNnvmDULVOSxU4z6SXWxbFxEliaSSRVbqoxeeafKfmfc4NvnKKN07A0C8nqTDN9+lWHeu/MDOQdFkj9TJ21iKfPpRq1yortM0T8dZ+K1ze6DQzWZWhjH0rNKNlYlrsTdrrOjunleFnyc+ITz59+7cLiCpHPnome7JMCAMzhzs/ZrIrszkScdhkxMTlEq5SocLosPPPSK+cWlivc2bNz0RUbtc+Mj6gBiT1/p7M50WnVJrBdrMykYLMteru452OeY5o+UEpYb0fA502nKI2UH3MYKPGbj7wI455FEJSsk4rkkmNmO25H62y+8YgyVFpPMMaD1he4vkQGAIFP6PoLCCEgxN9Y9jo2lINGHIOoW8q9eLpkUyyIIoZu8HZDtGYRXml1K8wz8pnT8ybBgiRyrUrdG/r0ZwAQEEoBdadE4qzuamrs+/9elxF/ffw1R5S+7rOTESFGPAJAfLoulzhvW4Xp/uQB8UmvWl8LBGhrHzQQRt1m0kusi1vFDWYghCHco0b0ut9o4xBCACHckzcy82YCqeFb85mXXjE84EVxcDLiZm4VuwzvOobheySuN4jp5VIz7zhOKcNTR8srgvDS0ohrDjiMB0M0JiaHaAVTp0zXLIjgmfMZkT8e+VWpxUh95tCIimUyk5c9TasANCyPU9IAm27R28W9nsNSdXycA44XOEYQn+5+cA2C0cZz4hPgJaGdr9cNvCggB+F0ujOjaVShUWyvtEhSPM+BSylA+4mDEgq8wA8mZTHLncoLC/jUqdHlDKPympxx8u4/n5kCgLoNAABBrUqm0lMwmcnJhXmtIvNMzDaNX72gKLrq/OuraQAIWl8F6tUqTg98kl+v7cYTzhhlG4/SKUHgkY1wOt3pnEb1EC/wiNKeh4mAUoZ4PnJOP6EU8SIPgEQeaYB6IgIiykvxAg82pQCbn7sY5+XNQwkFXhT6VRjm4hiwwGNGSKOnPkEwOPDxkcZhvACUkAC6K/wHM48WSNWFS+TUGWExK89zpvfObAoAWh5sVKuQHjafqIflSwvimVP9b2dGaOz1xUuOeuZERL3BJhRg0IAxvVxtaZGeOPnq3598FaC+fFou6NUTr27cJgKfkGYc9hUfFZNDtApWFi3h5Jl35s4ABNULilK08r8aqNbIjB5RfY16QslnclltJSt3bqK/Rov+Omzrc97AG4raQkEneAJSc4W86BpW5w6nvlgy4qezE9JOGFRKmicV8jNt+b19xFS2oDLT6Ny3BGWttbQm4hVHXOfC2tfipY0Ki/7Ro8xMviD5ZtcMNduiSiGbBgBAmEOsna3uuqRHBsaIUQoAQTOOhskZeSVYzbF9TpKa4RZ4HgEARh3HCwAAJtScSvVsEaTZ1vQx13aRKLXamu/7zX86zZkuHTNGaBsF5jBA+51r1XHpUAc1mc4VZN8wO6+gGsulEZcBTmQKWWybnSkhgWM4fK6gtFs+8UnX7aaNsvOZSYAJdT7H2UZ3OXl1oWQN3qRP5/KSb9pdZ3g+ZXHVGeblPjb0o0+67ckyu82kyzAXx8VJajafFxxN75i5tlAyB2sdbZwJNZ/lbK2bvnKp3Yg6xQ0NJMxhRmkAABQQBvAsm4ly6x1b3fcZMAg8x+l0HpG1SGHcejHcoBD1CB7b2DHG0AxeyiBqY42pTEGlltWZzNTwPNJSIqaXo46mrbQKmpQzEodj3xn1xGHdLJm4GYftajKIjckhWjFilNptJpVWVQFH7xcyWp85tNMY3qhTs7ksMvJ5X1Da9wRxLTqoXDp9+ty9ms/ye/Pz8xsm+uKLL959990f//jHsSnqK5feuqCZ1z1CaaN+p3Lj/fffe/etv/lp6cM9yus/eu5RePSp7z1dvzi/UFsbD+78esne890zM5GuX/31L7SbwN0NGmOrH7/3evF25op+Jo0a5YU3i1euu76/evfu7sPH+D0AgIQXnj9o/ez8yt2x8UZl+So59oM/nxqrLL5RvGzf9G5/vvbI4ceD99/82ZXr3q3PSbDv8cOrS2+dv2Lf9G+vru07sv/TS29evOZ4tz4fP/iE9NhkhDSutvjGvHb95q1bpN5YOywJUTrXls69fvGa692+3dh7+Mnx8oXXtWs3b/lkbe+Rx9c+eLN42b7p+58Hjxx+SvjWsRefuav/7L07Y2Orlfd/fvHmcxcvn/rWLgAAdHB/3dA+2v/4vjvl5Y/YV/410/HH9j3xlIDhwJFHVs7r9UO7b3qPfmfusT2Ao+UE0XUnJNj3+FOP9emODx5ctXSrcfDg2Ke/tr88Kn91VXfgsWPKzGN7AGDXY4fuvGsdLfyt9CgAAOw6eGj8wytX7+w7NF6/8cGtAwq+ftm+zYnqY7V1ZozQNgJ8aF9VN24fOry7trJ0E3bdNK59VB8/9OSh2ntvlK5+6N0mjbH9j++rvvvmxauOd/vzxu6DT4p/PPPCn44b8xc+vrt7rX5j6Tp77gfPcv1vKoJqhMt28d954fDK+dKNxvjd2gfvnr+6p3Dl7T9pPb8u3zj6He6jlVqw1qj8Y/EKy+vvPPuHAAC7DijfO1Iuzr+/Or77bnV56eaB7//F9GB18LEXn76rzb/X2PtI4+MPFu2PbjnXnVv13YefPnagv7+N8/LjjaU3z1+xb966vTq278ihO4tvnTc+vOWT+vj+J5rB3t9MPgDl2O0PPm6M3b3zwS/OO9LFy2fSCBrlhTeLl6+7Pllde+SJOVmIdPH/QDeK8XGSfurF46uXC+/e2ftIUFtZ+pD77l9ND8Z9tHF28d954fHK+fn3G4/svvvxypL3WObkt/ZUF8/N69duej4JHjk8+9yx6EB6VsCAD+2rXtY+2rfvzs2vpBNHH91/6BHX0D/ae2T/3RvLDpbFj64Y/h7xOWVv+eeDjc7zyereI08ffZQ/vPvq+atjB8ccckD9E35w1IvsOhAAOnRwVb/44d79DfdLQRUPDL4HQ8ILL+w25i99Or43qK0sXfvIu2k7H9XWDj7x1GPfiurl6h8sXLn55e6xsbXVT1eMa3syP3o2QiGA6uJb1798dFfjbrBWW/n5/NUDReOdZ/8QoLZ8rqd9pf84MiaHaMXsi9bnY+Nra0H9xtJlT/rpXx3t92ZMvxHRZ87JR+M7jbhGLbUCmDu8tqTvyv2/3z7QaTpiZIu+W/5FoXRT+P73jw35pPTb3/72l7/85csvvxyfJIZRJrqMOG9zFBjxfTJsWpRXFFDGbCakwxL2CqW+T+jG6b4JabFlkKjaMep7zcIp8QllvUlohOXi5GxGlR5Ds/WiGB00A6O9yeOLjtI2omjPJ6xt8pHrsWEQxUNJbE5KYt1ORwrGtiUZ2aA2w7y8SUZqJkNc/LVlxxmHEt8f2oiGBNKAk1hPNA0LutgChiYa8DqLj4R1iXpjl0Vda2vcLMjzhko1VSQWvaFx2Eu02SO0ahqMEc/baqMZZFinMbRR02iPbKVFb3ne5qhnCR0/fvyzzz7b9Ii6earnjohu8X//6sR9KCshISFhZ7D04u55yf3XET71JQAA/OY3v/n2t7/9ySefbDbjjtp7LKiVl0ybMNdaXKnej8WJCQkJCd84jerygukx3zaXyrUHY3v2B5f7uvfYhiDMK0VbAfjaC74SEhISHhQQJ+YNNw9bXXyRMDo7asxLTaYHt4JLSEhI+J1mYmp6Ojnq7j4x6pj3X//1X//yL/9yT1VJSEhISEgYhc8++2zkfXfWMeqYl06nf/KTn2yhgISEhISEhO2FMfZnf/ZnW8g46pj3b//2b/dn3mZCQkJCQsJwmvM2t5BxR83bTEhISEhIuIds0xyWRnXF6T0rbaOjShMStk5tZdHyCOWUV09sz2KmennRcglFUvZU88TvoLKouXz71wNHbemCw+dOTse0wEZlyXR8CmLmzOzv1JyxAT/uCHamVg8v2/Schziex76WVZSCBRzPc9F7uu00qheO737k+YURNzr/HaP8yqHd+093d+6DoPGArInEvIDt0rzubddKJsyLnKcXtM5hr46Wz2cz8+Vtkr8FBrwzMo2VV5ScEXlabwvECTw150tW/Ja3HYJGYzus3NhybG1GgQE/3hOC5dP7dx96ZeTg2JpWKz/cagAkDGebxrzUxFR6RpYwIEGem06npx6M+xlezuVzWel36l53ZAQ1n8tnxM7NScPsnNa1w5mYmpZlfhsFpibTc4rQszBqtuR6TkG8p13ncPq9Myr1pXyRzjv2qzPxWVOT6Vk5cuvYQWx9xH28h1IzNrlf+9YUGPDjPSElZPK5vCpsnLKVfktaCZmtBUDCRuyo9Xn3ndT0qbcHDkR7WJiYPfvObPdn4FgOjHam4UNAapJn2Bu5W9t++rwzKg3CFcz/GXu406YpWxbJnv26Uuq25aLsN6jA9jI19+o7MSevbh+TWwuAhA25r2Neo1Z2HJ9iQZmbjnwQbNQqnk8ZJ87yrOK4FAvidOuRsecSLTs+Fmdbp1QF9YrjeAQ4SZmdSnVTYnF2Gmplx6Ptj4uNWtnxKCfK05OpZs6q5xMCfM+3x35pXWECqzgeCLNxq+aDetVxXIp4QZppH6DVzE2xMDc9CUGj5rWqkJ5oF46EOQEqjscEaWYyBdCorTguZYgTBUTRdExhQW3FcghgQWrXpVGvMwAABoibnEhBUK9TAACEJydSQa1sOT7DvNStabf86UmARnUxnzd8NVutAUJ4anLQPc0MfeozTlpfmWlcr9guwXzXCJt2/Xr/QqNWdlyfYVGS0pN9nXlQrzguRYI40/dmYSAqYgjqVdcjqPfQ+eb/q6bPKbNdzYY5EXh5hqMVxyXAi7Ppoa8NGtWy4zNemk1DddlymKAqHBmIBFjnHYCgXrFdnzEsiBxj/HTcoBZQRj1z0eNlZaZrq6BecRzXZ7ykzMYcOzcYUQBBbbmQ1z1BrtYwAsxNTbROlYoIp9hGB9CoLOTmLZr3ajUMiJvq92GPDmXb9Sl0lI9TICpvjB8jIyGolW2XMIQFATOIWg0+pCPqrWrblgOaD9eqUV1xPMoQLwrA8HSUSxq1ikcoBX5upq1dvbLseBQ4Ue44cX0PFtQrnk/bv4Z4pKuG7ZJ1Ah8ORtmIesRzFbyiAChjRl+kdkFRiw4NQ+oUFLnoRp0q4FlaTsJYyhZLhu15rpmXpazhsdYlEQu5kqaZepZHik7DkHl6RskaPguZb2TkrEnCMPRtPS9jnCmZmmH7hNgFSchZjqmZjk99KycKeYeFYRhS1yyqPJI00i5+UJpv63mZ4zJFXTPNvIikkh9ROebpWTVvejQMqWfk1Jzpt+uTFRHOWK3iSlkBcTk7DMOQOEZR5ZFSMDTDLMqIz7shMfM53WdhGIbEyonNbAMQI5fTPRaG1C2pUtb0u7JByOoObSqk8pyU1WxCrUK25NIwZL6ekVTdaxqeOHpB5pBqsDBkvm3oORHxmZJhGIblRW3rTl2zpPLA552u+iAU3LYwhUNK0dR02yPELcm8apDNun7AvyExc2rOaGpvFdRsW/uQaDISMkXN8gj1HT2nZLSO2MioiCjSN/OZrOb4lHi2VlCFXucSz29vGz/EidQ1SxkBSQVD1y2XEE9XBbnkRRbXrI2c0VxCXD0jSXmL+Hqu6ERGQo93wtAtZYs2bSpTUuRidAHMLalK3iJhyLySKufbOTRVUjWHhiF1SxlVa2V2cnzLedERFYbEMYy8hDilaBiGYbrNoIgJp6hGl7VoGFLPMkoZHok53TAMw/ajd8+PUj5agc34MSoSmF3IlZqxQp2CpOoRYod0RGHo21pOwlzWHmb2eK18PZdvRiTzjYzUbE4RCugFhUNySzvmFFshQKycrBSddiM2CgqHxJZkWy/IHJKb/VmsR5r+MttNhlg5WdVjY3bnsuVzFe7TmEfNDNdpYiEzVU7Wo3siryC0+rswDMPQL0moPUZ5BQELBScMmW9bLg1Dryhi1Win9Yoin3M6ufiOg92CgIS83WpsTp5vJwvD0FRxe8yLk0Y0GfFZi4UhcSwnSmu3IPaIDJmV4TvNzi0IuDt4OTm+1V02zYCwapAwpK5l+4yZGbFV1TAMvVIpcsyjhoI6FrKzHN9uNczMdH+ERC82Bx07i0FsdZNNZdolEE1u96phyAwlZkDvwcribgmhmcE9PjVUxHXGOaLJbR035fr1/vU1mcuY3U7SyQtCodldEU1ep66TF9oOj42KdTAnL/BZuyOc6nJ8/Yc4MbSzGMvtkYSZarwUJ8fjbMv6dpbrkdEfCe0aNr3jFSWlYzJmlbTI2y47x3PZjm/tHC8Wvabm7czMVHEncnrGvNiICkMr2+O7dnVjwmmg0XVM5pckpBjRg90w5SMV6M86xI+RkWDnxIzZ/h/RS0bMUDqkIwq9otga82I0j9eKaIrUvWlxSqXIMS8Mmy2yPea5BaF9t9m0ZkcxZijtMa9Vjty+h4/3iK/JuBumpK+ZPSBsecy75+82g3odJpGlm5QvQbXaPMkXcdizPTgV9RYIA2DcedSeymSlQkFz3pmZBcDABEkESE3Nzk0BVIq6x8mYVKsEAIBhjrpODWamACEAXhZbUhBGwEuts5YBIURpd3JC59NyRY+TBgC8JKYAJmfmojQua7onFLuvL1KCzLklrXr27cGZ9Kjn9OEUAHCSOAkA03OzAAAKl5UFV1UVRVHUs2cjJ+JPnDR9mU1OBLWK63kUKGtVJqXkVVC15eLMXApqFhXVSQCAWc0jbHIyqFddzyPAKGHNorewjzdal2Uge6sy0NwolzEGMNHYlOvX+beqaQ6X7fmKL0qCn9ect/+++Z0D9ZyAPaOIVNWs0txJf5gfOwR2SfdFXeoIR2i0OR2tivfOikRYEFuuSiGEKImZMkkZRYBapkfAKAtanhiMBOgxLy9Lviw+YSiKoiiqevZM1Bs+Rzd9Pov9tpkx5zluUHYMXywoTWOnTvwToZAayB0bUVHEh9NAo2OsU8ENiFYeRvgsOcyP0S26qAh2RjiuqKqiyGrm7Mm4QoZ0RBtpHvixWk3KMhOlI7aqKLKqqGfPjvRWcXreIQU0GTSqruv5AIRQgLalY3PFeaRu6Q7ic6zdJjEHruPBiYdkasM9X5PumKYPlBKGejYM5/OmUxxtvgTmMFDiN2c6I9x7sD0l66QiueSY2U7X1tc/b9i/D5WGufgeMfAJhd7aAUIICPE3KhEAAOMewVOnTNcsiOCZ8xmRP36uEjnVLfDtYvbFH2ou40Sxd/Zdaiaf4UzNbB5VjykAACAASURBVABULCbKrVinbin34umSTbEgihi2skPdqERYeVOuX+9f4vlsncQUQkB9EjnrHWHEfEI3ioqOWj5hCKNtmuvRV+0YE8uFAu8YKwFAUDZcvlCQe4tfFwnrSM284zilDE8dLa8IwktLEWtrAkJp700AzuqupgLxybpbg8EBD2BIREUxNJzQls5DiVZ+JN8M82N0JEyc+JVrF2Xsm6WszIuvrIy4iGJdR7SB5sO0Sr/quHqOZ65eUETh+UvVkUpnnpHPnJ43CRYkkYPYGBsgyiPEp+vapDhvW4WHZMCDez+Hper4OAccL3CMID7d/VYaBKPNXSY+AV4S2vl6HciLAnIQTqc7z0OjCo1iy9JSPM+BSylA+9mFEgq8wEekZZStj8HeH8HKoiWcPPPO3BmAoHpBUYpW/lcn+mdtLOeUPCt5vzoxAQCV5v8aVZ+l05OQzuUEUTOqHIDUehqovCZnnLz7z2emAKBuN9PXqmQqHbuP+/KlBfFM5IPYek3oKDu8btL16/3Lo3U7HTQoBU7go+6MA0ooFngOAEbyIxZ4zCgd8TlkPQNOHBWCs1qWGgsLgDOmPbN+Mke8xNrSIj1x8tW/P/kqQH35tFzQqyf6TxZNCQKPbITTXbcGQZDiBR4sv/tMABAE/QPf0IjqUF5YwKdOpbcQTr3UFy856pn+mI5Wvi9rS4G+/w7zY3SLriwuopOn3p45BRDUFjNy0SzMbhzsAx3RcM3jtaovL3ryybN/f+IsQKP8mpItlc/8/cwGZVcvKIquOs3zZAO3Jalaxek+e4y26TIv8kgD1GMY+Bod5wPHtj7nDbwSqS0UdIInIDVXyIuuYXVuUOuLJSN+QSwh7YRBpaR5UiE/05bf69KpbEFlptF5GgrKWmsVUITn42KBta/FS9uImXxB8s1u5Wq2RZVCthlQmMMArCWn6ri0q0nQpxYjRslsrZBLpVVVwBEr+z3bIbwstSaz+j5lwIA4jg8AAFOZvOwWswZSWrdtNcf2OUlqtsjA8wgAMOo4Xn/hKYxRs8U0KOCYDhhz3Rv7wHXc/usRRt6M6/v9m5lXmW111gw2LLMbCwBAvI6chm24Qq6gpEb1Y2o2nxdc02rftgee60crBTDUiX0M63IYcSwPSaqqZhRx3YDX74z1oqijaSutwifljMRFPRFO5wqyb5hdYy2XdA+mcwXJ17WOMepLJaP/wWJYRGGMGKUAEDTH+WHhFN/dYoyhKYYyiNqtIlp5iFCgn2F+jI4EYpX0SivzlKKKeMhL7biOaCPNh2jFPL1ktv4/MaNKfFxb6yFwbReJUmuE8n2/+U/HpQApDuOO6RuO7fcEUpxHJtT5HGcb3fXu1YVSs4FWF3/40itLD8Yq3S3ze/Pz8xsm+uKLL959990f//jHsSnqK5feuqCZ1z1CaaN+p3Lj/fffe/etv/lp6cM9yus/eu5RePSp7z1dvzi/UFsbD+78esne890zM5GxtvrrX2g3gbsbNMZWP37v9eLtzBX9TBo1ygtvFq9cd31/9e7d3YeP8XsAAAkvPH/Q+tn5lbtj443K8lVy7Ad/PjVWWXyjeNm+6d3+fO2Rw48H77/5syvXvVufk2Df44dXl946f8W+6d9eXdt3ZP+nl968eM3xbn0+fvAJ6bHJCGlcbfGNee36zVu3SL2xdliKfvGDj734zF39Z+/dGRtbrbz/84s3n7t4+dS3mo/Q+NC+qm7cPnR4d21l6Sbsumlc+6g+fujJ/dVfvH7xmuvd8ldX1/Y9eZTbBWMfL120Ph8bX1sL6jeWLnvST//q6EB53OF9n17Vro8fPhRUVz7cJT1FjCvurqOSIvIIANDhR6oX3aeK/4+4p1n8wYOrlm41Dh4c+/TX9pdH5a+u6g48dkzBN34xr1+76flk96Enj/F74ODh3VfPXx07OOaQA+qf8JEtkTu8d+Xy1eDQoaC6YpFdX9lXrZurjxw+/siNC69fvOZ6t2839h5+crx84XXt2k3PJ6t7jzx9ND07gusj/btHeOH5vVd/9otqMN74+INfnLeFn+lnpxEAwN2Pl8kxGX59Y3UsuPPr94oWP3/5b5s7O0VGxWB1uKdefOLT8/Pvr+3bu1p5/6rj3bKuf+iv7j3yjMj1v/2Ic+Kh2ntvlK5+6N0mjbH9j++rvvvmxauOd/vzxu6DT4oH+stE+4LFzHd/elHTSsXiG+cuvV8JDj/9FL+6fK4/EqC6eK7rnQO3rl65+eXusbG11U9XjGt7Mj96NsI9WHzhT8eN+Qsf3929Vr+xdJ0994NnuV1YfPH58auFUnV839qd8rL9lZKdfXR15dIb5w3npk8auw8+OScfiI2oA0ceWTmv1w/tvuk9+p25x/bEhdP/QDeKEY2OkGDf4089Nnno4Kp+8cO9+xvul4IqHhh8uRStPAD0KxARk/F+nPrjiEi4vfwL89bY+Nra2urHy5c/5HM/mhnwN0BsR9SM1MvXXZ+s7j3yjJj+vyI1j9Xq/2TX/9eHX46PBWNBbWXx6lff+emfR9UKANY+fq/40dGfZkW06+Ch8Q+vXL2z79B4/cYHtw4o+Ppl+zYnqs8KGPYfGr928freI/sbHy9f/3IPNQ3Lu7vvif977YP5WI+k/1j53pFycf791fHdd6vLSzcPfP8vpvcABB+/WzhvH/hu7ikuUqUdxW9/+9tf/vKXL7/88qZzjjLRZcR5m6PAiO+TYVOEvKKAMmYzIR1xLhGjvk9ipl9tnq1LY9QnkToz4ns+YW3ZcdVijIVhyIjnDbdRGIaUdHRs5urVYjBvrzVZvGhGRzA6I77nU9by5ag+GsH1Q9QicWoxGit0RD+2LcmIT4bWZkQnxmZ38krW6M5YZcQpykJ32uOwrCwMQ0Z9zxuhPtFm3tj48RE1aOIRw6k/z8baR6sZ7+PeRPF+XBcJ7Ubmb9DINtkRxRh4UKtm+dT3vA3E9s7b7FSja/X1LiK+548UxQPqjdzL7jS2PG9zLAzDDcfF27dvHz9+/P6cJVQ9d0R0i//7VyfuQ1kJCfeN6rnjec76/071fBCqXXgmi4x/PvNw7n23w/nGOqLq4isa5N45iS89I9gF8qu5ZPuxSJpnCX3yySebzbijzhIKauUl0ybMtRZXqg/IfscJCSORzhVFM39uqdoIACCoV5bOFRylmEkGvJ3HN9kRBcQ2TduvVw0L+qb2JmwLO+o5L6hXvfbiJsxPPyAbVSckjEpzIyyfMoT5h27LpweHb7gjqleWbY/xkpKcxzaELT/n7agxLyEhISEhYWO2POaNuj7vD/7gD06dOrVZ6QkJCQkJCdvOF198ke5fnzgSo455X3zxxbPPPruFAhISEhISEraXer3+d3/3d1vIOOqY99VXX/3lX/7lFgpISEhISEjYXn7zm9/8wz/8wxYybtPeY43qyrpdogbOakpI2IHUy4uWSyiWcyentyVcG5Ul0/EpiJkzs82T72pLuoXV1q+HiUb5kk7Vs5Hbsj+sDITHTiCoLRuWR5mgnp0baQe5B5xtWquAOJ7HvpZVlIIFHM9zUTsM7TyqF47vfuT5hYg9e3caQaOxc3fEGzDjjta2F8wLnKsXNGfISQKbAvECT835otneFs3TCrmcml/eZnvUF555ZPfxCzt3l6jaQkYtOvRe7mi+rQSNra5J2EywD4THPWGT3VoKCwLYxXnDu1cKlV85tHv/6e1uA1tlm8a81MRUekaWMCBBnptOpx+QZQa8nMvnstKOueOKx9b1exaRX5sBM+5obXtJTU7PKfx2CpxIz8pizx6K0/O255WUkfb+3QRYyuXyOXmHbhEVVM7lTNl0f3XyQXluaJiascUbCE/XnVHTDoTHPWGz3drE1IwscfdQKUHN5/IZcYc8B93z8/N2NKnpU28/EGdolC2LZM9+01rE0W/Gna3tfSY1mWbIjTwM4utITZ98++3tFbmNECbr/zTzANxKtgkcy4HRDjfrp2Zbnrizgn3HdWsTs2ffmd042X3ivo55jVrZcXyKBWVuOrIPaNQqnk8ZJ87yrOK4FAtie0FozyVadnwsthf0Npf5EuAkZXYq1U2JxdlpqJUdj7Y/LjZqZcejnChPNze1D+pVzycE+J5vj/3SusIEVnE8EGanB5pySw4S5qZxvWK7BAvSzNQEQFCrOB5B/d82g3rVcVyKeEGaSXdrRygFYW5msvMLCXPTkwBBbbmQ1z1BrtYwAsxNTaSGyomsexxBrWw5PsO81E4X1OsUAIAxxE1NpCBo1ChDwABPTaagXll2PApcz4Lq9WaM1XbAzRQLc9OTEDRqXsuz6YleYRytOC4BXpztPdMGglrZdn0KvKz0ncazPogiXBbUKrbrMSxI0nR/1qBRdR0feElM92ncqK7YLllX5UhLNqquS4AXxb4LtSUHy2famsV5uRvfaaiuOD5w4qCSnbLqVc8nbZu16rZiOQSwIMmdbN+UnRuMEWdxqW2xnrKwX3Z84EUx3RLZFzz1iufT9S2yUSu7HsWiPI39FdMhnHJSZBvYKj5Kexop3241jepiPm/4arZaA4Tw1GSclwe6mqBeLmXnHVyq1ngEiJuKc9iQ8IgKsKBesV2fMSyIHGP89ODhuT3BA9UVlyBBnJlqZ964W+sR4/qM61eqUVtxXMoQJwqIounBLq+jednxGS/NpqG6bDlMUBWOtMwsQMXxmCDNTELX9JOj1e4eM8qmnCPuMe0VBUAZM/oitQuKWnRoGFKnoMhFN2JnU+ZZWk7CWMoWS4btea6Zl6Ws4bHWJRELuZKmmXqWR4pOw5B5ekbJGj4LmW9k5KxJwjD0bT0vY5wpmZph+4TYBUnIWY6pmY5PfSsnCnmHhWEYUtcsqjySNNIuflCab+t5meMyRV0zzbyIpJI/oDZx9ILCIaVoarrtEeKWZCFjOK3inaIkZM3ODreenlXzpkfDkHpGTs2ZftjSWcLNSrXMgJBqsjAMiWMYeQlxStEwDMN06UZy+uueteK29qVWIVtyaRgyX89Iqt4xtISBV0s2CcMw9M2siIVM0fKZU8wWbRqGIbFyslJsWnG9GaO1HXRzVkQ4Y7Wyl7IC4nJ2+1dGQFLB0HXLJcTTVUEuee2cbklV8hYJQ+aVVDlvR4mPdhm1C2pWcwgLGbFLmUzJaQegqSJeKZRMl1DimnlVLXbF+mZOyWgua1ZZ1b2I8sIwJFYhky1aHqW+oxcyEhbybuea57XFDfFyyyZCTjM00yHEN7OCWHBitv8ljlHKiojPOa3fRi6neywMqVtSpWwzFr4ZO0dYjDhGUeVBUPNF3XI9zy6pktIyMnGMgsIhsdQO34LMIbndIqldkNWi7RPPzMli1vCJmS9Y9aG2ionSiEbKqwYJQ+bbhp4TEZ8pGYZhWF50a4nqHIhrGkWFw3LeMAzDcEhkzqHhERVgbqlVgZB5JUUuRgVd01IgZool3XI9zyoqkqq5NBytWwvDkDqlbKZgeoQS1yhmZQ5nraa2Zj6n+6ypeE5sRk9EpcycnNFcQlw9I0l5i/h6rug0fY2UgqEZZlFGfN4NiaMXZA6pBgtHrN1IbHmP6fs05lEzwwmFtqOZqXKyHh0hXkFodQphGIahX5JQe4zyCgIWCk4YMt+2XBqGXlHEqtFO6xXFdifglyTEd/p6tyAgIW+32oST5zt9RRiaKm4HR5w0osmIz1osDIljxcQ1M1TEqe1d84kmIy7THuf8kogzJmupIvYUHjIrw7dHUb8k9VTcK4qt3jAMw9DK9lhvBDnr6o7joja0sxjEVtA1E3ZtxHV+ULOoea0kwOe7Fu5xU48ZI7SNYL1eTo5v9cUttbCstdoCM9X2jQazczyX7RxEYOd4MabFDLiMGusjzi9KfFuSqSK+O0SFfknilGZSX5Nx9yaHaDKXMSNGIa8kcd3ACZmZwb0C1zHMy25BwN2+285xbWNH4haEdghQQ0EdqXa2N999tnOcxZipoh6tmJ3lcMvIITOU9pgXhiHV5c6Y5xVFpLQM6xYErHZuHYfYKj5KBxtp+xozlMi72S6xXY1bELisHZ9xaHhEmssrSkonVJlV0mL0IprcY7eQGirm2u1+w26N6ArXW2Mnz7fGPGZmxHznZssrlaJ7DyfH43aM2FmuJ6yYqSKsGiQMqWvZrcFTk1tj3qi125gtj3n3fI/poF4PoGHpJuV5qDbxEYc9O2aWAwbAuPN2YSqTlXxdc1qXmCCJAKmp2bnpCajousdxmLSkMsxR16kBACAEwMtiSwrCCHhJaj1BI4Qo607T63y5jZcGALwkpgAmZ+aGfKTgJHGyXQQAL3WKR4i15q+VNd0TJKGTJSXInKtp1XamUdlIzrq6M8ZiJkzNah6xX00H9Wp5xSPAaHuPwZlcjrNKRh0AoG75vJoGAJied4hbnAka1fKK6wMQEmHGrdGXHWFBbO2wkEIItfRydNPnOey3PIQw5zlu7FywXpfVDc1CotD13ZQkUFOz2plxzwf8KUlCtmbWAOqW7iCeY63yKObAdQajtqyVXEGROyGbwijelxt4mQmS2I3T0U69Bpg4afq+cWoiqFXKyx4FSuKmod5rO8dZLAWtg3dbhc1mVWR3Zo3E2aR5ID1qqYoYW1etGFsNi9L+RjqqgYd3DsMZEh7R5uJlyc+JTzx/+rULiytEPntmyDwg3J0OM6FmZWporXNqN+jWakbJxrLcldwN2ZSocLosPPPSK+cWlivc2bNzkSVTRhGgVCszMNrpZFLQNvPE9Fz7TWpHn83U7h5xz8c8xzR9oJSw3o6Az5tOcbRPxpjDQInf8iTuPTqcknVSkVxyzGzHhGhdU9p4RBkqrae9xoPWF7i+RAYAgU/o+gsIISDE31j2OjaUg0Ycg6hbyr14umRTLIgi7jlhOZ3NiY5m1ABqFuGVVjfBPCOfOT1vEixIIgfDTwX/evTpzwAgIJQC6jZynNVdTY39FtDrMuKvj79mL0n8yBnjGCFGPAJAfLoulzhvW4WBuQEB8UmvWl+LTjeyOQLfLmZf/KHmMk4Uo881ji1wHV/bzqNYDACAwzjO/l2mc3nZM60GQFC1LMjm1d4vbXG2Gh6lm7m17DK8qxnGsPCINldq5h3HKWV46mh5RRBeWhpxzUEKc5j5/bc70Zr7Hont06ZOma5ZEMEz5zMif/xcJfJ2Ry4UeMdYCQCCsuHyfSdAYBwXhFut3TZyr+ewVB0f54DjBY4RxKe7kwCCYLTVGsQnwEtCO19v7PCigByEezZdG1VoFNsrLZIUz3PgUgrQfuKghAIv8INJWczKpvLCAj51anQ5w6i8JmecvPvPZ6YAoG4DAEBQq5Kp9BRMZnJyYV6ryDwTs03jVy8oiq46//pqGgACtymjXq3idOxH6Ka2G++J17yh34CUIPDIRjid7nQ2o3qIF3hEaU9vEFDKEM9HTvUnlCJe5AGQyCMNUO+mfhHlpXiBB5tSgM1PzYzz8uYIlnNKnpW8X52YAIBK83+Nqs/S6b63EvfcziNZDAACn5CmkftZ9+jFkFrMg7mwAEjUnbOj7HIxJEpHqsLypQXxzKn+tzmjdA7VhUvk1Jn+6YnDwiPaXLWlRXri5Kt/f/JVgPryabmgV0+8OoLyDeJTLPTHdLTmvMiDTSjA4LgdrCxawskz78ydAQiqFxSlaOV/dWLQ8gRntSw1FhYAZ0y7b5pTfJBttXbbyLY+5w28UaktFHSCJyA1V8iLrmF1xvT6YsmIv8kjpJ0wqJQ0TyrkZ9rye/uIqWxBZabRuQ8JyppmBwAAEa8s4joX1r4WL21UWPSPHmVm8gXJN7tmqNkWVQrZNAAAwhxi7Wx11yU9MjBGjFIACJqd1jA5I68Eqzm2z0lSM+oDzyMAwKjjeAEAwISaU6meLYI025ph59ouEqVWePq+3/yn49J2ddsF92sbBeYwQPt1SNVx6VAHNZnOFWTfMDuvlBrLpRGXAU5kCllsm+WObx3D4XMFpd1OiU+6bjdtlJ3PTAJMqPM5zja6S2mrCyVr8LZ0OpeXfNPuOsPzKYurzjAv9zHycOjZDuFlqTVz12+WThzHh/tu52EW6zFy3SyZuGlkgBSHcSdqG47td1UhjuWBpKqqqkpDB7xOjuFRCjFWTWHcejnaoBD1TBbfOWAOM0oDAKCAoh5uhoRHtLmoo2krrX9NyhmJi31mAiBepxet6SVH6MT0Bt3aVKagUsuqtjM3PI+0TMOIUWr7PpVWVQFH7i/CiGN5SFJVNaOI6wa8ACKs3PlHTO0aK+dOn74U/Ui53fze/Pz8hom++OKLd99998c//nFsivrKpbcuaOZ1j1DaqN+p3Hj//ffefetvflr6cI/y+o+eexQefep7T9cvzi/U1saDO79esvd898xMpCtXf/0L7SZwd4PG2OrH771evJ25op9Jo0Z54c3ileuu76/evbv78DF+DwAg4YXnD1o/O79yd2y8UVm+So794M+nxiqLbxQv2ze925+vPXL48eD9N3925bp363MS7Hv88OrSW+ev2Df926tr+47s//TSmxevOd6tz8cPPiE9NhkhjastvjGvXb956xapN9YOS5HvjWpL516/eM31bt9u7D385Hj5wuvatZu3fLK298jjax+8Wbxs3/T9z4NHDj8lfOvYi8/c1X/23p2xsdXK+z+/ePO5i5dPfWsXAAA6uL9uaB/tf3zfnfLyR+wr/5rp+GP7nnhKwHDgyCMr5/X6od03vUe/M/fYHsDRcoLouhMS7Hv8qcf6dMcHD65autU4eHDs01/bXx6Vv7qqO/DYMWXmsT0AsOuxQ3fetY4W/lZ6FAAAdh08NP7hlat39h0ar9/44NYBBV+/bN/mRPWx2jozRmgbAT60r6obtw8d3l1bWboJu24a1z6qjx968lDtvTdKVz/0bpPG2P7H91XfffPiVce7/Xlj98EnxT+eeeFPx435Cx/f3b1Wv7F0nT33g2e5/jcVQTXCZbv477xweOV86UZj/G7tg3fPX91TuPL2n7SeX5dvHP0O99FKLVhrVP6xeIXl9Xee/UMAgF0HlO8dKRfn318d3323urx088D3/2J6sDr42ItP39Xm32vsfaTx8QeL9ke3nOvOrfruw08fO9Dff8Z5+fHG0pvnr9g3b91eHdt35NCdxbfOGx/e8kl9fP8TzWDvp/7BLwym5r9zALjD+z69ql0fP3woqK58uEt6ihhX3F1HJUXk0f22c5zFqotvXf/y0V2Nu8FabeXn81cPFI2WkQH2Hxq/dvH63iP7Gx8vX/9yDzUNy7u774mnjz766PjyD5QflS5rF4vFN9688I83Vvcff04YKy/E2mrmqaMxUVq9NNhIPZ+s7j3y9NFH+cO7r56/OnZwzCEH1D/hB0e9yK4GtQL5svbRvn13bn4lnTj6aESox4fH1LcizPXlBwtXbn65e2xsbfXTFePansyPno1QCODujYWS+9WB4O7dseDT9994/cPnLl7525kJqC2f26hbm0JIeOGF3cb8pU/H9wa1laVrH3k3beej2trBJ55i9kXr87HxtbWgfmPpsif99K+ORvR6aF+wmPnuTy9qWqlYfOPcpfcrweGnn+JXl5t94S1/dXVt35NHuV0A1cVz8/q1m55Pdh968sCtq1G1q6+8Na8T8fvfPRrZXUTx29/+9pe//OXLL788aoYOo0x0GXHe5igw4vskZgZ2GIZh6BUFlDGbCemwhL1Cqe+TuAn5m2Z7pcWWQaJqx6jvNQunxCeU9SahEZaLk7MZVXoMzdaLYnTQDIz2Jo8vOkrbiKI9n7C2yUeux4ZBFA8lsTkpiXU7HSkY25ZkZIPaDPPyyPTM2+wo2da/zzHfjJ3XWcxUkVj0hhiZEt/zabNQ0tTRKymq5nWFUFdXBSVmvnef5iNGaVyeoYkGKzAkqnqyDgmPdeZirFmQ5w3thogmI1knTZU2rmK05m0XtyKDhW17MeJ58WKZk1eyBukR4xRloTPVe6geo9VuY3bEWoVtoT3mJSQkDELtUr5kk6FLCHYg7TFvExBdkfqyUEMVCw9Mne8x7THvm8ArSj0rlcIwDEO/JHfWVd4Xdu5ahc0Q1MpLpk2Yay2uVLe65WtCwu8w1DMN06P1ZcOT5rP39+P/FmlUlxdMj/m2uVSujf7FZjIzn3HnX1us1AMACBrV5Qt5UyjmH4g632vqlWXT8plvmcuVb2CL/HSuKJr5c0vVRgAAQb2ydK7gKMXMA7Hd3FgYhhsmun379vHjxz/77LN7rExQr3rtJWKYn35ANqpOSLifBLUVy6FIlOeGbYW2g2jUKn5rCgnihHT8/lyRmasrtutThjAvSBEb/z2kNKoV/5vuKZsbmjV9s8HGfPeC3/zmN9/+9rc/+eSTzWbcUWNeQkJCQkLCxmx5zBt1fV4Yhl9++eVmpSckJCQkJGw7//mf//nf//3fW8g40pj3H//xH3/0R3+0f//+LRSQkJCQkJCwvaytreVyuS1kTN5tJiQkJCQ8YGz53eaOmreZkJCQkJBwD9mm/TYb1RXH79lwZqOjShMStpd6edFyCcVy7uT09gReSyKSsqdmJgAAgsqi5vLtX9tBUF02bI8yQT0717/z4bBr955vtvQdSG1l0fIIxUr+5H0/4zSezWvVysEpr54YWPQx7NrvENv0nIc4nse+llWUggUcz3ORe7TtOKoXju9+5PmFe7nA5T4UsY0Mahs0HoyFkpgXOFcvaE7cMTpbkChyXq9ER8vns5n58nYVAJDiBAGs+aLpx10rFo2Ia/eeFCcILEazHUbQaGxxm8bNxDbHC9gpzevuvTtLBADqC88/svv4herGKbeqFeYFbJfmdS/CZrgt7b5se/mNsU1jXmpiKj0jSxiQIM9Np9MPyNI6Xs7lc1npXi76uQ9FbCMD2jbMzilnO5vU5PScwm+vxPScIvTsdDhbcj2nIG7boAoAE1MzsswPuRZ58sP9YGJqRha/sdI3g62P0nXCqQAAIABJREFUuAN2P5uK7dTUtCILG6f7emApm8vn4iJikM1rNTE1PSTi4q/9DnGvzxLa2aSmT70debzXA1XENtKvbeBYDox20OFDQGqSZ9i75x1fwmYoWxbJnt1Cxp0Y26n0ybff/qaV+F3nvo55jVrZcXyKBWVuOvJBsFGreD5lnDjLs4rjUiyI7T0Gei7RsuNjsb3uv7kbAAFOUpqH8rZSYnF2Gmplx6Ptj4uNWtnxKCfK082tIIJ61fMJAb7n22O/tK4wgVUcD4SIrSAa9ToDAGCAuMmJFAT1OgUAQHgS0b4iGtUVx6MM8aIADE936lB1HJciXpBm0uvqO1iLOIJa2XJ8hnmpk26IYhOpemXZ8ShwPTso9BmkUV3M5w1fzVZrgBCemhz0WTMHZZw4m55o52ec1PMLCXPTuF6xXYL5Tu1Gi4d44we1iu16DAuSNN2/r0fQqLqOD7wkpifWX2pUV2yXrKtytCnrVdcjqPck+ub/q6bPKbMtzQilIMzNTHZ+IWFuerI3UtNQXXF84MRBJQfLrFUcrzfgoxOtWA4BLEhyR+LGxTVqZcfxKBJkZSZej6BWsR2XIF5WZtfHWaNadnzWLzYifqL8FateI0rZqAr2RCVHK45LgBdnmycDBrXlQl73BLlawwgwNzURV71+148Q213zVVyfccLgU29QK9uuT4HvMWx0A+/J020jPC07HsM9FugxVjtfXBuJ0SqolW2XMIQFATOYnh7yLTaoVxyXIkGcGRJxEV7euGsK6hXHcX3GS8p9351lFEbZlHPEPaa9ogCx+0NTu6CoRYeGIXUKilx0o04V8CwtJ2EsZYslw/Y818zLUtbwWOuSiIVcSdNMPcsjRadhyDw9o2QNn4XMNzJy1iRhGPq2npcxzpRMzbB9QuyCJOQsx9RMx6e+lROFvMPCMAypaxZVHkntnVGjpPm2npc5LlPUNdPMi0gq+QM1c81SVkAgZHWHNsWoPCdlNZv0FeHrubxJwjAMmW9kpLzTKjWr5k2PhiH1jJyaM/0wphZZK24ncmoVsiWXhiHz9Yyk6h4bqti/O8Vs0aZhGBIrJyvFpj3Wa8t829BzIuIzJcMwDMuLKpu6ZknlgW9WhThGUeVBKLjNX3pB4ZBSNDXd9ghxSzKvdvZiHyUeoo1P7YKa1RzCQkbsUiZTctpZTRXxSqFkuoQS18yrarOOTVlmTsloLmtWWdVjdipmvpnPZDXHp8SztYIq9HqceD7raibhZhC2whYh1WStX1kRCTnN0EyHEN/MCmLBid1x3iuKWMoWddun1LdLGaUZ8O1rXNZul27kcrrHwpC6JVXKNsNko+KIlZflvOmzkBEzp+ajI4g6RVnKGh5tWbfpJbcgcJmSoZluv1gWHT8R/opQT5SKtt2SamQEqdR2RXQFQ+qapYyApIKh65ZLiKerglzywjAkjmHkJcQpRcMwDNONaR2Drh8ptsMwZK6ey+QNl1DimaW8wiPFaB9d4ZZUJW+RMGReSZXzNg1jGnifqV1TywqIk3NFzXQ8z9Gzkpxv1pV5lpYRUKv9xLaRWK2YXciVmomoU5BUPbpaRJORkClqlkeo7+ht4zSv6TJSDTbMy8O7JuZpqqRqDg1D6pYyqnbPtgTfEecqDBnzqJnhOq4MmalycTuCewUB9WzZ7Zck1B6jvIKAhYIThsy3LZc2uwu1HYShVxTbh6v4JQnxHTe4BQEJebvlMSfP95zBYqq4PebFSSOajPisxcKQOJYTrTUzMxzfCXGiF3vO2egUQbTejeKdUskJw9AtiL1HwjArw7d72YFa4IwVWXoY2lkM7X3rmwnbvVOkYm5BaI9ToV+Seg3eY5AwZIYSNcqvx8ribgmhmcE9jjZUxHXGOaLJ7ZJGjocB41NjfVq/KDWvh80xL+92L5UkrnX0jK/JuFsRoslcxoy66XLyAp+1O1eoLsfWf73dvKLYGvPCsOmC7ghh53pcMIBXFLo9aRgyK8u1A37dmEcNBXUKtLO9ImOLI4aKe4WhSD2YneW5tg2JJiPc/NFsN1G1iI+fqMYyoB4Wi20vWRncjtshFQztLMZyu/tkptr1ipXtCaQo4ly/cWxTK8v3yvaK4v/P3vuHyG3lib7f5rqp04u9LXNjWubZtMzYtLyb0Aovea28ydAaJkPLbxOsMDN0hZ2Hy2wernAzuDJkcYWb8DqQkDLrITI4RA0OqwZnowYPVw0OqwabUYHNVUHMqsDmqRabVTE2nLq4Z4+GNCuxafT+qN9VUnV1+2diff6xq6Vzzvd8fx3p6EinPbpk2ypr7XERGeARmFma7th3x86zqDXyW9lmmzExMkAqM8ul9ZYlVFmLH/M6e27l2Faa6RzzBmSJ2NRk51mqud2Tr0sU6t1+4cHx5O6rENRqAXiGqhOGgUodF9GUY8Y8eKYAKKp1QzyZzvCuqliNQz7LcwCpydm56XEoq6pD0xRu1OpTNLGtKgAAQgCMwDVqQRQChucbN98IIeK31yG01ijE1wYADM+lACZm5maiF6OkxJwEmlLf8bhqEE7sOK/ZxIQg+Av84SPH3zm7VKywJ0/OAJQU1emcQ0uxAm0rSiWyF77vx6yomlUcbJ6aCmqVUtHB4JPmp7qjBZtesLBdmAm8SqlouwAYRyhkWFBXkb7iNM81dIEQQGM36i34Q7fya5piII5ta3eSZ4muGE29UDTqOMQjU9GrADVDtRBD+432CEWDbfW3F5iy6nIS35qmQZE7X7d7MwCf5bm2x/mDd6+nUMvhU7zAtRy+k/F53XW1Y+NBtVxadQgQ3LmYJrI5z1AMJEgz9QNTpyzifDrTV3FgKDrmJaF+1sSJPxD8j3NNFXBCVC8G+U9ksHSLBxzXfGiMEPIbvjq4g4hiucYC+hRCqOXgmzGk6SPwdFnzBbH9eJtq76BuqbrL0JTbqBVRtGPZQVSAx4A6dh+fzkiMrajlnuajY2SQVJzImmn2pdffOr24UoL0yfn4eUXUsRv8jMgRTTH61rAOsHJcaiqpmstJjeSXOvo/MPnnY0/c5OZDH/MsXXeBEOyjjiTB5HSrMNzjY4qmgGC3bhBEdW5UT3BXrUiQLT3TmsDuScWbpvKBtVF0fPIDAIDUTC5N64ruAZQNnxMiDT11yrLVLOPbal7k2COLFQhcTKBTM4AQAozd6F4MkN6Ws68fl01CsRxHQTshRAvmO1oufXxBxxTLczQAPMQV2BGq35o/dCofu90lG1nTxZEFEfKxgwGwS7pKcQumke9fWURc7CMKPZDXbBBssx5EobbDdxK4ZiHz+luK7dMcx/b4Y2RzGOOuYTuVihKJ4J5ed5wV14uB/hMRLN31oOhoHNjBvqupIT12SNNHlezRXqekmJDOYYPKqLYipSICfCgohu534ZgYGSAVjB/9yjYLAuXqckZguHeKQ76KgSjku7h/PfLgLBGRmgLs4q7hNNLhHjcPew1LxXKpLNAMS/sYMVPtJ5pBMNxLINjFwPBss1ynmhmORRaipqZaL1AOW2kU91vbVDbLcopWoQH4E5Gmrq0uO8L8yc+PngTwSu+JGbl0IsPQYBMC0LwkJpgAwzJbk738npC2cvYfTkwCQM2sS1+t4MmpySjBKmdFUZWsfzk1BQCB3ZCuUqGm4l9sXV1c4k4c2/SVi4AMvqOps31/YFgGEdIRngEhPmKYyFX1mBDEcAwA4hikAOqwLUQ1R7EM5RMSAGw5VH3yoK4aCCbAcGzf2ofVrJjzZeero+MAUL8nCLyK609NxRqFZlggGAfQfks/CPryEMUylI+xBzA+4KxOBvjPcH2MYjsd7KK0tEQdO9YrATOE6aN9m2YY6HK1NimWZZCJqKmp1iV2EASRAf55/L1eC+y4iOl90SYmRlC8VFBeXkbzxz6ZOQYQVJfTQkHPz24eshAQTCi2L4S2kSVSDMuA4ZLhXelx8EDv8/osUV3Kq5gah9RcPsfZmtF617m2LGuRl+YAAIBx88SgLCsOn8/NNOvvzCyTmbzk61q56cJBSVHMAAAgIu/GpSS/eSy+tiGZTOcEu5DRkNhzGdlswndUWW9ceo3PSDxDIZjJ5XlXbyumahpEzNf3Ah1m9KgXskyX5vl6/AWOgwHAJ5bVeO+0V7DANm3E8Y0k4Lpu/Y+WTTqlBQBIUVRjQssjQMXccVJ0+74ysC2793hEL7boDx2Mp/MZytRLLStZmsVk82IzrLCL2wbUTZRZSE8AjEsLWdrUVlvmrCzJRv9nAlKzuRxr661ZnsCx3VhJEEUjv9m5mm3jwT42EBe3NWHobYfvwDEtzAh8Y1Gv6xIffMCWFSFgq7lxKZehTUVvVV5ejHDp1Gwux1qK2npVrbok6xHfUGhVO9h/NsWPVsh2OggAFIV8QgAgIH7UnEis6Tf17XEpl6GtDldz7JaLTmfzgqvpLZV5q7LqRAZ4DB138sGqrPnNmG8TEyODpMKG3JwhTU2KEkfFT81jp1XKMzWbbYXQcFaOS03T2TzvqkoridZWZK0CAFBbfe+Nt5aHftf+ofJfFhYWNj3pz3/+8xdffPHb3/429oxacfHjs4p+2cGEeLW75etff/3lFx///bvy1Z3i+2+/8gw88/KvflI7t7BU3RgN7l5bMXf+8sRMpEHWrn2m3AB6PfBG1m5++X7hTvqCemIKeaWlDwsXLtuuu7a+PnboBWYnACD2tSP7jY/OFNdHRr3y6kX8wpu/mBwpL39QOG/ecO7c29h96Lng6w8/unDZuXUPB3ueO7S28vGZC+YN987axp7De28vfnjukuXcuje6/3n+4EREbXR1+YMF5fKNW7dwzds4xPfPuHSADu2unLNfLvw3bmfzT9XV0+0m2HuX1Kvfjo4EI0G1uHzxu1ff/cXBndQLr/90Xf3oy7sjI2vlr3937sYr584f+9GOILoXGAd7nnv5YI8U1P79a4ZqePv3j9y+Zn77rPDdRdWCgy+IMwd3Rgi2Y/+B0asXLt7dc2C0dv3KrX0idfm8eYfmpIPVLoVQAPsPjV08c3Fk/4iF90k/ZiJDmD60q3j+YnDgQFApGnjHd+ZF48ba7kMv7b5+9v1zl2znzh1v16EXR0tn31cu3XBcvLbr8E+enZrd3B+CSoTydzCvvnaoeEa+7o2uV698cebizvyFT35cz5SV1evPvkp/U6wGG17594ULfk799Gf/FQBgxz7xV4dLhYWv10bH1iurKzf2/fpvp3dCH/TLrz9/+8zC1xt7dq2Vv75oObeMy1fdtV2Hf8rRPVMiaP/emqZ8s/e5PXdLq9/437mXdMsd2fP8c97Kh2cumDdu3Vkb2XP4wN3lj89oV2+5uDa69/m62/Y6/BUQX7hz5aY3sn73ymdnLP7c+RNTCLzS0oeF85dtF69t7H6e/zG35/ZF5fLooQNBpXh1B/8y1i7YO57l/8+gWIht7kd//eprz5XPLHzt7R5bv1lccQ6m53/ULwL98usvrZ3Pf3F31+6gWly5Sv/y75jKUmwvZl5+NtJ//q995TO99vJKUfXcwbXRvc/vqX7xoaxfvXHnnjey/8W/EfZFdlDcW136QL541bmDvZG9z+2pfPHhuYuWc+eeN7b/RW7fjw7vLp5RawfGbjjPvDp3sL9zsabf1Ld3MD9/bf/lj86UN3aP3i39Xr9664ZpWq6397lX2B9xr/18VFs4e3N9bKN2feWy/8qbP6O/LX3ZH+AREVP9+nf6HbQzWA821kqfvat89652fn5yB9SKix+c0awbLvb2PvcKOxWZMwdIteObz/RbI6MbGxtrN1fPX2Wyb8/0ei0AwPrNVfyCANeur40Ed699WTCYhfP/fWYcoLJ8ekG9dMNxcbD70OwrL0RniZeD1fjU9L/Pvn5k9GJerozu2bhbWjW/EzOzz+wAuP37Dz7SffH/eZV5YDOLf/rTn/7pn/7pN7/5zZZLDrPQZch1m8PgY9fFseu2w/oytrReP5EMOrGzUuK6+IEtD7qf2vyBIvu+H4YhcR2nv2s+cfGw/Y2rvkNlfk9VEYL5pPP0+KY7zxvUdr1TPna30pFN/SEWgmMLEhxrQDKcWzVr8LGLB/XGJ65TP5NgF5MBWtyU4Ry+o2uDbBZRzN3cpbcSc8P7z9bYVgfJME4UZfrhfLtZPcEuJt2nd/vvoADvwMzSTNaqe9cQiSY6RiKkqjfvY9cZKqb8YdS2TStvP66HZtvrNp+4vYQqpw9zduE/vjr6CNpKSEhIeNQU39qbAf3fhnnUlxDLD2MvoaBaWtFN7NvGcrHy/fi0cUJCQsLQeNXiim4TbGsrpeoP+1vOTypP1vc2EcWIBVME2MZrYgkJCQlPOAhRTEaxMgBJjntMPFFjXmpiqv9rlgkJCQk/EFIT00mOe7wMO+bt3LnzzJkzD1WUhISEhISEYbh3795f/MVfbKPgsGPejh07arXvycanCQkJCQk/aP793//9L//yL7dRcNgxjxDyD//wD9toICEhISEh4cFSX7e5jYIP6HmeVylabse7+Ztt9paQ8DgJKqua6RCflU7ODdhibAtUi8uGgwkl5ubrn2bySkuqy2Xnp39oYRCUlxWXP3n0wejth0FQXdWMB+pPD4InU6rHzgN6VwHRDEO5SkYU8wbQDENT34tIr5x9aWz3kaUf2pxt4HmPZBV06Z0DY3uPr3a05Xnfj1dMUjTLgrFQ0N0HVSPNsJQlL6h248ovMAvZXDqjVAcXeywE92Gl2kpGyhnD7mrwBLD9zm7BmVMUy4JZWNCG2rFh22wxXz0iqaJ4VCloOzygMS81Pjk1I/AUIFaYm56aGrDz7pMEI2Rz2Qz/Q1tHZarqI/FyVsplc2mufXlT1bb2idLHx/jkjCAwD7DC1OS0KHTsq546qjqOmaOH+wblI8XTFW2bQ3FlMavQiv3PJ+7jY9KPlu13dkvOPD45I/D0w375YKv56tFIFcWjSkHb4Yl6J/2Rk5o+9skn89+b+B2SkmEM9b3m+2Z89uSnp+baEVgzDfv7cwPwsBmfpH2gmMctRh+BZfTvzjccNcLJ+qdz36NrxO139kl05u9NvnpkKWg7PNL387xqybJcQrHi3HTkjaBXLTsu8WlulvHLlk0olptu3DJ2HCIly6W42cYeG0GtbFkOBpoXZydT7TMpbnYaqiXLIc2Hi161ZDmE5oTpiVS9ZMVxMQam49ljb23tyli/bDnAzka+XRNUS6aNfUSxLOXD9PTk0LVRdSF8mp9lSMlyfIrjG/LF6q2tiymoFC0X6FaZoLqaz6kOK1SqFAKKnhyPnmQOqkXDwkCxfEsbXq2+H44PaHJiHMCr1XwAADQxMR5US4bl+hTDt3XVUB9i56YnAMArL2UXDJJzqlUKED050d9wt8KDWtlxSfNXrNXaWqgUTRsDzQmzU1HeE+sh4FVLlu36FMfzU31iBdWy5XR6WkvYHr+Kw6uWbdenWa5nMxavpBMu3bYXodi56QkIvKrTtN54p0poUrZsDAw3G7N5TuBViY8AwAdqciLVtFjjV2wgdCnEqyzncporZSpVQIianOjXZNuuLJQtx2f5mYbSPB+IpS87DT8MBrhu/VhPL32ab5suqJUtGyNWmKFxyTAdJBzjYRMfiHKBDjekamXTxhTDz9SPDtHZGFsP4cw95ue4iCN96c6rFC2H+IjhWPCp6X4/7vAHyi1ZLjAcN9Wl0+58FRcUMVJ51aJlEx/RHIsI6n9TcGASiGguKj0Om4IeG4/sPs8rvnckowE/Py9SWvqnp8sR0wYBdiw1L0mZ3GnFJDRDubL00vHlStA4lJOysrqo2o6a4dJLHkBQWXpDyjuMOC9xOC8eX6kBAHFtbUGSCurKouHSHIf0NPfWamll0cQ0z4Iicu/Ud+LwsWMUMlLOaMw/RdVGXFtbSKcLypJquXqOl872T5QExfdyOhKOHj06xxElu2B6W6jNx46lZKV0Nn9atYFmkJ0XfvrOSnuXkn69BdixlJyYlbXlRZOwHEtkgX+vFABAzbYIgO9jx7Ysy3ajL1Rry2/lTFqcnxdoMyscrzdGHFPN8jQjFSwcAIDnaBmOSxcM94+r72V1JMzPS6yTF15fqtRNR1xLy6elBTMAAK9iOQQBEMe2LMtycNSsUL37UlbHAADYsbV8WsrX1R9lteOrzQcq1ZW3jmRNSpyf531Zen0pYlOSaA+B2spbr+ctxB+dFxlXTh9vSg8AAL6tntZciuMZomeP1D0tznZRBOWlt95YsIDlGLCU7ucmAaGE+gKWhr3SBRsAwHdtU8mKabn+CzumnJVyir6k2cByjJsXfno2es8VbJtyhqO5tGLjAACIXZA4PqNYbhAlcIRC/lfVtn2EgLi2bVmWjaMeWBHXNgoZKS8vq6ZrLQh8vgyRfjjIdX3smIWMkFGcdpViVnWbejt7RCpghmN9RXo+bVACg3WrOtgHKovHFxxWnJ8XQE3/tLUhKnEtbSEt5dWVRc1BHEdbWe715RpAMExnI209lDMDgFc6e/yNgo1YjvENudD5lDMq3VWX3lpw2LmjR48KlJXPKlGTfw1NZXL507qLGMY3ssKR0/W+9uarmKCIlaq28k7eZISjR4/OMU4hU+jb9WtQEvAim4tIaMOloMfKMB+iHnJfBafAAkrrUYeInqbZvN345esSLag4upI8i0S19bVxV+YRm7P8xiGKzVth6LumYZMwdAocJWnNc50Cx2StVikmYzSO2HkWsTmz8ZVvK8c0TwvDUJcoXsHN8pG1YUVATMbwwxBbhhUhtZnl0nqzHFZljWyxNjNL02mj9RVyO88iXnYG6s3OsxSXt/ymBDSTa/bJyHQUiYJoImrp2Mx0FMWqQHEFpym0IhskDEMzQ0Hzr3aepdqiYkVAktb85co8ErXBH1P3NRFxstuURBWQoDRV2mc1Km3UDygCxbcKYUWg03pkM30e4vaca+VYNm/XfzsFFoktC4W+kaEbnhbrV90QI8N0atopcJ0VdtHRmzAMrSxDZ83mLzNDUYLS0LqvS6jd1/4eFjhKbIaOb8ryYIH7FFK3wIAGWkJQkobDkNiG6frxfhjvumFoZKi2a4V6mmrWgFWhJQJW+A4XiPeB0JV5aLqer3UpydckREtaoxKsCC3v3ryzcarb3JmxKtKddVs5hsrUhY1UF1ZEvhVboSXLUT5VPx116M03M3Tb5O18FRMU8VL5eprLNTNG6Mhyyx17+xWVBGJjMCqhbZqCHgTb3lfhod/nBbVaAJ6h6oRhoFLHRTTlmDHPOCkAimrdpk+mM7yrKlbjkM/yHEBqcnZuehzKqurQNIUbtfoUTWyrCgCAEAAjcI1aEIWA4fnGHTZCiPjtlQWtB7zxtQEAw3MpgImZuZmIaSdOZM00+9Lrb51eXClB+uT8+NZrQ1R7pet0RmJsRS3DYL35LM+1++QPvcMsjM/rrqsdGw+q5dKqQ4DgpjompJzoqkoJAABKJvDCOADMKg42T00FtUqp6GDwSft6dhuPx+OL9FnN9/0AAGqGaiGG9htaIBQNthXtPT0eUtEUi+Y7FtlwPNvyJgAACrU8LcULXP3YQNu18XRZ84WODYKp+C1CN1EColiu8ZQmhRAi8csipzJZzmqsyghMmxJnUgMF7lHIkKQAgOa5CYDx6bnZydRAP4x2XQBAXd3s+L9P/Lq1AQAQ6tz3O84HACZPGthR51JetVw0XR9ht+uJUV3cZhVDR8OQto6gqskmJQjtdwBQs0cxYTshCP4Cf/jI8XfOLhUr7MmTMdsqpKC+D3Pz52xGQmZrIU6zjZigGCBVihNpVWB/+sY7p5dWy/TJk3PR7UcmgcExODA9PnE89DHP0nUXCMF+W/kATE63CvxQ5Smaam8qjKiO+AKCu2pFgmzpmZa1eyJu03Q0sLYOH+xn/OhXtlkQKFeXMwLDvVP07qc2AKAY2scuhsF6Q4C2OVEeuGYh8/pbiu3THNe1De64mE37mrIaQFC0QZipN0BsOfv6cdkkFMtx1Obbft8HKGJMxC7p0gK3YBr56b7T6uW7PAQ7rt9l+RRCQNzoWS5EobqnDfarduUYA4rfiXpr9PQ6XsUT6ZzgKEoZwDMcWpwCGOxs3QrZAhTV7trw8dty3UFMZvIS0fUqANQMnUg9e4RH+QAAeK6xkH7jHc0BhuP6FyNuHuFRDGnrCFwHxwVyjLqmTlm2mmV8W82LHHtkcdhdw2mK6tdpTFAMkAomj+m2nufA0RfSHPNS5OMlgOgkMDgGN0toTxYPew1LxXKpLNAMS/sYMVPt56xBMNw6YOxiYHi2Wa7TsRmORRaipqZaETNspVFsv7by8jKaP/bJzDGAoLqcFgp6fla4H9mw4yJGZOB+9AYAUFpaoo4d613mFaxmxZwvO18dHQeA+iV54FVcf2pqAlKz2TQlKPqCjynxZL177wlpK2f/4cQkANTM+vnVCp6cis0NteVFSzpxdNNcO9zlOMMxSAHUoUsYoIRuD2FQ17cSPEKAZpnIGx6CCTAcOw70cLajGabzDmUr+MTf9kf1x8VcOptRihkBM2L9snqw68Y3tLq4xJ04FnNp3llseD9suW4vAemwNfGFhQXGWloyEV0wv4pcktRDbTkjLNC68+lsCgAaWvcqFZgapjTEdXaIqI9xZoZjwMQEoD8KotVVW112hPmTnx89CeCV3hMzcunEMFvoBS7GiOGYvuajgmKAVEFx2WDnT3w6dwIgqJwVxYKR+yoyRiOSwNZisE10Cnq8PND7vL74ry7lVUyNQ2oun+NszWgtBagty1r8xSDGzRODsqw4fD4306y/M0dOZvKSr2uty5WgpDTeqIlIpXHJ1W8ei69tM7AhN2ZzIDUpShyFqC3X1rqVBQhWZc0X85kpGF5vnb2jKOQTAgBBdGZ1TAszAt9YDuu6xAcfsGW59cPT2SxrLmQsRqyHTdUyXZrn6z8Cx8EA4BPLcoKedoGiKKi3THyIublI0RTVMo9nmW4CMnNfAAAgAElEQVRHFXED4Li0kKVNrf3ue2VJNqJXlfR6SHpB8k2jvSDI0NveBADg4rZqW8eGtN24lMvQll5qnebY8S5N0RRAY5YOKpZNBjrkQFKz2QzScjmXFRspdYDApK/CFEU1JsI9AjGzsb2mHeiH0a7b6HOzlsC2OpZMENuwCCtKkiQJ3UNW7EWQY5g+JzQeUNRc1wcfAseyWiqPLLhpZ2NVt6kzT6bzEjGM1s2a5zi4IUS0unxHlfWGpsZnJJ4ZMBWO3da6mZou61RmIT3R7qYPsUExQCofa7LeCIXUlCSxAyYAepPAVmIQIlNQZfmtNzqW5j1O/svCwsKmJ/35z3/+4osvfvvb38aeUSsufnxW0S87mBCvdrd8/euvv/zi479/V766U3z/7VeegWde/tVPaucWlqobo8Hdayvmzl+emIm8H1679plyA+j1wBtZu/nl+4U76QvqiSnklZY+LFy4bLvu2vr62KEXmJ0AgNjXjuw3PjpTXB8Z9cqrF/ELb/5icqS8/EHhvHnDuXNvY/eh54KvP/zowmXn1j0c7Hnu0NrKx2cumDfcO2sbew7vvb344blLlnPr3uj+5/mDExG10dXlDxaUyzdu3cI1b+MQz0bJfHv1M/3WyOjGxsbazdXzV5ns2zP0jijZ4mqrfv07/Q7aGawHG2ulz95VvntXOz8/uQMAIvU2Ulr68MwF88atO2sjew4fuLv88Rnt6i0X10b3Pv8Cs3Pf4d3FM2rtwNgN55lX5w7u7BWXPrTn9kXl8uihA0GleHUH/zLWLtg7nuVFjkEAANThXcVzd9Ly3x7cAQBA7d+/ZqiGt3//yO1r5rfPCt9dVC04+IJIXf9sQb10w3Hx2IEXX2B2Ajqwf009d3XXXs/+lpW4fZFzCHsPjF46d3nX4b3ezdXL3+4kumY463ue/z82rixEWA3jYM9zL0/9tfirw6XCwtdro2PrldWVG/t+/bfTvf2K9JCd7GtHdl386LNKMOrdvPLZGZP9SD05jRqedgXEF+5cuemNrN+98tkZiz93/sQUivOr/gS1g/n5a/svf3SmvLF79G7p9/rVWzdM03K9vc+9wj7Tcy51YE9F1e4cODRWLa7cgB03tEvf1EYPvHig+uUH8sWrzh3sjex9bk/liw/PXbScO/e8sf0vcvtikiJ9aGNF3ZH9h7/Z1/hDpMBBlEIAYP+hsYtnLo7sH7HwPunHTF8b1dXT75+7ZDu33LW1jT0vPkvviPFDCga6LtCHdhXPXwwOHAgqRQPv+M68aNxY233oJW4fvaf8/qtvFhTlnFz44IPTX16p7nnp58/uuhkZuXUfeJnbbWvqN7sO712/vmpRAvfNBc3dyb0i7ir97v1zl2znzh1v16EXR0tn31cu3XBcvLbr8E+efYbZpLOxtt7cmRH72mtj2sLi7dFdQbW4cukb54ZpfVPd2P/8ywd/FKEuKH2pXv12dCQYCarF5YvfvfruL/qDEwCgsvzx5W+f2eGtBxvV4u8WLu4raJ/+7L8CVFdPd+SrmKAYIJVvnjPujYxubAS16yvnHf7dv3s2dkqyJwkA7NgX0dxoJTqh9aeg4OYX+TPmvl9mX6bjmtwqf/rTn/7pn/7pN7/5zZZLDrPQZch1m8PgY9fFg1ZDOQUWpfX6iWTwGsB2pcR1cfR6uW2w5dp83w/D0MeuE9G1YWozszSTtcLQx7Gnbqq3Hsimp5N2Y/UOdB7r13ynPXpP7zlvc+UR7DouaZyNhzVzGJItOEW3VATHFoz3tCE9wW8qm2AXR6ius6W6i9Qr3k5HmkQ3M7Tr+mS7iuzxw01d18eu4xK/UZL4YRi6qiQW7HYlvqNn2I4ljZvIjVteuIX0sGlnI1U3lDM3VdIwqh91rENg4jrOYHF0CXEFpytCBxEdFBFSNfOUE5WnIuqNFnLoGNw8Bd0f2163ORKG4abj4p07d1566aU//vGP2xmOt0jl9GHOLvzHV0cfQVtPCsW39mZA/7dhJvcTEp4ktuG6wcobnJn7/z7tKBKsHuf1zL98PvvgBfwesvL62AJv/8upJ+sp2BNHfV+Ff/3Xf91qwSfq22NBtbSim9i3jeVi5fvxseL7xqsWV3SbYFtbKVW/H9+qTEgA2LbrpsSFPCm8s9Qo41WLizkV5fPJgAcAXmV1SXd819STdPCweKLu84JaxWm+mkQx09+TD1XfH0Gt7DSfw9Ns71fHEhKeWO7Ldb1KybJd7ANFt79/l+BVy25jKSCi2f4v5SW02PZ93hM15iUkJCQkJGzOD2NuMyEhISEh4SEy7Dvpf/VXf3Xw4MGHKkpCQkJCQsIw/Od//ucvf/nLbRQcam4TAG7fvr2N2hMSEhISEh4SP/rRj7ZaZNgxLyEhISEh4ftO8jwvISEhIeFpIRnzEhISEhKeFpIxLyEhISHhaSEZ8xISEhISnhaSMS8hISEh4WkhGfMSEhISEp4WkjEvISEhIeFpIRnzEhISEhKeFpIxLyEhISHhaSEZ8xISEhISnhaSMS8hISEh4WkhGfMSEhISEp4WkjEvISEhIeFpIRnzEhISEhKeFpIxLyEhISHhaSEZ8xISEhISnhaSMS8hISEh4WkhGfMSEhISEp4WkjEvISEhIeFpIRnzEhISEhKeFpIxLyEhISHhaSEZ8xISEhISnhaSMS8hISEh4WkhGfMSEhISEp4WkjEvISEhIeFpIRnzEhISEhKeFpIxLyEhISHhaSEZ8xISEhISnhaSMS8hISEh4WkhGfMSEhISEp4WkjEvISEhIeFpIRnzEhISEhKeFnbEH6pVSi6JPUqxM1PjEX8PKqua6RCflU7OTW7h2IPHqxQt148+RnNz0xMPXYJIHoYSqsVlw8GEEnPzU6kHVRstnjo69QCEe2R4pUWVSCfnhjdsUF5WXP7k0c3tUF05azHZ+en7124ntfKK5QIAIIZvO2RQKZp1x/V9ijs68/BD5aHy5Dv8kATVVc14yOnLKy1pRDyxBR9+UDza5Pw4ib/Pq6hpKa/ZLia+T2w5zfMZxSG+T7BrqTkpo1Yji6VolgVjoaC7cccKBS3iWDxeeXlxcXFpafH0W68feeNsyRu2IKIoMBckMS07iKJpmqYpCgGxtXw6o1a2IsKDZHtKGAzNsJQlL6h2zBC/NSiGQWZhQXWCB1Hbo6K6lJYKFtmCBmorGSln4M1LeMV3xKwWd/10H1A0y9JYy6VFPr1Y7fgzRfSFrGwDTVOb1RF4QwfE4+HJd/ghSVEsC2ZhQXMeZK2ldw6M7T2+2ow131Yy0unyow+9FM2yfkzi/oERxmHlczpp/sCKACCqrd9Eyxbs2KJOgaOzZvyxTMyxKHwzy4uK7YdhGIauzAMlaWSTMh2YWRrorNX9R6JlclsQ4cGzVSUMAVFFJG5FMwNxFR5Juv+Aanv4+HZBlArWVrrvKJKYM/DmJ2I9I2Y096Epw5ILSp5DiJedjr+6ijyU/olWUNyHJdoD44l3+GFxChydMR5kjcSUc4VOP/RtJS1mjUfdszAMQzvPxibuHw6x93kBoVkuavISAADGOQ7Fz3s+SHxCHFM1XQAAoBkaEcd277POcVFkcO1+Jfshgx63AFsE+4L6P07NxPprPzXCyfqnQ8wheZjO6/84P/kQp9AQt6AtcHY+c3bLsw+BZVgPQ6SER8X47MlPT3X6YWr6xFdaFuHv1SzL94n453mMIAyY1mV4AQCCasmwXJ9ieGGmPykE1bLlEIrlpicHJCOvWrIsl1CsODcdcdr40a/+/T+aPxzLAVZKs80GgiCV2kouKi+eJSdOzsK4IHIIAq9WnwrzgZqcSDV/+oiaHE/VO1AybZcAI4gzEykA8KplxyU+zc1OQaVouUBz/PREqvHssPWr80TGL1v2dpTgVYqWQ3zEcCz41HTkw1MAr1q2XZ9mObr3SJ/wveUcTAhi56ahUrQxYrmZCAGDasl0CMU2zdvRL1KyXIqbbchVK69aDgGaE2Y7JfWqRcsmPqI5FhE03XhkFdTKluVgoHlxtuE2QbVk2thHFMtSPkxPR7qeVy3ZDqE4YZpyi7qFaXF+dgIAwPN9bC2vtFoPahXHxRixc9NUrWzamGL47sfPng/E0pedhsIbBYARZii3aBGm5c8B8YmjLzs9avQqRdPGnf0NamXTdn2fYjna95npLT1nSk2dUgs6l8+cFv/nqeiHqEG1bNqOT7F808nAqyzncporZSpVQIianGj2sM+dvFq1e9aXmoxxx6BWsWxMcfz0RKpWrVKTk6mG1QnFzk1PQOBVnWYQtNrr08ZmPAKHb7g4sHMzE10OPwFBrUoAQTPWA69KfAQAiJoYjzRbo1WO26wjUY4EA7yxw1Nbw15QLVkuJm6JanckMugi4igm4jr6MUxe8ioly/Xb6awtJQtly/FZvhELQbVoWBgolhemu6MjypRbNnqHNmlStmwMDDc71dmlwVkuhuFuB3vnNsMwDImRz8g2CUPfVdO8pDqtqRinwFF8pqCaLiGuKafFjNY62DXLQcx8Y0qKWHlRKNgDZnN818gLfFrtrAkhQRk8O2VmaaAzuoux69haVui8c8eWJmd5CihBcfwwdDWRRqyYkw03DEPflhtzX74jS0LOJGHoO4aS4RCbVTRFtzB29QzHF0xTU3QbY1dLs435Kd8xlCxPUXymIGum49h6TuC3ogRXzeZ0XO+2luZzPZOzdYXYajad02xMsKPLOZFpT/VECd+Na6p5gQYuXZBVw3YcoyDykmI3z8MKj8SCpmiWi7GZ59mMQZr94ig2KyuKrmYYJKokDH2rkCmYJAxDbGQFsWA1uon1XFatzwliI8uljbpq1HR9qtB3tbSQ0XEY+mY+K9dtT6w8L6kR8zrEzAtSwXSxo2cFLqO5WM/lDRKGrp4V04rt11uXVCcMQ2ypeZFGYkFXVNPB2JYFRtJwu6pehRNbl9Ms4nOKohqKRFEZw49VY1SLttxQQeg7sigUnP4exGHJct28jswjxDWCoGtuk5h5KaNY2A99bMrptGz5Yei7pqZmOcSkZU3TNMMhcb0LnQLPZxXDtCzbMvI8RbeV0YHvallByGqW41iaLOtaVpLdsOX2VN2AxNblDItac2BR2ujjcTi8a6o5nqq7aCMiUWPC3jVVOc0ioCXNrSueorh0XjEjtEIsOZPO6w4m2NYKGYGmWnObQzrSIG/ElpoXaCRpfmxHYoIuIo6iI65Tg5vkJTvP0mm5kc70DMvl67GMLa0gMUjMa4qmFwTE5OwwDLGWzaqOH4bEliU+ozem2KNNuS2jN7WZ11TVsDF2VIkVWo8ANs9y0dzHmGdmKOAawW3nWSpttFM62znV7hsZms01MmGH9xM9TbP55mNBX5doQY0ewXzXUBU5n8lkC0brwYrvaIWCvsmzDDNLAyXkVFVVlUKGZ/seKhAzyzIZg4Shq+Wbzw1D38wydKbVITPLdPa06QphaGZpims92TTSFNfKdk6eRR0ac2UeDa0ErIh8O222kmKX3EaGaZerXwE0dB4vfBdYERAnt/RHNImiM43HCFjhUetHw7rtflFs3gpD3zUNm9QPA9NwWFfmm7329TTX7HAYOrJs1MXseCDrFDgma4Vmlku3nh1jVY54StPRvdDOs5TUON9VBIpvdQIrAp2uDxW+JqF2aseK0BQr1uvMLE3xshOGxDFNx49TY2SLToEXW77rG/JWHrF1mNeRBYS4vO13jXlE644Mt8AzDbl8TURtYWJ7ZxUKZr0yrEk0k4l6WORbOZYS2oJbebaj6i4XCK0s0xjzYvXfzWNy+A5vbJToeEiNNYnhcpYf+raS77hi7wKrIt2pYCvHNMe8oR0pHOCNjV+NMS+2I31BFxlHkRHXy6C8ZOfZ9o/QzNJMaxzydQlRkobDkNiG6fphSDQRtWoyM81zI025XaOHYWhmKEpQnLYUDXMMmeUiGPCuwmbMKg72JyaCWsV2HAw+wT5A6/aSQq3b1BQvcG5OsT6dme0s7xmqThgZKpX6UwxEU47pwLGIRyypybljJ+bgRG3pCMOZsv3PJyYBUlPzp04NIyhi08eOzQDAMQ5ON2Z4glrNn5gYBxiflbWsIElvpUUpd6q5Ft1SdZfJUG5TNIp2LDuA+nyVz/Jc4zyEEHDcNLR++e1lgBQARbWUMJnO8Pn8kEqYyAs+xx82JVEUJFE6ebJv+sHTZc0XjOnWHyiq9QxuoPDddJQalzJCJq0Y8tx8vTVWaD7PRRTyfT9oWJcCn+U5gNTkbH1R8/SChfNoIvAqtu24ABgTgHFIcSKdEVhbkkRRFKWTJ6cAyqrq0AKFKxUMAOBTNLGtakFkzTT7kihJoihI6ZPz/ZL6xAfUeMyIKOT79afJNUO1EJP1m+qjaLAtB47W9ULz3ETTMgC+7wOMD/Q6xHFTADA1OwsAxUg11khUi4zEuwL3vCaKoihK0skT23v6N3VSlXUul1lIW9nWH2uaYiAu3w6LSZ4lBcVQ5o72T1lH904QRSoFAJWz6ayTNuy5iFlsU1ZdXk63JpU5nkNmnKAIwAfYTP9RPFKHR4OeS0/Mq6rJp9OQFqT8yeip6Komm5RYaM+0o1aVwztSgyhvrP9snRIfuT1BVy5ExVFK6o+4fjbJS5zQkdx8v5nOUu0eTM/NAgCk5nVX8CfGg2rZdhwCpB6TE0K/Kbdr9IYcFMs1epJCCJF6it1Cluvhft5JJ7acff24bBKK5TgK4pcNIwoBwW7PmmpCsI86vJLJ6VaB7ysc1Gqtp7kTgsgRo1AobVNiLp1uzMjbemtNbmo6J0uuZkB7XXiACQHUDioqo9qK1NQmAtShWDQwsNpQNDW8EqZOWbaaZXxbzYsce2Sxb20DxhgQilzIPlj4eFIUTfkubi1NQnErWRBFUV3V+Y6WSx9f0DHF8hwNjXwIk8d0W89z4OgLaY556XQ5AIK7uosE2dIzk+NHv7LNgkC5upwRGO6dYv/q++lsTnB0wwMIKoYBmZw0DgCAXdKlPm7BNPLtvBhhmoFeR1FtjcaoMbrF1MynliWnGWIpOZFl31jZ7gqpyRNqgXfldN5qhRN2uyVuXFu5OKJ4TO8mp6fHISi9l17w81phJgVB3wIJ4mIf0XQ77aSGcetN9D+8hI/D4WF8tlDgLdVCTNxDSNfBQEW/LzK0I7XYNFEM6kh30EXHUVTEbUpPXupObj2ndvcqcM1C5vW3FNunOY5tHYow5XaN3upf908f7sPoA99J34Tye0Laytl/ODEJADUTAACCagVPTvWtPyCYAMOxPY5FMyztY8RMtR9cBn2xWDnNs3mSs/7t0xmAxsUdIdtdMpqabDzqrVgulWk2WtZMXlNJJp3jrc9nxwEgxbIMMhE11e5Lv2hbBLsYGH44JdRWlx1h/uTnR08CeKX3xIxcOvH5THc5Jk4P2xXewy6hWKZvbUAEXT5YOSuKqmT9y6kpAAjs+h9rlcoYtv/Azp/4dO4EQFA5K4oFI1fgWGQhamqqdQUaBAGUl5fR/LFPZo4BBNXltFDQ87O9t/s+kgo50JeWAHGqdbJhR4ZjkAKoo76IdN7FUF4HEKtGFNlidWWZHJ0/9fn8KYDa6nEhr1aOxqxF2YzJE2pB47LZQkat3+sxLIO6TB0Q4iOm11Cri0vciXRs77xiLq3SsnVqOgVQUVV84kTXhAPFMpTvYq958zGQ+l03PDj9PxKH93tf3vRKmpvRZSUtvcdbn0R9b4DhGDAxAehfUzW0Iw3P4I50Bh0TGUdBcdnojbiv+icDuonOS5F0hX2wmhVzvux8dXQcAMr1v3kV94+uvdZrSnmbRh/AfaTobd/nVS3TpXm+3mDgOBgAfGJZzReZ3fbLADVDd/h8rrc3qbl8jrM1o33esqz1XrxSNM1KueZKzcC2HKDENA8A4BVPHz++uJ23N2srCzo0rFxbWTDo7PzMUUWVrExmuS7NdDYvuJreek3YW5XVyDdRfRhwfwu4pYSgLCvDK8F3VFlvXHmNz0g8Q/VeIo5LuQxt6aVm7wPHbqluaOEBsNMqVVVli83mxfr07YBOke4uB7ZpI45vBJ/ruvU/WnYNa3JTiNSUJLEUlZrM5CVf11pGC0qKYgbYkNVy48RJUeKoiOt5bBkO8JIkSRLfXiI8Li1kaVNrvdELlSW5rcso0wzldQAQp8boFomlKMXGnyaENE9TFAAE5cXjx09H3LV2EhDc81r85AlVFqGV38fT+Qxldpja0iymYagURTXmnzwCFIrtXW0lk9Z5RT02CQBQNW3Sq+HUbC7H2krrSxNByeh84ZuiKQC/IULFskldt5voP4JH6vCIopHf9IKabeMOlwgqSwsWl52bOaYqnJ7OrkaZaTKdl4hhtG5APMfBjSqGd6QmcTHV/nt85PYEXXQc+RERF9ni5nmpT+CgtwOOaWFG4OtZ1HNd4oMP2LJuR5hyu0YfJNIWslwP/2VhYWHQca+0dPbL1a9V7fKte/jOnbW1yvXbo89x+xC1f/+aoRre/v0jt6+Z3z4rfHdRteDgC+LMwZ1r166A+MKdKze9kfW7Vz47Y/Hnzp+YQuCVlj4snL9su3htY/fz/MHJl3/1k9q5haXqxmhw99qKufOXJ2Z6YnEn95M9ZcP5dvfuXRt3i+9nz0FGu/DfphAA1IofL6iY+/Uvn90ZKXp19ezp3ym66d779t7a3Wr5+rVrX3/9+99/cfbvcx9ZzNsf/Wpj+e/feevtj0xf+PWvOWrj7pUL5y+oF6/V1ncdfnlm9rWfj2oLZ2+uj23Urq9c9l9582f0emnpwzMXzBu37qyN7Dl84O7yx2e0q7fu4Nro3uf3VL/4UNav3rhzzxvZ/+IL+9Datc+UG0CvB97I2s0v3y/cSV9Qh1UClL5Ur347OhKMBNXi8sXvXn33Fwd7OrmD+flr+y9/dKa8sXv0bun3+tVbN0zTcr29z73C/oiLEL7vjn79+pJsf7cvWF8fCW5//cH7V185d+G/z4xDUF7+oHDevOHcubex+9BzwdcffnThsnML42APM3rt08KFy7brrq2vjx16gdkJsGP/gdGrFy7e3XNgtHb9yq19InX5vHmH5qSffWeeM+6NjG5sBLXrK+cd/t2/e5ZC7GtH9hsfnSmuj4x65dWL+IU3fzF5Z/Uz/dbI6MbGxtrN1fNXmezbM33i7h5dfVN8Wz6vnCsUPvjw7O+vr+196RWW2rFP/NXhUmHh67XRsfXK6sqNfb/+2+md1ZXT75+7ZDt37ni7Dr04Wjr7vnLphuPitV2Hf/Ls1Gy/woPi4gey9s0N1615we7nuH0IAKhINUa2+O2VpQs3vh0bGdlYu13ULu1Mv/0zBsF66bO8fIP99a9fiPmaSnXl9HvvFlT9Uqm6vvu5lw82T6O4n++9+Q2SXmV3AMAO5tXXDhXPyNe90fXqlS/OXNyZv/DJj+vJZv+hsYtnLo7sH7HwPunHDIJnItwpWP6/Xznz7SvpZ+H29VLxy49zZ+4I+cwLPR5Fv/z6S2vnFr4M9u4JKlcMF7uX7rBvv8lTAADUgT0VVbtz4NBYtbhyA3bc0C59Uxs98OKPf/yLCP33ppDH5fBo/96apnyz97k9d0ur3/jfuZd0yx3Zc3C0+P/+JpuX7Z3iryV2Z3B79bxyQb10sxbseZ5nutpF7GuvjWkLi7dHdwXV4sqlb5wbpvVNdWP/8y8f/FGUqiMcaZA3jl753YJ66Ybj4rEDL77A/G8RHRm7vvRhb9BBZByhmyv9Edfrc4PyUn9yc+vJrfLZ++cu2c4td21tY8+Lz9I7AOhDe25fVC6PHjoQVIpXd/AvY+2CveNZfsa/+lW/KaPccnOj14qLH8gXrzp3sDey97k9lS8+PHfRcu7c88b2v8j99cwwWS6KoVa6xONj1yXNxY69S586D25WCR50HnEtU9cNyxl41sNgU9FicQosSuvbVILv+2EYEtdxNivrk0Yxgl1Muk8eLDxWBCSouF3DfeGTTkfw2//42HH66/eJ6+Lm4rHmiW7EiXUcWZSUjqV1xFYlVuxc5UuGVHOHCMOaNubErhbrPSCu4+CINZEPCIIjBe5UffuP23Zcgl1M6ksNu5aEdliobj2/p9T96P8hOrxPXKfuawS7mPRlqS0J2+j5FsJsWwzvm51xNDDimmw1L21Cw1varQ825TaNPogtq38kDMNhhsaErVI5fZizC//x1dHHLUgctcWfMlrG/UPUQtknjNrSEQnLXW9re8uvC3bhXz75Xn0F+/tEsPw6JQvO/zz5w/7g8FPHE5+XHjrJXkIPg6BaWtFN7NvGcrHyRH4CuFZe1Q3Xdw19tfzkf4VtIr2QthfeWy7XAgAIvMrq2ZzOFnLJgPeQ8CqrmuH4rvm9cI+EIXny89KjILnPexgEtYrTXJhAMQO/OvaY8Cpl94kWMAKvUjRtl/iIYlh+9nHtBfVU4FXLzX3EEBP3GbCE7xtPfl56FCRjXkJCQkLC00Iyt5mQkJCQ8LSQjHkJCQkJCU8LyZiXkJCQkPC0kIx5D4CgvHx2pTLUB2FqxaWzi0tnhz09oYegsrq0ePbs2dXq5uduVtXwVgOoFpcXF8+eXtnypq6NtqoPTOxuaquLi6WtrMALystnVx60FI+fWml5afHs2aUt6aJJdeXs8na+5xRBUF1ZXCwmS12fZB7NmOd5j2dh7INqd9N6XC0r5Tb5yBSAt/qWKKN0Ghn5TCFue+tg9fjesQPvdHxGO/C8J36ADB6RhVM0y4JRKGjuA6hsOKsBAADFsJQlL6j29iyRolgWzMKCNtzXkYYkKJ+WMrK9ha/P1lYyUs7AA74sN7C9HkesnH1pbPeRpUeW4XvCsDNSKIalHTWvNL+XVls6snvspWH2nfeK74hZzd2mSnpxlHw2K+VWH3TAPmpVP3weVcbo55GMeVVNMR9H1n5Q7W5WT2r6lGktQCG3PNAnA1PRaEmcGJ/XXUeZjTkrxaZz2VRUDvcAACAASURBVJzEtv/iqGrcAPmk4OmK9mhuHsYnZwRhmO9gb8qQVms2Oy0IzPYbG5+cEXh6uB04hsQr5vN2xrA/j9gZKJrKYlahFfufT2zzvUZT7f6iISNkc9kM/6heGukNw85ISU1MzwlsW78Un8nmsptbrLaSK5AFyzw1s73dn3qZXjAdRxYHfa92WzxiVT98Hl3G6OM+9s8bmppp2CjzCBp6SO0OU09qcv5znSs6HkzEZiCf+I2dq1ITA5x3cu7Up3Mdv6um4XAntyTxoyawDAv6t4F64hnGak8qAUYZ7avpLchdI5ysn5jcdnIvGQbOdDpiavrYJwM3Dnqg9Idhb6R0kJqa/+STzev0MJ3X/3GIPdeGJjUx5SM7dnOibVf7SFX98HmcGWPgN6a9SrF4rXyzGoyN1moj9DP1y6igVrl25Uq5uj6yZ1/jT161XC5Xbnu7GTqoloqlm2uj+/dROwAAvPLSm1n53rPST/cGXjBG7ewdZRtlg93MLq987VrFG91Nd31g26sUV6+UKmuje5ln2n8PauUr10o3b9ZGxoK7tV30Mz31xrYbVMtXisWbtY3de+n6H4Na5ebNm5XbwW7mGdT4Vb4d7GGeQUPI36i0+PXqN/d2PEPvp2POqFVvXL1w3jn4q5/sWR8Zo9CORqlS5e7G7napDlUigKBW+t2v39S+419/afd6fPMQVMtXVlev3fZ2H2Co1iletVQsXrtZG92995l6wXbtu73yteu1MYYerff37sj+fSO3i8XbI03LQVAtXSleu15Z33NgX0e7vW15leW3Mx859Ks/PTSyHoxQO1FH86vXrt/d2H+weYezmdUAAIIg2LFj0LXY2rVF9Z74rsR0Kr9Hjd10+FitdK28vptp+XLZsl3XXdvVqbegVr52rVwb3b9v7G7p65Ur1d3cQQrWy0uy80I+/WzbkyL10992qVwNdu+Bb86r9155VzrYaZ4e/UQUr5SK129v7GGeCSqrK1/f3DjA0ggAgrW77g2rVGlK3nDbtbGD9GitfOVaeW2jFZ6Nmtbu3rKsdnPtErvXy9euV8f2NnoRpc+guvr3b75/FQlHnh9b90bGKLQjaDsOtVlwle+O7N83tla+dq1c3djFPBP1VfithmF3pABA5fenrzJvv/nCzk6D11XgVYvFYvlm1RsbXasGNL2z2WTVuWH1WnCwXQbkOgAAqK6sfPvy37Q/ltxbW4doQaVYvF5d31XXVeDV1rz19fX1tfUNaicC8Go1b319fX1j56jXo+roOIoPhFgvqpWvXSm2vSiir5XKzbWxg/R6pZ5J9nXl5pgWoweOjsMxGaMuTrm6Pran2U5dXTe9sYP0Tgi86s0uuw6TT/qJ/RKnq2ZzOg7DMPRdLc3XN373HTUj5XSHhCFxtKyU1d0wDEPXVHMCRaVlXdFMF2Mzz7MZg4QhcQxNTjOIy6qapmmm2//RUcdQsjxF8ZmCrJmOY+s5gc9oze8JO0omp2M/DImZF4Wc2ficqS1nCvX/+44sCn2bwse0S8y8lFEs7Ic+NuV0Wrb8MAyJrcsSA8297S2tIDFQ38l+c/nDMMRaNqs6fhgSW5b4jO5GnBO6lqZk2HpFuo1jS7mmkuUpOmOGYRhiW9cKIk0JOU3TNM3CUTUTqyDwGc0hjf5pOAzDEOtZKavZJAx918hLGdXxm4ai6XRBVXQ9xyFedomty2kW8TlFUQ1FoqiM4Yehb8uSmDNwGPqOLLUU39+W75qamuUQk5Y1TdMMhzQ1LUoFi4QhsfKiULD9IawWhqFvpCmgs2ZUR5s4Ba6hnyGV7zuGkuUoNisriq5mGCSqJAx9R02LGc31Q9/V0kKm4ey2LIo5w8WumRc5SXGIWchqbhiGWBWQpDU/ox2tn17LyJl0XncwwbZWyAg0lTGah6L00wvWs0JasTG21TTP5wzsqtmCFS05ttS8SCOxoCuq6WBsywIjaXhAc3VHR2JeUzS9ICAmZ8fqE1ualuMRLRY0TdN0m4RhSGy9IDGIV3CrjZjgSrOIz2uqatgYO6rECnKE5bcchl2REoZhqKephjC+YyhpFtULh1jPZdV65GIjy6WNARbc3C6xua5hM8dpu0JEbb5jKBkOsVlFU3QLY1fPsFzeatkDEJ/VHb/uPSJNCznVJj2qjoyj2EDYihf19zUv0MClC7Jq2I5jFEReUuxGB+MyWNTA0UFMxvBtOZ0umK4f+thSMlLeJA1LZjhE1Y1GbF3OsKiZH4bIJ1HEjnlYEfl2JZYsW2EY2nmOybb74BtppvnpdVfmEdOyvZ1nG2LWj4haVEw3cfJsPQ21C7A5y6//F6i0Uf9ed/tD706Bb39U3zdkJSrT9bVLNIkWOr7F7xZ4JlOvOzQyFNO2jp6mGvEyhPxEE1FLfDNDM31Wbp6oikjUyKalunJ6aOfZjl99+GaGoZu9wIqAqIzhh64i0Gm9LbOVY9l8PX6xIqB6t7FlNEZRM0tTvOyEIXFM0/FD38y2Kw1DM8twBSeurTD0NbH7E/xET9NtBfp6Xe9DWQ2bSkG1Bu5N0KmfoZXv5FmKzVth6LumYZMwdAocJTWtETqFumdjVWh1BSs8EpSWv3SMeTH66emJKtKdWrFyTHPMi9ZPL1aWoZqNmBm6dSUQLXk9QOjWOIcVoamY2OZ8XUKUpOEwJLZhuv5AfRqZjkoa6FJzmBkUXGaGogTFaTXfu19Dmy2GYXektMe8hvbqhX09zdWzSRiGoSPLRhhnweHsMiDXdRFbm51nqfo4V2+7rWWsClTblRxFbg+mbVVHxlGs4bbqRT1gRUBc21xEkyi63vWYFiMHjl76MobfE0NYFVuu3K1gK8s0+jBUPokgdg3LhCD4C/zhI8ffObtUrLAnT84AlBTVYfn26ooUK9C2olQA6hvfMwLXmMdGFPJ9f+j1IxQ0HnQBAMBkOsO7qmIBwORJAzvqXMqrloum6yPsYgAARuDdLPf8kePvnV0uYuHkiWG+/V7TFANxbPtJ2iTPEl0xAgAA1LUJ8JbWGozP666rHRsPquXSqkOA4GEW0m2vVB+BoeiYl4T6E4mJE38g+B/nUhVNsWieaz+m4Hi2oVEAAGB4LgUwMTM309IG4rgpgPGp2dmpFFiq7jI05VbqIIp2LDuIbitCKM9QdcIw0CjuIppyTGc4q03Mnjh1bGboxyHDq5ECn+U5gNTk7Nz0OJRV1aFpCjdk9Cma2Fa1vpc2atgfoZituaP1031OVZNNShDafUSoNekbrZ9eiE8QoFRTFJ/UAypG8jo0z020hIfGdrKxzaVaJcan52YnU1t3y2aXBgYXAKJYrrFwJoUQInErR+8jDGNJcSKtCuxP33jn9NJqmT55cg5iLPi/hrPLkLluoJV9thWeCDW2/QWACSknuqpSX7RdMoEX2pHQ0kZkHMUabjte1APVns8clzIC0RTDi20xauDYlMBQNNJyEQCY4DjKUPSo1WWD9TAE8es2p05ZtpplfFvNixx7ZLECgYtJR+RCPYwxdtvSPBgvpWgKCHY9APBcYyH9xjuaAwzHtWbXUzOfWpacZoil5ESWfWNlmDW82MV+l/SAEPIbo+j9ELhmIfP6W4rt0xzHxmwP+oBK9UIw9hGF2iNPKgUA2HH9rp6mEALi4ubqYIrua4+i2n8KMCGA2o5OZVRbkVLRbUUJRbo1zeR0q8Bvz2qbMbwaEdW5bTTBXTIiQbb0zCRMZvIS0fUqANQMnUj5TMQaxxj9dJ/kOjhKzwCx+ulFyOcZSysGAEFJs5l8vn61ESN582d/CA5urtPwsG233DS4esR60OsaBzF5TLf1PAeOvpDmmJdOl4MYC/7HcHYBgGFy3UC1t4ahHsbFbNrXlNUAgqINQuRq0ug4ijPctrwonhRFU76LSXyL/QPH5mDskm7XRRQC1xmYm7ebT2Kf+dVWlx1h/uTnR08CeKX3xIxcOpFhaLAJAWhezhFMgGGZ4ZoCqC0vWtKJo5uuksIuBoZnx6G2nBEWaN35dDYFAI0LF69S+aNjbxydP/X5/CmA2upxIa9Wjp6KSE5d7Qosg7ou2wNCfMQw/QvfAxK91jhS/mA1K+Z82fnq6DgAlOt/8yquPzU1YHHmdkpVlhbxsRPd7zhQLEP5GHsArQvCIACGY5DV+cqRRwjQ7LCryVIsyyATUVNTrSAIggAgsq3ugW91cYk7kWZY2seImZoa7yxfXVkmW7DaMGxNjZ0xxXAsshA1NdUSIAgCACC+sLDAWEtLJqIL5leRWwrE6acLhmPAxASgP5HQ0frpA1MZJUO0pSWg0ro5M5EaKHksg5vrSt3D6bP0/7f3/qFxG+vi95hvzCqQYIW3wQo3wTKtscJNrxVuitX3pFjl9GCVb0sUTg/Zcg9kwy1kDxzIFgrZw21hCzmcDW8OVSClCuTwlSGhMvjwypBwZUi5WkhBCwlXCw5fLSR8Z7kJzL7UMAs1dwQ1ev/Y37vSeu04TVLP5y97V3rmmWeeZ0ajnZlnYYE9e7ar5fihg2t4thSGA8QUFm3hzPmv5s8DEJSvKkreznwb3YJDtstwDNvK3STm0klW1q0cQawSvVo7Ko4yMK7h+B3yogY1BDEr8Fysq/wX9NZ6B45vBsz1Gj0GzxKMg/qrBwAaQ4sY4T4Ek4bPbrc/iZ3nEd/QrMa8YGxWlXiWAbOZrAQtuzWcVhwbK40n4fgdKSzLAoIxAAATwMZ5KkJNsUFJ030pm5kFwLcdIspS/Z4qhAQQEPiu+9jV9UKjhcblpMSxEQ+kveWOJbMp1rGKzZYNXNPl01klAUB95tOsQeC53vD6+46LeFmq+3UNQkwAAch1YUQlyTbuYrmGNwAMmL5qJuYyGcHVjdZbicqCZlUnkjmVOHbrw5ptNSw6HDPprAxNq33/imb4MWUBABIs23g9U8OAZUBiPpsRPbPtKNVFzUQAD9Nq5cU/fPzp0AeFbMH4uHtyMZHKqsQyW8dvBEVddwIAsGe7WFBUVVXlngGvfXu0fbqZSGZVbNutp9ya76OGiBj79EKQa/uMpKpqUhHHW44Xp3mvki3iiwt6bxhkT5Zl6mEQtHqd+t0EgMHB1VOt/o9abD8MG5IjuiGCTK3ZVIlpVRVYNhHdgkO2y4C+rpNhpfUaZCadFpxcyuWVib7LCAAgMo7iG25bXtQNas+3KobmCumskogt8XHEwNFvm/4eIyt4ltPapl6yHJDMquMANN5KNV8el10PNyw2VH8SQexehVrxlnHvx9GRYCSoFBaXfvrgs9++sY89cfrddePSracjI2ulO3+9tvretRtnX98TlBa/yN9wVv0nP2wcmHozuPPlpZt3/UcIBQffPPnG+OSRNePavf2Hat6Pgioe7p9arn3/tb4KuPWgNrL28Nbn+SfJm8b5aQaAQ5MHPNO4v//oofUHKy4ri/dvmnCf+N4/Ifvb1R/3joxsrD0umLf3Jf/4a77PskxvuXv4Dz6cKlzRHtRG1yvf/e3K0r7szb/8qt5o3NT+wo2lYHIyKBdstOcnZ8leXTsw9bZ4mOmT010MN3Xw8ZJ+d3RqMigX7u2RTiLzprfnmKSIXSqVly9/rt9eXYVP1qojUyfnTkTf9X8HhXz+xl0PorX9R98VuT2AnTxYvqHfP3jw6epP0qljr/VWkzt5+u21G9m/Pd1/IKgUlu9xH/3rDLtP+PD9/UuXvi4Ho7WH3319xREuGRdmmKC8+EVOv7v66BGq1jamJIEFoFq4/oVm3l+FsFoLDrwpHmYAAKz44W9GzdzVh+t7N6oPlu+S9z75NbcnuiwAwJGpvUtXlkaOjLjosPorngGvnfzdO9VruYXKxmjw9PtlZ99H52fZ6ncLNzdrteDh37JXnMMfpU9GzxBqxYUvG/bZOHBc+pU4jPFrxYUv8zfvehCura/vnTrB7wMAMMKH7x+xL10prI+M1korS+jEJ7+dYMCBg6XPP/gkr+vXtPwXX1y+9V3l4Nu/Ofba48XLOeP2qg9RcGDqpPB6tH26/U/48MO9Zu7649H9QaWwfPu+v+q49ysbR46ffOP1KPv0OfDBYDH50WfXdF3L57+4fP1OKZh65yS/L1Lz6vLlz6/d9vwnT2r7p94aLV79XL+96kO0tv/oO8em5yKKq6zU73gE19Y2Dr51jNsz2JkPHz1QuGJUJ/eu+q99MP/GvsrK5S+v3Xb9Rz+MHjkuTc9EB1e1cP0Lbeme/wTVRg69ebD8ty+vLbn+kx9qe4+8Vfe17mAaOgzX256w/+i7B0p//dO12/d9+MPa/sl3Dpb/9sUV012FqHbozfd+unfN/mFkdGMjqD5YvuFLn/3rMTbGwyP9tttBB/Z13ddGSRspLnx55aaz+ujJ2sjBo5NPF/98xbz3CKLq6KHjdccE7NH9hWtPktq/vNH0qG5T77vfH0cTsQ03fXgLXtQ/PK0/WNC8nw4H6+sjweM7X3x+771rN/9tdizeVWbJvW/7Bo4+sX09Bnfy9PGKnl9+OrLxtPj3ywZO3dBO/cMeAABgJw+WDfPJ5NTeSmF5FexZNW/fr45OvsU/Wtq0P4kkdnULISQMQwx9H+LeRYsEQ9T34UAIgih2MZ6fF5ikFYYEwf6ywpBgCFFzjTipL5wj9c99P15qfLkYteT1XlyvLEGwp4ID9W/KxF06DsOwd8Vp3K1hVEOhKIsODUEwquCosgiOKr/r/qFbbatsz/iNGzBsNy00VKVzfTrxrZQgxS+CjrFP5DX1grrVG3A/cTNKykQdl7p5WUjaHcp1aj4Uw6gbhoPsiTcVMISrbsKzhGGkvLrfId+P0CzaJMMaakgFtiwNDwza+Djqa7hn9iKky4xsoK5OeGCJAweO7mrE9BiR2hAE/c4wqpcUbqc/eSlyxpYvHxW9/H9/e+pFK0LZ3QTLH4tO5n9/1fESOFg5J1mp//wm7qi450b58tsZzv73sx3vVytX300x5n+c/+WcQEV5zjyzF1Wvv8ubKfgfZ385TvfC8yoEleKy5SDi2YuF8os6dZRCAQCAhJLL4vynC8VKAAAAtUrhesZgstmffcADAEyn86KVubxcrgUAgKBaWr6cdZV88pfT91CeP8/mRdXSimVDAm1rpfTLOd76hc/zgmrZb+7WYfmZiVfu3EPKL41aueh6EBHAcoIkz4wPu0DwORBUS67rQ0wYlhfluchVpBTKYLbtRbVyCf7y+uYXPuZRKBQKhfIz8cLfbVIoFAqF8jNBxzwKhUKh7BbomEehUCiU3ULs2WNBecV0fEwE9cL8kGd3viiCyoppb1/VWmnZdDHLMoSwcnJ++zk1Xw0qhUXbR5hTLp7qO6dn0HcvMc/JV5/Rr7ZEZfmqy6fPzOyc89VKy5YLMRCT5+degrWeg9R5zqrWyoXOg/gYXpKA+6p0bjvMS+YVL4TYeV6CEwRg5/Mm/Bm12R4JVhCAk8+ZEUegb0b5+vuKBpTzZ8+cUTg3o+ZKO6/fi6f46eTeQ+dWAgAAYHmBdbSc4UccNMTyAutqOaM3R8BLznPy1Wfxqy1RK3yqpE041IlWQ8PwAo+tXN5qnBsVrJw7tHfy0+KOFjKY6sL7B/a+fbWed4UTeGhmNTvi9C2GE3hs5SK/2wEYludZbKYVJWNiluc55uXr3DojdKtspWV7vWI3Ep9XdmxiVpY58LzjfScYm5iVJY7ZhqoFLY+Tzqn6sx7LSxK/3QQHLzWCmklzQj15ydjEjCzzwI66rvGd9fNq9+w8J1/dvl9thepyJo9zrnNmZ98wJMam52SRNVr/C8lMWuzIBPb8YaVUOkNkHgAAEuPTc4rIRrpWYnx6Thbaqu4wifGJ6XFG4oEBZGW2vlL/ZevcOiN0q2ylZXu9YjcyVC71Xy4YIVZqDHNjsxf/19CnML9ajM1d+OpF7KumbE4NcVnrf00//zfqE/MXv5p/7qV0kpg+85e//KwlvrI8U4T+/C37SrOlMS+oFB0PYsDLSjMlBaiVC66PCcOLAiDsTPx+x1q54HiQsKI8PzPeEliwXQTYnq2/Q8sEtUrJg4QTxYhviq4LMSso8zPR9wfVCkQEYAQrFRYQjDFGmBHmZ9vpRaol10OMIM9yqGg7PiOflUDJRxgDYX52HIBapeQjjBlhfmYcBNWyDxECvDzLwoKLeXm28eQeZbe+evgQE06c40nJ9TAriL1bQINq2XU9zPCCNNu2SK1ScD1MGE4UGMzMzIwDEFRLjgcJYQWRI4SfmQZ1xepadkksuR5mBHF2wG7T+n5WBDhJmWtORCIKjaRaWnF9DLjWPtigVsGEAQAQwE6MJ0BQq2LS+i+yrKYKHiS8pAy/n/aZfHWAX9V1xAwvSk2ztRtvGpQLLgScKDXcucMnOFxyPQR4ca4rzVGACfatRb/bNyK8t69ZY0fJoFb2PAT4Lu0bSrLiXF1gUCk6HiIMKwgsATMzXF1TwklzPC66PmFbldhm3Tu/67J0rVJ0fcKL0vSA7f7PZIFnpVatEgAAIIDhxscSIKhWMQAAMOz4WHShfa4eS1Ap2i4kLC+1+oemm/T1I1E+09twE70tG1dulFc0qlsuOB7qVH5oU/c2U7smAii5PhGk2XHS7txw0YWs2FFKV7x31HwiAYJqyYe4+V8tUsj2XGLQYZx+XuRSjVTyxNNUJWOjMCS+psoZB4dhCI10xkJhGIYEmkkpE5UGPgzDEJopSck7iITEN1Jq3iVhGCIznTZ8EobY01QpZTUyuw8rE7taKpm1fISRZ+ZTMsemmvnjsZNV1LyLwxC7WUXuPDS4A+RaZlpkhKRumqZpmkZW4RjFbB6Y6mmKkrEhgk5WEVXdx04+bULoGBmJZRQDh2FIfFtPSwyjWiQMQ+xZWlJgpIyuG7ausmzKJjF266UuiGWlVF4zHd/3rIwspUyftL43UmrG8nEYYt9Mq+m6sZCVSRuQhGEYIjstJu0wDD0tla+XQXxNkfN+GCLXyMoco5pNcUiXGSGZ120fYegaaSWpt0yEDLl1JfGNpJIyIQkJNJNyykIxhUZVyc03FEF2WlbqTQ4dI6twgJOzNiRhGCInI3G8krV8EllWGBJfVyVVd3EYYk9Lqnrccc875qsD/Ip4WjKZdyAJCXL1lJp1ml6QEhkhrZu65SIErZQgZl0SdvhE1jQM20PIN1RB1vy2vAjfiPTeiGaNBNnZZCpv+xhD18gmJVbIeGEYhiF09LTENkxEnGxaqzc5drOSauAQe5aeEhhOTud1y/V910hJcqYZlNupO/FtPSkwQtZrynDSHCenNdOFGPl2vlH3Om6ab135TBaIM4wuAyAb7ejrdJgeGq0GhKTh1mtpqDwrpXUXRV0e6erRYDub0jwchgQaSUk1GhHeFaGDfCai4bpbNqbycV4RhtBqhj+y07Jq+OHQpo5qJuSaeZVnlKypm1ZeZviMR3xbT4uskNZ03TJSfL3zjIp35JpZhWNEDYZhvbOQOUbWUdjoIXuFbNMlhhzziJPmuVTrNG4nzYt5P0S60nHmvKtp0f0I1CRW0mDzVo6RNBiG2FSYxtgRhk6K4+u90JAykaFwLZlhGLoZvtk3YSvJtQONWConG5G+GoahpTZsGoZhiA25NeYhQ2aa8pEudVwVQk1q6R2Gfl5sjHmN2rGS5och9h3HJzF2i8TPCh1iQ6hJjJCph4+XFfl02w7ETvKSBkNiJcVMK8B8TbPD0M9LSqu2xNb0ZhXknjGv23gCn7LbFW9c6edFVjU7Ksqn3chCo/CyAmg0abfF/LzItlQkjqa5JK6sMPSyQutiYqlsp4V6zLczvjrAr0hP6yFD4dTGkfVeVmCbfX0YOummN4dhGDoplpWbYzWx1Kbpo/WM9t6YZu0zgiZxbSuGxEqyfKt36zCRkxaTVvMyZGiNW5w0x3Ucue9lBUaqd7bbrXvnSFaX365ww9Z+75XPZIFYtjLm1YtIcXy6WSto5M24PiTe1ftxUixo2tHLCmzb2t0RGuczMQ03uC4DvALqcrtrDpEuc0mLDGfq2G6WWCrDqiYKQ+zZTv3p2M8KrJB1w5BAx/ZwbLyHxFSaY15Y75HbPW+vkO26xJDvNl3DgnyKheV6CkyG5XzXCy7KMhGlo46qKLKqqBcuRM6ty6bhcYreeGM49w3E9dzaZywok/GxoFLyfB8DTDAAAIwPJbNiag6r5NvrjNtp7mu2YWFeA+WmrhzrOz4Y6lzwdvYlggloJatnGIDb6eGZwTmaGFGcBgBMz80BAAqRdgORU3AWAJZt1XYimZKyWd39anauqBu+kG//RJ0QZM7T9PKFtMKlZMFTVUVRFPXChWkAAlmCsnjcVBRFUVT1wvlEb82aanakcpxVRKzqtjZ/ptPYJcPwOZlF5TICAADCcthzKwm1v9AoZnIuyjLjQa3seT4EACFcz68+nUqLed2snL0wAQLHY5ULibiyADBMKGaVut0Tp/5fhHvSskfxLL46wK8CWzexYLarOy6KbFq3qmfqJ9QTQWouQWCYRkLMphBWEBv3JRiGwfXzZSP1/P94M8p7kzHN2k1R1zwhK7dqlmCZaGcVFcFJCm8rqqoospq8cKYljmHb6VhnUiqv6Ubpwl+E7de9B4Zpyx+XFS6tG6ULf5npuCImfoezwM6RmM8kGUWz89+eGgNlh0jxxzLHuno/c7qPyPh4UC17vo8AwYg0U4P3NFS0z8Q3XDwDvKJqGy7Dp0nT1iwHPNfn1SFMHd/NJgAAnCSOAwBm5pu/UbKACJIIQGJibn4CgFI+Mt5nJyJ6qjY9QuL6us0Ybk96gDDu7CXZlOHpagJMX3Q9I80Tz8gqovD+9XLUzQiieqrbBs1eK4BOPnX6D7pHOFEUWt8PJRP63TI7wBiRzlDnM5abl4aqZgcTqayKLasCAKjaFlYb2eCHgO3I1htnt6HkcCzACNZAABEGXZ0XwzAAIQgmzlqelRWBb+WSIv/25VIAErNfua6W5LGrZxRB+Hh5qOPQGZYhK3c0rAAAIABJREFUEOHuDzHqMiQja66VmogqNBLim5nkuZyFWEESOdBOBz2ezMi+rpcAqNk+p0zHlxUgiLoG580HvGf01QF+hRDE3c87DMsA2EohzQAmXrueQCaxev53tPcO1ax95opl7NS3npOXWWhpKZkXPy1EJzRheY4giJ6x7vEwDFuX30lM/G7PsZ+FmUyatzWrCoKiA6S5ARWMdfV+sKelT5/THMwKosgOzBkf4TPDNlwng7wCQdxlazHn2NmZoUw9uJtl+1KWM2zH01Rc37IZ3UK26xLDzfMSgsAzDsNOT7fXdwQBqK4s+vKZC9+cugBArfgnJaUVz3/Tt/SRF3lgQwRA570J4KSVDNH8b0+NAQDqu+KCWhn+F/TWhpPpINwhswXHCxxBDD/d/i05CLa+7wUTOZfj3YUFh+HyzrexP0wTPMBvY+w2FAgiwEvCGEjwPAe89jwTAIww4AU+KCzawpnzX82fByAoX1WUvJ3JAwufOnPxmzMXAaiunJOzRvnUxc2G6wAjzAp8T2ZyXhQYl2Gnp1u3B0EAogr99lRfh1C+qiiG6v7nxWkAQODVP6yWy+z0dGJMySTTKb2QkhHfmMNFl5XgBR7YsPOpOQg2G/ie2Vdj/YpnCcZB87m80QxidD73zYnRM9p7K8uLmzdrghd44ODYSUab0uIic+bsX2bPAhBUFpNy3srORbwIQT5keIXf+bo3hWBcl99JTPwOZYGdZSKZlnKaUeRYVj4ff9kgV++5tPQnOelmvP84PwEAqDoAAACCShlNTA+5M37IhutkkFfwIs/ogOkIOzCsqQd3s1EjbOdn0fHeR/8bg04h23WJIc8em0lnZWhaleb/tRXN8AHxDc1qPGmMzaoSH/k0MZHMqsTSW/stg4Kue8B3XMTLUmP1F4SYAAKQ6z4eWia27dazes33UeOhKTGfzYieabcG/eqiZsbswAxA9zNZx9/Ys10sKKqqqnL3gMewHEOal1Y9Dw14rou2WywINbUOSpruS9nMLABgNpOVoNWuUMWxsZJNTRNkak3RiWlVFVg2gV1dLzQsPS4nJa7xwNWnIWo9pIOaY3pCOqskuq+cSGVVYpmteVxQ1HUniCq0vyKB53iMKDUcEEJY/9D1MAAAJObSKcbMZKCgjA0qC8yksxI09NbH1WXNjJyfdfKsvhrvV1nBs5zWk3XJckAyq0b1OAMeg9pfReoZ471xzdpb84wELaftKH49rPpAtmY0Dl9ITCiqyDJNcRjBZgWDFc0kSjY1vWN175YPyraFlb4XKFuyQFC6fu7c5SFmO8Np18N4Mq0gLWWx8oAhabCrd1FxHchJUl1Y4PsIAECw6/q9/VCs0vENF88ArxhTc2nOMdtb4csLml0dytniu9nIyuDuz2LiHYAEx7KgOdLVXAd29cndQoYLin7+Ry6Xi/yiVlz4Mn/jrgfR2saB49I//+rD34yauasP1/duVB8s3yXvffJr7sfiLePej6MjwUhQKSwu/fTBZ799Y1+/KEb48MNDd3O57zcOjNYertxGJ1L/8/DE1MHHS/rd0anJoFy4t0c6icyb3p5j0iy59+2QMveaueuPR/cHlcLy7fv+quPer2wcOX7yjddP/u6d6rXcQmVjNHj6/bKz76PzsxHWqKxc/vzabc9/hNb2T741Wrx6Sb/tPYI/BAemTgqvHThY+vyDT/K6fk3Lf/HF5VvfVQ6+/Ztjr+0BgDlyqGrq9w+9efBpceU++Qnetlw4cvD4VHXxC828vwphtRYceFM8zAAAWDHCbpGT67Xvv9ZXAbce1EbWHt76PP8kedM4P80AAAB74vS768alW09HRtZKd/56bfW9azfOvr5n5OHyNfuHkdGNjaD6YPmGL332r8fIdws3V3/cOzKysfa4YN7el/zjr/nK4uWccXvVh2jv5Fsn+H1g/eEKOiGD7x+sjQRPv7+Vt/ncjX+bHQOg3LoyODB1cuZXH75/xL50pbA+MlorrSyhE5/8doKJKLTfuHuOTI7eu7n09ODkaPXBd48OK+zdG84TTlR/XX+JzU1tLBt70v/P/zzcbs+IsgArnn5/dCmrlUcPbjwtrjg/Kam51/rMt8O+GudX0ydPH6/o+eWnIxtPi3+/bODUDe3UP+ypFRe+vHLTWX30ZG3k4NHJp4t/vmLeewRRdfTQ8SOVW19oS/f8J6g2cujNg+W/fXltyfWf/FDbe+Qt8R9no3zjtSjvrUY0a8SYzZ44/c66nrtV23+g9vC7Ref+I/eu+6i6d+qdqaeLTRPtP/ruPk+3Ho2MbmxsrD1cuXGPT/9xltsDQOXOX60nzL5gPdhYK379mf7TZ+aNMxN7AACA217dr5juKkS1Q2++J7wGQOW771nl2KPvHwYb6+U7f9UffaTrZyb2gGrhevPKvUfeEmd+PbQF1otfZ7VV4fe/PzGgu6sWrn993TDv+j/88AStrVVHp6aqf+90mChHqLvx5JGnFvog/y9vxL8P28zVO5vnyJE127BrR46MPP7e+fGY/NOS4YI3Tijsg6/bETrIZ/at3uhtuL0PFjpaVozoXOK94sTE68rvjhbzuTtro3vXyyvLq4d//y8zPw7nbJGO2upU4draxsG3jnF76tF5864H4dr6+t6pE/w+EBvvAByaHL197e7+o4dqD1fu/rgPW6btrx88/k/rdy71ChkyKPoZbqlLC4IgRK2VV4SQMAwx9H2I4xfotq7GEKKeJU0YtT6qC9uqzIY+ddmERH23DaChKp1bHIhvpYSOdX8hwdCva45RX8ED9IzHzwtM0qpfGVNxgiHq/KpuKoJ8vy27/hGGvt9r6kh5wxiou92iCh10Z1Nh0mMjHFnJKB8Jt9mUz+Srg/1qc9tuW8/oT7fSrG0fIgh2e0xLWr0NYXcbOmmOT7sDK7gjdR9SyLNYYKdwdT1uU0s3g1y991LUeemW1IlpuCFvHuAVuLPX2bqzbbObjYt3jKAPcV02inLg7ejZguaMjSJY/lh0Mv/7q47fe4KVc5KV+s9vnttxJuXLR0Uv/9/fnnpeBVAogyn84VAKWP+n/2fOXUZQvJ7zxOz5WbBy1RIunN1dx1D/4qG5hKJIKLkszn+6UKwEAABQqxSuZwwmm31eA15QKS5bDiKevVgoD//jBIWyU9QqhWXLw8gzlxtev3vBvmU5iFRWTCQl6YD3S4PO8+KplYuuBxEBLNdzONpOE1TLPmr8PMvyvaeOUSjPnaBaaq1q4oTn6eyvArVywfaJKM8PfdYd5ZWBjnkUCoVC2S3Qd5sUCoVC2S3QMY9CoVAouwU65lEoUVRLdDURhfLLI3ZPejfV4uLf73xXeDhytL7VGgSlxa9X1pv/PQtBeeXW3+8Uvq8dkt54eZKUv5xavdJUCouLK9999/jAW8f6t5W/ZFSW/3QTKENucd2VVAvX/1baf1x4OZuyr7/apTrsJJXlq8vB8ahN780LXpEAH3Kex/Ii5xtZ3W0eqOPqmUwqmStuq9BareMJOsEJArFzeQtuS9Zz4uXUCpSvvr33wPsLz/183WHZij4cL7CuljO8LZ3/9CIoX825ambul71kL6jVnmFLQtXKpTPJjPmSToX7+qsdIFg5d2jv5KdDd3k7rUNQe7HGJtjOqqkBBzm/KgE+5JiXGJ+eV4SOp5U5zfPdrLit5qyY9bPVGoxNzMrPelrtzvNyasXL6Uw6JQ2TF+lnYSv6JCZmFFnY/LoXTXUh5ynZ2V/6Yn3HGHTy62aMn7egbyaZHRxTdpK+/monZArJTDqjDu3BO6xDzdLNyuaXPT+mz/67p3N6OjojCXh1Anzbc9DEOE9Yfzs1rDq2x6S2W+7uJjFztivZ2IvmZdNnBygbBpO0f9lzPABA0bZR6sIzCBibYAjgXrqnwufIxPzFr+ZfVOGBa7tgyynRdpjx+a8soeBV2yleXkU2HfOCatnzESNIPcNbULYgp8x1XFdyXR8zvCjN1vdUB9WyDxECvDzLwoKLeXl2IlErLaRzNs74lQoLGG6ie+9rrVx0IeFEqXtPbK1SdD1IWFGSpju/CKol10OMIM9yqGg7PiOflZmIQgEAIKgUbRcSlpeanwBQq5R8iAknzvGk5HqYFcSo/eDRWtUrjAAnKXMTw0wKGvZghPkZtlpyPMQKdVMFlZLrI0ZoKwYAANXSiutjwInyXHNjbIdFG5WqlhwPEsIKIkcIPxOZixYAEFQKtosA27m1vl55zArzM+MgqFX8himmx+Ik1yoF18OE4USBwczMzHifPjHUKiUPEk7onzcHlaLjQQx4WZmN3wZdKxdcHxOGFwVA2JmGOXrvbbQmK87NgErR9THbZdFoIX2ULYtV0q276lVsGqZRYcJJc9NjHbXncMn1EODFuelBnUGfARtF9DhSh1viogtZcW6a6YylogsBL4rTPbFTKbouxKygzM+MgS5n6VUvqKxkM4YvyOUKywCWmxiLSo3R5668NNthtWrBZqR2ms6o+IqywCYRVysXHA91eT0Y3s9BfH81VMAOUq/DvZqKxXlvjA5D16K3KUGtvJjJmFBNlSuAYdiJ8SjnHaI3C6pl1/UwwwudTRnhlnGq1squhxAosF3N82wBPqAj2jzEhutAehh0/ie0MsmU7kKMfEfPqgLTTiMfIh+2j3/1tGQy70ASEuTqKTXr4DAMsWdpSYGRMrpu2LrKsim76tumluQZMW2Ypmk6TRFeVuCSmqlbHkLQSgli1m0KR1ZaTZseDkMC7ayaMnzSLFNRMjZE0Mkqoqr72MmnTRhRKAlDbGdTWl2GkZTUhgzi23paYlkplddMx/c9KyNLKdNvFh2vFfGNpJIyIQkJNJNyympmqB8Eco2swjFK3tINx0fI02QhabqWbjoQITcvCSmredy2m0/lHRyGIbLTspJvlIs9K6/yjKTXi/O0xkUh8TVF7jgBu7tcM502fBKG2NNUKWXBsFn5lMiwSbshWUsJDJd24iQjK5M26u2F7LSYtPv1iYJ4RjqZMT2EkW9pGYVnFLNZSU9TlYyNwpD4mipnnOhzYqGRztTtS6CZlDJu3L3QMTIyyya1hkWdrCSkbBwvJApsKGLW6/jfszSVB3z9DuSaeZUHQtYL2/6dNQ3D9hDyDVWQtZhGiDZgpCMR39bTIiukNV23jBTPKAZuFqxm8obt+b6jqZKSb1kMO1lFzbs4DLGbVeS8Rwaph1zTzEgMp+RN0zQtL9ruEe7Kq2arpbHvt1s9Or762STifD2VsRCp16ftEEP6+aD+ariAHagedPS0xHIpp3FttPfG6zBkLSKakkDHNNIiwyc10zRN249ssM16M+IbKTVj+TgMsW+m1XS9I4hyy2hVoZVWkrpH6p2SavgNOzxjgA/qiAaH2JAdSB/xYx5xMwKfclreiw25c8zruNBJ82JHEyJD4ZrB4aQ5VtL8MMS+4zR8R5MYxewOCi8rMEKmOaI4aa7Rx4RQl7mk1b7YzQhC1iNhiDq0QbrEyB39bn+hTooFTRW9rMAm7aZIPyswitEyFtSktiKxWvl5kVWbLRv6eZFPD3n4uqkyLduESJcZLtkc56Amss2qelkBtEygSZ0aWirbGGP8vKQYzVoTW9Mj2iYMQ2wqTEuAk2pVomWK5n9umm+4WoRkYiXFlilCX9Oat7X1iSrbTvFCxxDi58VmSBAnzXOpVjv0+FAbpCsd+SxcTXMH3As1ieGb41xH9aKERONlBbm3OnaK7TCalWTbVXJSLCvrDcnEUqMjpP5lhAFjHcnPCqyQdcOQQMeuD0rEUpkONYiT4th6K2ErybVVIpbKyY3Wi1fPTnGdDROjc5+7djhiJ/Hx1U98xEFNAs1bidlSdkg/H9RfbSFgB3UIfl5sjHkxHjhAh+FqEduUxFTifWsY5b1sV6WJneQlLTquI1WFusy2FUCNfnkHAryuXHRHFIbxPrwV+d3EvtsMHM2AoiG15otMTHrCwNZNLJjtzI/josimdat65vw4AAAwojgNAJie2+SAZlEWE82SmEaC3LKpu1xKbM9ZRUmAGd39yzc8JgA0k8szDMCdecT7Cp3TfUTGx4Nq2fN9BAhGpJnymQWAZVvT9IlkSspmdfer2bl4rUqG4XMyi8plBAAAhOWw51bA7HCn0XKSON5SG/CSONaW38y5PpNzUZYZD2plz/MhAAi10xy3fhTnZQnK4nFTURRFUdUL56On9mNnLCiT8bGgUvJ8HwNM4tYdMM2UjJGSFS4lC56qKoqiqBcuTHfcFUfN0kwi2+0f/Nh2olbXsCCfYmG5/os4w3K+6wWg733PuCwTUTrqqIoiq4p64cIYAIW4exkGAF5uWZRlCCEBAIkoIdFgRBixx9GZrjr21JdhBbFhiwTDMBjFLFpLiP0GHOBILCCCJAKQmJibr/tVAgDAci3VEnMplVF0s3I25RoW5jVQbpqDY33HB/X02cOqF0u3uxJCovJtD4ivfmIjbuKCjZLMeKJWKXk+JAyCCICJIf18UH+1pYDdpEOoE+29AYzXYaha1OwBTTkMscoXdcMX8u13rQlB5jxNL19I97tlEKFq1TZchk+TpmYsBzzXr+FnD/AImO7csNE+vH35ses2MUSEYZnNJSAEcWv0aRTPANg6sJYdLnstAyLKQj4kXaITDAMwRDUwkcqq2LIqAICqbWG1J91yb6HY09Knz2kOZgVRZAfkJGY5tjOXc6RWGCHCtNViZM21UsMfv95tK6a7D21oRnwzkzyXsxArSCIHIrMoJ2a/cl0tyWNXzyiC8HHcKuIAOvnU6T/oHuFEsS+PZRRRkifOWp6VFYFv5ZIi//bl0hAL3RFCcY9KAcIYMO0IYVOGp6tR3jZ90fWMNE88I6uIwvvXy5vcy0SNwv1C4mBAK03zkPQUF3dzhAEHORLDRiag74BjWYIgAhh3SQF8xnLz7dUOQ6oXCzPgoabF0PHVT0fE1aCdS378qekDXhS5ZrnD+fmg/upZAranQ6gT44GDdBiqFps05ZZpKR9AhLv7GoZhAEIwyi2jVEUQd2km5hw7O7MjAT4EET78DPJj53mswLME4yD+ea0Bx/deiBEG/BDr/KuL1131/KkB8nmRZ1zYEUE1jAEn8GMAVIicy/HuwoLDcHnn24Hnn5f+JCfdjPcf5ycAAFUHAABAUCmjiek+x0cQAV4SBi7b40WBcRl2ero1zAbBjmZfKV9VFEN1//PiNAAg8OofVstldrrzKaayvIhPnbn4zZmLAFRXzslZo3zq4nSvrGAlrWSI5n97agwAUKp/VitDMt273IJg0nCuCMmK5NnCmfNfzZ8HIChfVZS8nfl2UNMBAADH8/UJeD8JQeAZh2Gn200QbcTqyqIvn7nwzakLANSKf1JSWvF8esh7BwqJzhLH8SwhOGou0ywJb3FIbN5XWOwzYH6gI20y1gQQIYYXecBhgSOI4afbMbAVfywuLLBnz/b5zVbYQnz104q46mJKznGW/9VcAgDQ8JpaufxfvrexuZ8P6q+eJWAjO4Q47x2gw1DRyvFDNOXK9QXx/HBTv5byCZ7ngNf5LgwjDHiBj3RLYPWpmhZ5RgdMhwlBEACyAwHeT7sjGsAzyI+d5yXmMhnBs+zmA07gezD6wvlsVvAsp/UkVLIckMyqcY3CsiwgGAMAMAHRj7KtTmUimVOJY7e2pdRsy5eymVkAAPZsFwuKqqqqvEnCj4rrQE6SJhr18BEAgGDX9RsmQqj5zBWUNL1ZwACtUlmVWGZrphMU9fqGw/LCudOfDti02SOn+592Vxp4jseIUsO7IIT1D10PN+8gAACAXV0vNHQYl5MSFzmh9h0X8bJUt1ANQkwAAch1IWi8KiMNEWXXww11IiQTZGpWox0S06oqtGYhLX36GVMzKc61ii1D+V5z9g9m0lkZmla7aVe0yP1ixDc0q+FbY7OqxLNM/L1xw1GUkGh4gUetVxQNWK49cwk814u5dfAcKsqAsY4EAI6UhiBqXlu1NItN5ZLjIDGfzYieabf8rrqomaj/5i6BLMvUgzDYrIPZfITfLL4i6hEVcb7tEFFuvBisQkgAAYHvuo+H8vNB/dUAOw+vXhfRHjhIh6GiNb4pEyzb+GmlhkGs98YrP5vJStBqC644Nlayqekot4xSdUzNpTnHXGlZrbyg2dWdCHAA4juiftqfb0V+NwPOHuNOnj7++EruzsbB/WulO0uu/8i+ew+u7T/6bs/5M9zJ08cren756cjG0+LfLxs4dUM79Q97qoXrX2jm/VUIq7XgwJvNA3iYySNrxrV7+w/VvB8FVTy8Xlz48spNZ/XRk7WRg0cnny7++Yp57xFE1dFDx0/84z9/+P7+pUtfl4PR2sPvvr7iCJeMCzMMAODAwdLnH3yS1/VrWv6LLy7f+q5y8O3fHHttLaJQ9siRNduwa0eOjDz+3vnxmPzTkuGCN04os2/sW/v+a30VcOtBbWTt4a3P80+SN43z0wyoDdJq+p8/fP+IfelKYX1ktFZaWUInPvntBAOCh9c/yy/Bw7/7/YmoqKwsX/782m3Pf/Kktn/qrdHi1c/126uPINrYf/TNje++zN9wViH8ITgwNffeidF7N5eeHpwcrT747tFhhb17w3nCieobletfXrvt+o9+GD1yXNp3f+Hm6o97R0Y21h4XzNv7kn+MOiuLmzr4eEm/Ozo1GZQL9/ZIJ5F509tzTFJEnmEnD5YN88nk1N5KYXkV7Fk1b9+vjk6+xT9a6pP8aPma/cPI6MZGUH2wfMOXPvvXY2xl5XKHPhFntO3hf/PhkbuXrpQ2Dow+Lf7duvdo1XFcWDv05nvC6+KHvxk1c1cfru/dqD5Yvkve++TXEeca1Yq3jHs/jo4EI0GlsLj00wef/faNfWzEvQceLn6Rv+Gs+k9+2Dgw9WZw58tLN+/6jxAKDr557Ifb/UIinX7Pgdrfr6F3U50tyE3tL9xYCiYng3LBRnt+cpbs1bUDU6/X7lzSlu75T1Bt5NCbB8t/+/Lakus/+aG298hb/adNjTyMMCAjRDhSUFz4Mn/zrgfh2vr63qkTfEPT8uKf7/742p7aerBRKfw1t3Q4b3716/8LAABeO/m7d6rXcguVjdHg6ffLzr6Pzs+y1cL1L+LVe/3ogcIVozq5d9V/7YP5KGNEuqsP0dr+o+90ny01KL765cZFHDg0ecAzjfv7jx5af7DisrJ4/6YJ94nv/ROyv93czwf2VxP/GBmwUQzqEPI37noQre0/+q44/c+R3huvA7d6c4hojW5KAAA4MrV36crSyJERFx1WfxVzKF6sbQFgT5x+d924dOvpyMha6c5fr62+d+3G2df3RLkl+S6iY9lzWPnd0WI+d2dtdO96eWV59fDv/2Vm3w4EOAAAxHVEk5Vb8T78j7NDy+9h82UuGEGEwzAkCCKE4xdkhaRx4RBs4dL69RjBzqKhoSp5r/0B8a2UIA1et0MQbMkgrZVKeYFJWt1fbkEr2FcN1zQ3W121BeltfSN0I6R+le9vbkvcNniPLIKgDxFp1obESK7fRZBfv3jrVUGkqQbuLX+gxHrBGPp+fwNtdu9QQnpAhqoa/QtRCYL1ewlqmWlLDDJglCP1YamMmPe7mrJfxy01Dt7a5ZsQGV/9bBJxpEOphqduxc/Dgf3VEHbeYocQY/IIHbZWi0i5nT3CdpUnuNt7o9xyoKo4SvazBHjHdX0d0TBs1esH7FV4mSFWUujZY0XslNhe4Do0TS/ZKXzT3GwFOOXlhjiZ5JCrnn9WmmPeK85OR9wO85KrN5hXWvmfjVczl1BCyWVx/tOFYiUAAIBapXA9YzDZ7CbbIXoIKsVly0HEsxcLO5M3przosPIv7CyuXUdiLpfC2sILPduwl1p5ZcHyCXSs5YbPv5LsfMTtKC+5eoN5pZX/WRkJw/BF67BdauWi60FEAMt1Hqo1NEG17Df3K7F81KljWyUIgkTil3448W4gKC9qjpA5P/OSNGatUoKN5XEMJ0xv2dVfEnY+4naUl1y9wbzSyv+svMpjHoXyHAkCQJ9fKJRfGnTMo1AoFMpu4dX8PY9CoVAolK1Dx7xXklq5/NLkSqdQKJRXBjrmvXAqhcXr169eXo4/A7KfMQ4Zny6+VEsLKRQK5eWHjnkvHJYXWEfLGfFHNUUwNpdJwdzl0nPTikKhUH6B0DHvhTM2MSPL/JZvS8ykFC93nc71KBQKZWjomPfqMq6mWEOnUz0KhUIZlvicsdWyDxEinDTH46LrE1aUerd91ypF14WYFZT5mdYWyFq54HgIcKI818x3UJeFCSfOTY91St4kIQIAoFYp+RATTpzjScn1MCuI3dstI4oDAATVkuNBQlhB5AjhZ/oyCQ5SqfEfI8zPsNWS4yGWl2a7VI2seIzauOhCVmwpV6sUXQ8SVpSkvq3FQbXkepgRxNmeHaVBteS6PgKcpMxNtG9KSDKbNUt/maFHv1AoFMowxM7zCPJdPa0m09nLhgc4nvGy8rufLrdTNxT+9H7KBNKZMwprJt9t5BAtXz+X8wXlzBkZGMl3Py3UmrKcfEpO6T4AAGDo2fmUkjbg5uoFyHeNrKqmMpd1B3M8CzX17XOL5WbaicjiQOlq2sDS/KlTpyRgZTJWREGDVMLQNXNJNWssXzd9RhQ5Ny2eXmyuk4yueITaGTWtGdcNzzdSYnKhBgCoLv/hdNZlpFNnFB5qyXML5Y57fVMzPEaQeOBk3//4ejvxSXnhYzXr88oZVURZ5VxnrqIxUQSuS1dwUigUypAMOozTSXNc0m4dWe1lBUbS/DAMQ2wlOSHbPE2ZWConGygMoSYBtnEHMVVG0lo5BuwUy7ePhbaSbPv2TfCzAqMYrQO+oSYxQsYlYWxxfl5SWifjE1vTYxIdDFCJmCrDqWZDCNLlpgYxFY9WmxWybhgS6NgeDkOoy1zSah8A7mYEIVvPDYF0udNWoZsR+JSN65URWdVs1t7Pi3y643BtbCi9h222NrnYAAAF3klEQVRTKBQKJY7Nfs9j2HZa15mUynu6UQKgZhsW5nlQrgMZjvUdH4CJCzbyjflErVIqOJAwCLZSCDJdmSk3TYPbCQsAy7Ze9k0kUxI0dBfEFsfLEkyLx98/96eriwUkXzgfk615E5U4SWzkvWUYABoJG2MqHq02ESQRgMTE3PzMGCibustJYvvNpCgJjXrUC+nIBDmriNjU7RoAJcPwOY5FjQIJy2HPba9bYRgmJk8xhUKhUPrY0hoWlucIgggAjBFhmHYfzWcsNy8BAGrQziU//tT0AS+K3JZGtuG14FiAEazFFpeY/cp1tSSPXT2jCMLHm2Yuj4Hp1z+24pH3sx0PDAD5kHRJTDAMwBBFHoHOsAyBCAOAUVeBjKy5Vqo9hhNAtvgAQaFQKLuYofLKNkE+ZHiFB4DjBY4ghp9ur+wIggBUF1NyjrP8r+YSAIDG9KNWLoPpnsUqASZxyd+H0AIiwEvCWGxx/+V7G6fOXPzmzEUAqivn5KxRPnVxehOpw6kUU/E4OkcjXuQZF3aUUcMYcAIftQYmwAizAs8BAESBcRl2erqlf1d5BBOOi0rKTqFQKJR+NpvnNSZUAAAQrGgmUbKpaQAS89mM6Jl2awJVXdRMBHzbIaIs1ec2VQgJICDwXReB+uys2eEHnut1lFFeOHf608GTMYSaXwclTfelbGYWxBb32NX1QmNgGJeTEsdGjwoDVAIAABAxBsZUPBLcLWEimVOJY7cXAdlWox6NKvotOTXH9IR0VkkAMJHKqsQy2ytairrutAc96CNe5Ju3FS6fO3c9ak0NhUKhUAAA4H/kcrnYLyt3/mo9YfYF68HGWvHrz/SfPjNvnJnYAwAAr5383TvVa7mFysZo8PT7ZWffR+dn2UOTBzzTuL//6KH1BysuK4v3b5pwn/iecozbw03tL9xYCiYng3LBRnt+cpbs1bUDU2+Lh0ceXv8svwQP/+73JyLHprXvv9ZXAbce1EbWHt76PP8kedM4P80AEFfcPyH729Uf946MbKw9Lpi39yX/+Gs+6v1fnEoHHlz9/Nptz3/ypLZ/6q3R4tXP9durPkRr+4++c2x6LqLivZJrxYUv8zfvehCura/vnTrB7wMA7BM+fH//0qWvy8Fo7eF3X19xhEvGhRkGAADWH66gEzL4/sHaSPD0+1t5m8/d+LfZMQAAYIQP3z9iX7pSWB8ZrZVWltCJT3470axN9c5l+40/nm/YrVr4c85A4u8/OrZveAegUCiUXcTAXEKFPxxKAev/fCNWK5iZGI98C1etIMBNdO40C2oVRBof9SRRDaoVSFh+YgxUKwiw3PhY87vi4iJ35kzkYpPy5aOil//vb5VqBTHcxFjvprb+4oIAJBJBrQIRw01Hqt1VgRiVBhNR8SEJalUE2L569NYl6iu2uxGqC6dTRP/38+Nb1oFCoVB2JUP9npcYn4jrVhPjE70DVWJsorWluidreGJ8ovG7VM9tZQiEWTCYiKJiiksk6p9vvuV9gErb02aYO8fG4+7srMvmX5VNm88adMCjUCiUYYn9Pa9WKSxbHkaeuVysPOefiMqLDitHniUSVIrLloOIZy8WypErHHct1UUNpnJzNJM3hUKhDE3su82gWmotquCE3lPHdpaeN6BdWpR91FgJwvIzcZOgXUdQWtA8KXO270w1CoVCocQz8Pc8yktLEIDopwQKhUKhxELHPAqFQqHsFmguIQqFQqHsFuiYR6FQKJTdAh3zKBQKhbJboGMehUKhUHYLdMyjUCgUym6BjnkUCoVC2S3QMY9CoVAouwU65lEoFAplt0DHPAqFQqHsFuiYR6FQKJTdAh3zKBQKhbJboGMehUKhUHYLdMyjUCgUym6BjnkUCoVC2S3QMY9CoVAouwU65lEoFAplt0DHPAqFQqHsFuiYR6FQKJTdAh3zKBQKhbJboGMehUKhUHYLdMyjUCgUym6BjnkUCoVC2S3QMY9CoVAouwU65lEoFAplt0DHPAqFQqHsFv5/5eOVGQD/BAIAAAAASUVORK5CYII=;" parent="1" vertex="1">
          <mxGeometry x="40" y="410" width="456.15" height="210" as="geometry" />
        </mxCell>
        <mxCell id="Hf4ZEuIIgJbTYPRIJL2N-26" value="" style="endArrow=diamondThin;endFill=0;endSize=24;html=1;rounded=0;" parent="1" source="Hf4ZEuIIgJbTYPRIJL2N-50" target="Hf4ZEuIIgJbTYPRIJL2N-35" edge="1">
          <mxGeometry width="160" relative="1" as="geometry">
            <mxPoint x="1080" y="47" as="sourcePoint" />
            <mxPoint x="730" y="300" as="targetPoint" />
          </mxGeometry>
        </mxCell>
        <mxCell id="Hf4ZEuIIgJbTYPRIJL2N-35" value="FileManager" style="swimlane;fontStyle=1;align=center;verticalAlign=top;childLayout=stackLayout;horizontal=1;startSize=26;horizontalStack=0;resizeParent=1;resizeParentMax=0;resizeLast=0;collapsible=1;marginBottom=0;whiteSpace=wrap;html=1;" parent="1" vertex="1">
          <mxGeometry x="710" y="60" width="300" height="138" as="geometry" />
        </mxCell>
        <mxCell id="Hf4ZEuIIgJbTYPRIJL2N-36" value="+ rulePath : string" style="text;strokeColor=none;fillColor=none;align=left;verticalAlign=top;spacingLeft=4;spacingRight=4;overflow=hidden;rotatable=0;points=[[0,0.5],[1,0.5]];portConstraint=eastwest;whiteSpace=wrap;html=1;" parent="Hf4ZEuIIgJbTYPRIJL2N-35" vertex="1">
          <mxGeometry y="26" width="300" height="26" as="geometry" />
        </mxCell>
        <mxCell id="9taP5eCOD0S-IgPT_sHh-20" value="+ referencePath : string" style="text;strokeColor=none;fillColor=none;align=left;verticalAlign=top;spacingLeft=4;spacingRight=4;overflow=hidden;rotatable=0;points=[[0,0.5],[1,0.5]];portConstraint=eastwest;whiteSpace=wrap;html=1;" vertex="1" parent="Hf4ZEuIIgJbTYPRIJL2N-35">
          <mxGeometry y="52" width="300" height="26" as="geometry" />
        </mxCell>
        <mxCell id="Hf4ZEuIIgJbTYPRIJL2N-37" value="" style="line;strokeWidth=1;fillColor=none;align=left;verticalAlign=middle;spacingTop=-1;spacingLeft=3;spacingRight=3;rotatable=0;labelPosition=right;points=[];portConstraint=eastwest;strokeColor=inherit;" parent="Hf4ZEuIIgJbTYPRIJL2N-35" vertex="1">
          <mxGeometry y="78" width="300" height="8" as="geometry" />
        </mxCell>
        <mxCell id="Hf4ZEuIIgJbTYPRIJL2N-38" value="+ fileToReferences() : Reference[]" style="text;strokeColor=none;fillColor=none;align=left;verticalAlign=top;spacingLeft=4;spacingRight=4;overflow=hidden;rotatable=0;points=[[0,0.5],[1,0.5]];portConstraint=eastwest;whiteSpace=wrap;html=1;" parent="Hf4ZEuIIgJbTYPRIJL2N-35" vertex="1">
          <mxGeometry y="86" width="300" height="26" as="geometry" />
        </mxCell>
        <mxCell id="9taP5eCOD0S-IgPT_sHh-21" value="+ fileToRules() : Reference[]" style="text;strokeColor=none;fillColor=none;align=left;verticalAlign=top;spacingLeft=4;spacingRight=4;overflow=hidden;rotatable=0;points=[[0,0.5],[1,0.5]];portConstraint=eastwest;whiteSpace=wrap;html=1;" vertex="1" parent="Hf4ZEuIIgJbTYPRIJL2N-35">
          <mxGeometry y="112" width="300" height="26" as="geometry" />
        </mxCell>
        <mxCell id="Hf4ZEuIIgJbTYPRIJL2N-43" value="" style="endArrow=diamondThin;endFill=0;endSize=24;html=1;rounded=0;" parent="1" source="9taP5eCOD0S-IgPT_sHh-1" target="Hf4ZEuIIgJbTYPRIJL2N-35" edge="1">
          <mxGeometry width="160" relative="1" as="geometry">
            <mxPoint x="1080" y="173" as="sourcePoint" />
            <mxPoint x="960" y="173" as="targetPoint" />
          </mxGeometry>
        </mxCell>
        <mxCell id="Hf4ZEuIIgJbTYPRIJL2N-45" value="Sentence" style="swimlane;fontStyle=1;align=center;verticalAlign=top;childLayout=stackLayout;horizontal=1;startSize=26;horizontalStack=0;resizeParent=1;resizeParentMax=0;resizeLast=0;collapsible=1;marginBottom=0;whiteSpace=wrap;html=1;" parent="1" vertex="1">
          <mxGeometry x="310" y="60" width="300" height="138" as="geometry" />
        </mxCell>
        <mxCell id="Hf4ZEuIIgJbTYPRIJL2N-46" value="+ avaialableReference : Reference[] " style="text;strokeColor=none;fillColor=none;align=left;verticalAlign=top;spacingLeft=4;spacingRight=4;overflow=hidden;rotatable=0;points=[[0,0.5],[1,0.5]];portConstraint=eastwest;whiteSpace=wrap;html=1;" parent="Hf4ZEuIIgJbTYPRIJL2N-45" vertex="1">
          <mxGeometry y="26" width="300" height="26" as="geometry" />
        </mxCell>
        <mxCell id="Hf4ZEuIIgJbTYPRIJL2N-47" value="" style="line;strokeWidth=1;fillColor=none;align=left;verticalAlign=middle;spacingTop=-1;spacingLeft=3;spacingRight=3;rotatable=0;labelPosition=right;points=[];portConstraint=eastwest;strokeColor=inherit;" parent="Hf4ZEuIIgJbTYPRIJL2N-45" vertex="1">
          <mxGeometry y="52" width="300" height="8" as="geometry" />
        </mxCell>
        <mxCell id="Hf4ZEuIIgJbTYPRIJL2N-48" value="+ LoadRegle(StringPath) : Regles[]" style="text;strokeColor=none;fillColor=none;align=left;verticalAlign=top;spacingLeft=4;spacingRight=4;overflow=hidden;rotatable=0;points=[[0,0.5],[1,0.5]];portConstraint=eastwest;whiteSpace=wrap;html=1;" parent="Hf4ZEuIIgJbTYPRIJL2N-45" vertex="1">
          <mxGeometry y="60" width="300" height="26" as="geometry" />
        </mxCell>
        <mxCell id="9taP5eCOD0S-IgPT_sHh-9" value="+ LoadReference(StringPath) : Reference[]" style="text;strokeColor=none;fillColor=none;align=left;verticalAlign=top;spacingLeft=4;spacingRight=4;overflow=hidden;rotatable=0;points=[[0,0.5],[1,0.5]];portConstraint=eastwest;whiteSpace=wrap;html=1;" vertex="1" parent="Hf4ZEuIIgJbTYPRIJL2N-45">
          <mxGeometry y="86" width="300" height="26" as="geometry" />
        </mxCell>
        <mxCell id="9taP5eCOD0S-IgPT_sHh-13" value="+ toString() : string[]" style="text;strokeColor=none;fillColor=none;align=left;verticalAlign=top;spacingLeft=4;spacingRight=4;overflow=hidden;rotatable=0;points=[[0,0.5],[1,0.5]];portConstraint=eastwest;whiteSpace=wrap;html=1;" vertex="1" parent="Hf4ZEuIIgJbTYPRIJL2N-45">
          <mxGeometry y="112" width="300" height="26" as="geometry" />
        </mxCell>
        <mxCell id="Hf4ZEuIIgJbTYPRIJL2N-50" value="Reference" style="swimlane;fontStyle=1;align=center;verticalAlign=top;childLayout=stackLayout;horizontal=1;startSize=26;horizontalStack=0;resizeParent=1;resizeParentMax=0;resizeLast=0;collapsible=1;marginBottom=0;whiteSpace=wrap;html=1;" parent="1" vertex="1">
          <mxGeometry x="1080" y="-64" width="300" height="216" as="geometry" />
        </mxCell>
        <mxCell id="Hf4ZEuIIgJbTYPRIJL2N-51" value="&lt;div&gt;+ referenceName : string&lt;/div&gt;" style="text;strokeColor=none;fillColor=none;align=left;verticalAlign=top;spacingLeft=4;spacingRight=4;overflow=hidden;rotatable=0;points=[[0,0.5],[1,0.5]];portConstraint=eastwest;whiteSpace=wrap;html=1;" parent="Hf4ZEuIIgJbTYPRIJL2N-50" vertex="1">
          <mxGeometry y="26" width="300" height="26" as="geometry" />
        </mxCell>
        <mxCell id="9taP5eCOD0S-IgPT_sHh-8" value="+ referenceWords : string[]" style="text;strokeColor=none;fillColor=none;align=left;verticalAlign=top;spacingLeft=4;spacingRight=4;overflow=hidden;rotatable=0;points=[[0,0.5],[1,0.5]];portConstraint=eastwest;whiteSpace=wrap;html=1;" vertex="1" parent="Hf4ZEuIIgJbTYPRIJL2N-50">
          <mxGeometry y="52" width="300" height="26" as="geometry" />
        </mxCell>
        <mxCell id="Hf4ZEuIIgJbTYPRIJL2N-60" value="+ type : Type (M,F,Sing,Plur)" style="text;strokeColor=none;fillColor=none;align=left;verticalAlign=top;spacingLeft=4;spacingRight=4;overflow=hidden;rotatable=0;points=[[0,0.5],[1,0.5]];portConstraint=eastwest;whiteSpace=wrap;html=1;" parent="Hf4ZEuIIgJbTYPRIJL2N-50" vertex="1">
          <mxGeometry y="78" width="300" height="26" as="geometry" />
        </mxCell>
        <mxCell id="Hf4ZEuIIgJbTYPRIJL2N-52" value="" style="line;strokeWidth=1;fillColor=none;align=left;verticalAlign=middle;spacingTop=-1;spacingLeft=3;spacingRight=3;rotatable=0;labelPosition=right;points=[];portConstraint=eastwest;strokeColor=inherit;" parent="Hf4ZEuIIgJbTYPRIJL2N-50" vertex="1">
          <mxGeometry y="104" width="300" height="8" as="geometry" />
        </mxCell>
        <mxCell id="9taP5eCOD0S-IgPT_sHh-22" value="+ getWord(int) : string" style="text;strokeColor=none;fillColor=none;align=left;verticalAlign=top;spacingLeft=4;spacingRight=4;overflow=hidden;rotatable=0;points=[[0,0.5],[1,0.5]];portConstraint=eastwest;whiteSpace=wrap;html=1;" vertex="1" parent="Hf4ZEuIIgJbTYPRIJL2N-50">
          <mxGeometry y="112" width="300" height="26" as="geometry" />
        </mxCell>
        <mxCell id="9taP5eCOD0S-IgPT_sHh-40" value="+ setWords(string[])" style="text;strokeColor=none;fillColor=none;align=left;verticalAlign=top;spacingLeft=4;spacingRight=4;overflow=hidden;rotatable=0;points=[[0,0.5],[1,0.5]];portConstraint=eastwest;whiteSpace=wrap;html=1;" vertex="1" parent="Hf4ZEuIIgJbTYPRIJL2N-50">
          <mxGeometry y="138" width="300" height="26" as="geometry" />
        </mxCell>
        <mxCell id="9taP5eCOD0S-IgPT_sHh-24" value="+ addWord(string)" style="text;strokeColor=none;fillColor=none;align=left;verticalAlign=top;spacingLeft=4;spacingRight=4;overflow=hidden;rotatable=0;points=[[0,0.5],[1,0.5]];portConstraint=eastwest;whiteSpace=wrap;html=1;" vertex="1" parent="Hf4ZEuIIgJbTYPRIJL2N-50">
          <mxGeometry y="164" width="300" height="26" as="geometry" />
        </mxCell>
        <mxCell id="9taP5eCOD0S-IgPT_sHh-25" value="+ setType(type)" style="text;strokeColor=none;fillColor=none;align=left;verticalAlign=top;spacingLeft=4;spacingRight=4;overflow=hidden;rotatable=0;points=[[0,0.5],[1,0.5]];portConstraint=eastwest;whiteSpace=wrap;html=1;" vertex="1" parent="Hf4ZEuIIgJbTYPRIJL2N-50">
          <mxGeometry y="190" width="300" height="26" as="geometry" />
        </mxCell>
        <mxCell id="9taP5eCOD0S-IgPT_sHh-1" value="Rule" style="swimlane;fontStyle=1;align=center;verticalAlign=top;childLayout=stackLayout;horizontal=1;startSize=26;horizontalStack=0;resizeParent=1;resizeParentMax=0;resizeLast=0;collapsible=1;marginBottom=0;whiteSpace=wrap;html=1;" vertex="1" parent="1">
          <mxGeometry x="1080" y="160" width="300" height="190" as="geometry" />
        </mxCell>
        <mxCell id="9taP5eCOD0S-IgPT_sHh-2" value="&lt;div&gt;+ id : int&lt;br&gt;&lt;/div&gt;" style="text;strokeColor=none;fillColor=none;align=left;verticalAlign=top;spacingLeft=4;spacingRight=4;overflow=hidden;rotatable=0;points=[[0,0.5],[1,0.5]];portConstraint=eastwest;whiteSpace=wrap;html=1;" vertex="1" parent="9taP5eCOD0S-IgPT_sHh-1">
          <mxGeometry y="26" width="300" height="26" as="geometry" />
        </mxCell>
        <mxCell id="9taP5eCOD0S-IgPT_sHh-3" value="+ ruleWord : string" style="text;strokeColor=none;fillColor=none;align=left;verticalAlign=top;spacingLeft=4;spacingRight=4;overflow=hidden;rotatable=0;points=[[0,0.5],[1,0.5]];portConstraint=eastwest;whiteSpace=wrap;html=1;" vertex="1" parent="9taP5eCOD0S-IgPT_sHh-1">
          <mxGeometry y="52" width="300" height="26" as="geometry" />
        </mxCell>
        <mxCell id="9taP5eCOD0S-IgPT_sHh-11" value="+ referenceSets : Reference" style="text;strokeColor=none;fillColor=none;align=left;verticalAlign=top;spacingLeft=4;spacingRight=4;overflow=hidden;rotatable=0;points=[[0,0.5],[1,0.5]];portConstraint=eastwest;whiteSpace=wrap;html=1;" vertex="1" parent="9taP5eCOD0S-IgPT_sHh-1">
          <mxGeometry y="78" width="300" height="26" as="geometry" />
        </mxCell>
        <mxCell id="9taP5eCOD0S-IgPT_sHh-12" value="+ selectedReference : Reference" style="text;strokeColor=none;fillColor=none;align=left;verticalAlign=top;spacingLeft=4;spacingRight=4;overflow=hidden;rotatable=0;points=[[0,0.5],[1,0.5]];portConstraint=eastwest;whiteSpace=wrap;html=1;" vertex="1" parent="9taP5eCOD0S-IgPT_sHh-1">
          <mxGeometry y="104" width="300" height="26" as="geometry" />
        </mxCell>
        <mxCell id="9taP5eCOD0S-IgPT_sHh-4" value="+ type : Type (M,F,Sing,Plur)" style="text;strokeColor=none;fillColor=none;align=left;verticalAlign=top;spacingLeft=4;spacingRight=4;overflow=hidden;rotatable=0;points=[[0,0.5],[1,0.5]];portConstraint=eastwest;whiteSpace=wrap;html=1;" vertex="1" parent="9taP5eCOD0S-IgPT_sHh-1">
          <mxGeometry y="130" width="300" height="26" as="geometry" />
        </mxCell>
        <mxCell id="9taP5eCOD0S-IgPT_sHh-5" value="" style="line;strokeWidth=1;fillColor=none;align=left;verticalAlign=middle;spacingTop=-1;spacingLeft=3;spacingRight=3;rotatable=0;labelPosition=right;points=[];portConstraint=eastwest;strokeColor=inherit;" vertex="1" parent="9taP5eCOD0S-IgPT_sHh-1">
          <mxGeometry y="156" width="300" height="8" as="geometry" />
        </mxCell>
        <mxCell id="9taP5eCOD0S-IgPT_sHh-7" style="text;strokeColor=none;fillColor=none;align=left;verticalAlign=top;spacingLeft=4;spacingRight=4;overflow=hidden;rotatable=0;points=[[0,0.5],[1,0.5]];portConstraint=eastwest;whiteSpace=wrap;html=1;" vertex="1" parent="9taP5eCOD0S-IgPT_sHh-1">
          <mxGeometry y="164" width="300" height="26" as="geometry" />
        </mxCell>
        <mxCell id="9taP5eCOD0S-IgPT_sHh-14" value="Popitron" style="swimlane;fontStyle=1;align=center;verticalAlign=top;childLayout=stackLayout;horizontal=1;startSize=26;horizontalStack=0;resizeParent=1;resizeParentMax=0;resizeLast=0;collapsible=1;marginBottom=0;whiteSpace=wrap;html=1;" vertex="1" parent="1">
          <mxGeometry x="-90" y="60" width="300" height="112" as="geometry" />
        </mxCell>
        <mxCell id="9taP5eCOD0S-IgPT_sHh-15" value="+ generatedSentence : Sentence " style="text;strokeColor=none;fillColor=none;align=left;verticalAlign=top;spacingLeft=4;spacingRight=4;overflow=hidden;rotatable=0;points=[[0,0.5],[1,0.5]];portConstraint=eastwest;whiteSpace=wrap;html=1;" vertex="1" parent="9taP5eCOD0S-IgPT_sHh-14">
          <mxGeometry y="26" width="300" height="26" as="geometry" />
        </mxCell>
        <mxCell id="9taP5eCOD0S-IgPT_sHh-16" value="" style="line;strokeWidth=1;fillColor=none;align=left;verticalAlign=middle;spacingTop=-1;spacingLeft=3;spacingRight=3;rotatable=0;labelPosition=right;points=[];portConstraint=eastwest;strokeColor=inherit;" vertex="1" parent="9taP5eCOD0S-IgPT_sHh-14">
          <mxGeometry y="52" width="300" height="8" as="geometry" />
        </mxCell>
        <mxCell id="9taP5eCOD0S-IgPT_sHh-18" value="+ initPopitron() : Reference[]" style="text;strokeColor=none;fillColor=none;align=left;verticalAlign=top;spacingLeft=4;spacingRight=4;overflow=hidden;rotatable=0;points=[[0,0.5],[1,0.5]];portConstraint=eastwest;whiteSpace=wrap;html=1;" vertex="1" parent="9taP5eCOD0S-IgPT_sHh-14">
          <mxGeometry y="60" width="300" height="26" as="geometry" />
        </mxCell>
        <mxCell id="9taP5eCOD0S-IgPT_sHh-19" value="+ toString() : string[]" style="text;strokeColor=none;fillColor=none;align=left;verticalAlign=top;spacingLeft=4;spacingRight=4;overflow=hidden;rotatable=0;points=[[0,0.5],[1,0.5]];portConstraint=eastwest;whiteSpace=wrap;html=1;" vertex="1" parent="9taP5eCOD0S-IgPT_sHh-14">
          <mxGeometry y="86" width="300" height="26" as="geometry" />
        </mxCell>
        <mxCell id="9taP5eCOD0S-IgPT_sHh-26" value="WordType" style="swimlane;fontStyle=1;align=center;verticalAlign=top;childLayout=stackLayout;horizontal=1;startSize=26;horizontalStack=0;resizeParent=1;resizeParentMax=0;resizeLast=0;collapsible=1;marginBottom=0;whiteSpace=wrap;html=1;" vertex="1" parent="1">
          <mxGeometry x="1470" y="-64" width="300" height="86" as="geometry" />
        </mxCell>
        <mxCell id="9taP5eCOD0S-IgPT_sHh-31" value="+ type : string (M,F,Sing,Plur)" style="text;strokeColor=none;fillColor=none;align=left;verticalAlign=top;spacingLeft=4;spacingRight=4;overflow=hidden;rotatable=0;points=[[0,0.5],[1,0.5]];portConstraint=eastwest;whiteSpace=wrap;html=1;" vertex="1" parent="9taP5eCOD0S-IgPT_sHh-26">
          <mxGeometry y="26" width="300" height="26" as="geometry" />
        </mxCell>
        <mxCell id="9taP5eCOD0S-IgPT_sHh-32" value="" style="line;strokeWidth=1;fillColor=none;align=left;verticalAlign=middle;spacingTop=-1;spacingLeft=3;spacingRight=3;rotatable=0;labelPosition=right;points=[];portConstraint=eastwest;strokeColor=inherit;" vertex="1" parent="9taP5eCOD0S-IgPT_sHh-26">
          <mxGeometry y="52" width="300" height="8" as="geometry" />
        </mxCell>
        <mxCell id="9taP5eCOD0S-IgPT_sHh-33" style="text;strokeColor=none;fillColor=none;align=left;verticalAlign=top;spacingLeft=4;spacingRight=4;overflow=hidden;rotatable=0;points=[[0,0.5],[1,0.5]];portConstraint=eastwest;whiteSpace=wrap;html=1;" vertex="1" parent="9taP5eCOD0S-IgPT_sHh-26">
          <mxGeometry y="60" width="300" height="26" as="geometry" />
        </mxCell>
        <mxCell id="9taP5eCOD0S-IgPT_sHh-34" value="" style="endArrow=diamondThin;endFill=0;endSize=24;html=1;rounded=0;" edge="1" parent="1" source="9taP5eCOD0S-IgPT_sHh-26" target="Hf4ZEuIIgJbTYPRIJL2N-50">
          <mxGeometry width="160" relative="1" as="geometry">
            <mxPoint x="1530" y="60" as="sourcePoint" />
            <mxPoint x="1460" y="78" as="targetPoint" />
          </mxGeometry>
        </mxCell>
        <mxCell id="9taP5eCOD0S-IgPT_sHh-37" value="" style="endArrow=diamondThin;endFill=0;endSize=24;html=1;rounded=0;" edge="1" parent="1" source="Hf4ZEuIIgJbTYPRIJL2N-45" target="9taP5eCOD0S-IgPT_sHh-14">
          <mxGeometry width="160" relative="1" as="geometry">
            <mxPoint x="330" y="230" as="sourcePoint" />
            <mxPoint x="230" y="230" as="targetPoint" />
          </mxGeometry>
        </mxCell>
        <mxCell id="9taP5eCOD0S-IgPT_sHh-39" value="" style="endArrow=diamondThin;endFill=0;endSize=24;html=1;rounded=0;" edge="1" parent="1" source="Hf4ZEuIIgJbTYPRIJL2N-35" target="Hf4ZEuIIgJbTYPRIJL2N-45">
          <mxGeometry width="160" relative="1" as="geometry">
            <mxPoint x="680" as="sourcePoint" />
            <mxPoint x="580" as="targetPoint" />
          </mxGeometry>
        </mxCell>
      </root>
    </mxGraphModel>
  </diagram>
</mxfile>
